STARTFONT 2.1
COMMENT This font was automatically resized by bdfresize-1.5
COMMENT   mag_x = 9/2, mag_y = 9/2, blackness = 4
COMMENT MZ-700 ASCII font
COMMENT 8x8 dot bitmap font
COMMENT not resize. original size.
FONT -Mz700bdfascii-Fixed-Medium-R-Normal--36-360-75-75-M-360-ISO10646-1
SIZE 36 75 75
FONTBOUNDINGBOX 36 36 0 0
STARTPROPERTIES 19
FONT_ASCENT 36
FONT_DESCENT 0
DEFAULT_CHAR 32
COPYRIGHT "Unknown"
FONTNAME_REGISTRY ""
FOUNDRY "Mz700bdfascii"
FAMILY_NAME "Fixed"
WEIGHT_NAME "Medium"
SLANT "R"
SETWIDTH_NAME "Normal"
ADD_STYLE_NAME ""
PIXEL_SIZE 36
POINT_SIZE 360
RESOLUTION_X 75
RESOLUTION_Y 75
SPACING "M"
AVERAGE_WIDTH 360
CHARSET_REGISTRY "ISO10646"
CHARSET_ENCODING "1"
ENDPROPERTIES
CHARS 344
STARTCHAR 20
ENCODING 32
SWIDTH 4320 0
DWIDTH 36 0
BBX 36 36 0 0
BITMAP
0000000000
0000000000
0000000000
0000000000
0000000000
0000000000
0000000000
0000000000
0000000000
0000000000
0000000000
0000000000
0000000000
0000000000
0000000000
0000000000
0000000000
0000000000
0000000000
0000000000
0000000000
0000000000
0000000000
0000000000
0000000000
0000000000
0000000000
0000000000
0000000000
0000000000
0000000000
0000000000
0000000000
0000000000
0000000000
0000000000
ENDCHAR
STARTCHAR 21
ENCODING 33
SWIDTH 4320 0
DWIDTH 36 0
BBX 36 36 0 0
BITMAP
00003E0000
00003E0000
00003E0000
00003E0000
00003E0000
00003E0000
00003E0000
00003E0000
00003E0000
00003E0000
00003E0000
00003E0000
00003E0000
00003E0000
00003E0000
00003E0000
00003E0000
00003E0000
0000000000
0000000000
0000000000
0000000000
0000000000
0000000000
0000000000
0000000000
0000000000
00003E0000
00003E0000
00003E0000
00003E0000
00003E0000
0000000000
0000000000
0000000000
0000000000
ENDCHAR
STARTCHAR 22
ENCODING 34
SWIDTH 4320 0
DWIDTH 36 0
BBX 36 36 0 0
BITMAP
007C03E000
007C03E000
007C03E000
007C03E000
007C03E000
007C03E000
007C03E000
007C03E000
007C03E000
007C03E000
007C03E000
007C03E000
007C03E000
007C03E000
0000000000
0000000000
0000000000
0000000000
0000000000
0000000000
0000000000
0000000000
0000000000
0000000000
0000000000
0000000000
0000000000
0000000000
0000000000
0000000000
0000000000
0000000000
0000000000
0000000000
0000000000
0000000000
ENDCHAR
STARTCHAR 23
ENCODING 35
SWIDTH 4320 0
DWIDTH 36 0
BBX 36 36 0 0
BITMAP
007C03E000
007C03E000
007C03E000
007C03E000
007C03E000
007C03E000
007C03E000
007C03E000
007C03E000
0FFFFFFF00
0FFFFFFF00
0FFFFFFF00
0FFFFFFF00
0FFFFFFF00
007C03E000
007C03E000
007C03E000
007C03E000
0FFFFFFF00
0FFFFFFF00
0FFFFFFF00
0FFFFFFF00
0FFFFFFF00
007C03E000
007C03E000
007C03E000
007C03E000
007C03E000
007C03E000
007C03E000
007C03E000
007C03E000
0000000000
0000000000
0000000000
0000000000
ENDCHAR
STARTCHAR 24
ENCODING 36
SWIDTH 4320 0
DWIDTH 36 0
BBX 36 36 0 0
BITMAP
00003E0000
00003E0000
00003E0000
00003E0000
0007FFFF00
0007FFFF00
0007FFFF00
0007FFFF00
0007FFFF00
007C3E0000
007C3E0000
007C3E0000
007C3E0000
007FFFE000
0007FFE000
0007FFE000
0007FFE000
0007FFE000
00003E1F00
00003E1F00
00003E1F00
00003E1F00
007FFFFF00
007FFFE000
007FFFE000
007FFFE000
007FFFE000
00003E0000
00003E0000
00003E0000
00003E0000
00003E0000
0000000000
0000000000
0000000000
0000000000
ENDCHAR
STARTCHAR 25
ENCODING 37
SWIDTH 4320 0
DWIDTH 36 0
BBX 36 36 0 0
BITMAP
0000000000
0000000000
0000000000
0000000000
0FFC001F00
0FFC001F00
0FFC001F00
0FFC001F00
0FFC001F00
0FFC03E000
0FFC03E000
0FFC03E000
0FFC03E000
0FFC3FE000
00003E0000
00003E0000
00003E0000
00003E0000
0007C00000
0007C00000
0007C00000
0007C00000
007FC3FF00
007C03FF00
007C03FF00
007C03FF00
007C03FF00
0F8003FF00
0F8003FF00
0F8003FF00
0F8003FF00
0F8003FF00
0000000000
0000000000
0000000000
0000000000
ENDCHAR
STARTCHAR 26
ENCODING 38
SWIDTH 4320 0
DWIDTH 36 0
BBX 36 36 0 0
BITMAP
007FC00000
007FC00000
007FC00000
007FC00000
0FFFFE0000
0F803E0000
0F803E0000
0F803E0000
0F803E0000
0F803E0000
0F803E0000
0F803E0000
0F803E0000
0FFFFE0000
007FC00000
007FC00000
007FC00000
007FC00000
0F803E1F00
0F803E1F00
0F803E1F00
0F803E1F00
0F803FFF00
0F8003E000
0F8003E000
0F8003E000
0F8003E000
007FFE1F00
007FFE1F00
007FFE1F00
007FFE1F00
007FFE1F00
0000000000
0000000000
0000000000
0000000000
ENDCHAR
STARTCHAR 27
ENCODING 39
SWIDTH 4320 0
DWIDTH 36 0
BBX 36 36 0 0
BITMAP
000003E000
000003E000
000003E000
000003E000
00003FE000
00003E0000
00003E0000
00003E0000
00003E0000
0007C00000
0007C00000
0007C00000
0007C00000
0007C00000
0000000000
0000000000
0000000000
0000000000
0000000000
0000000000
0000000000
0000000000
0000000000
0000000000
0000000000
0000000000
0000000000
0000000000
0000000000
0000000000
0000000000
0000000000
0000000000
0000000000
0000000000
0000000000
ENDCHAR
STARTCHAR 28
ENCODING 40
SWIDTH 4320 0
DWIDTH 36 0
BBX 36 36 0 0
BITMAP
000003E000
000003E000
000003E000
000003E000
00003FE000
00003E0000
00003E0000
00003E0000
00003E0000
0007C00000
0007C00000
0007C00000
0007C00000
0007C00000
0007C00000
0007C00000
0007C00000
0007C00000
0007C00000
0007C00000
0007C00000
0007C00000
0007FE0000
00003E0000
00003E0000
00003E0000
00003E0000
000003E000
000003E000
000003E000
000003E000
000003E000
0000000000
0000000000
0000000000
0000000000
ENDCHAR
STARTCHAR 29
ENCODING 41
SWIDTH 4320 0
DWIDTH 36 0
BBX 36 36 0 0
BITMAP
007C000000
007C000000
007C000000
007C000000
007FC00000
0007C00000
0007C00000
0007C00000
0007C00000
00003E0000
00003E0000
00003E0000
00003E0000
00003E0000
00003E0000
00003E0000
00003E0000
00003E0000
00003E0000
00003E0000
00003E0000
00003E0000
0007FE0000
0007C00000
0007C00000
0007C00000
0007C00000
007C000000
007C000000
007C000000
007C000000
007C000000
0000000000
0000000000
0000000000
0000000000
ENDCHAR
STARTCHAR 2a
ENCODING 42
SWIDTH 4320 0
DWIDTH 36 0
BBX 36 36 0 0
BITMAP
00003E0000
00003E0000
00003E0000
00003E0000
007C3E1F00
007C3E1F00
007C3E1F00
007C3E1F00
007C3E1F00
0007FFE000
0007FFE000
0007FFE000
0007FFE000
007FFFFF00
007FFFFF00
007FFFFF00
007FFFFF00
007FFFFF00
0007FFE000
0007FFE000
0007FFE000
0007FFE000
007FFFFF00
007C3E1F00
007C3E1F00
007C3E1F00
007C3E1F00
00003E0000
00003E0000
00003E0000
00003E0000
00003E0000
0000000000
0000000000
0000000000
0000000000
ENDCHAR
STARTCHAR 2b
ENCODING 43
SWIDTH 4320 0
DWIDTH 36 0
BBX 36 36 0 0
BITMAP
0000000000
0000000000
0000000000
0000000000
00003E0000
00003E0000
00003E0000
00003E0000
00003E0000
00003E0000
00003E0000
00003E0000
00003E0000
007FFFFF00
007FFFFF00
007FFFFF00
007FFFFF00
007FFFFF00
00003E0000
00003E0000
00003E0000
00003E0000
00003E0000
00003E0000
00003E0000
00003E0000
00003E0000
0000000000
0000000000
0000000000
0000000000
0000000000
0000000000
0000000000
0000000000
0000000000
ENDCHAR
STARTCHAR 2c
ENCODING 44
SWIDTH 4320 0
DWIDTH 36 0
BBX 36 36 0 0
BITMAP
0000000000
0000000000
0000000000
0000000000
0000000000
0000000000
0000000000
0000000000
0000000000
0000000000
0000000000
0000000000
0000000000
0000000000
0000000000
0000000000
0000000000
0000000000
0000000000
0000000000
0000000000
0000000000
00003E0000
00003E0000
00003E0000
00003E0000
00003E0000
00003E0000
00003E0000
00003E0000
00003E0000
0007FE0000
0007C00000
0007C00000
0007C00000
0007C00000
ENDCHAR
STARTCHAR 2d
ENCODING 45
SWIDTH 4320 0
DWIDTH 36 0
BBX 36 36 0 0
BITMAP
0000000000
0000000000
0000000000
0000000000
0000000000
0000000000
0000000000
0000000000
0000000000
0000000000
0000000000
0000000000
0000000000
0FFFFFFF00
0FFFFFFF00
0FFFFFFF00
0FFFFFFF00
0FFFFFFF00
0000000000
0000000000
0000000000
0000000000
0000000000
0000000000
0000000000
0000000000
0000000000
0000000000
0000000000
0000000000
0000000000
0000000000
0000000000
0000000000
0000000000
0000000000
ENDCHAR
STARTCHAR 2e
ENCODING 46
SWIDTH 4320 0
DWIDTH 36 0
BBX 36 36 0 0
BITMAP
0000000000
0000000000
0000000000
0000000000
0000000000
0000000000
0000000000
0000000000
0000000000
0000000000
0000000000
0000000000
0000000000
0000000000
0000000000
0000000000
0000000000
0000000000
0000000000
0000000000
0000000000
0000000000
0007FE0000
0007FE0000
0007FE0000
0007FE0000
0007FE0000
0007FE0000
0007FE0000
0007FE0000
0007FE0000
0007FE0000
0000000000
0000000000
0000000000
0000000000
ENDCHAR
STARTCHAR 2f
ENCODING 47
SWIDTH 4320 0
DWIDTH 36 0
BBX 36 36 0 0
BITMAP
0000000000
0000000000
0000000000
0000000000
0000001F00
0000001F00
0000001F00
0000001F00
0000001F00
000003E000
000003E000
000003E000
000003E000
00003FE000
00003E0000
00003E0000
00003E0000
00003E0000
0007C00000
0007C00000
0007C00000
0007C00000
007FC00000
007C000000
007C000000
007C000000
007C000000
0F80000000
0F80000000
0F80000000
0F80000000
0F80000000
0000000000
0000000000
0000000000
0000000000
ENDCHAR
STARTCHAR 30
ENCODING 48
SWIDTH 4320 0
DWIDTH 36 0
BBX 36 36 0 0
BITMAP
007FFFE000
007FFFE000
007FFFE000
007FFFE000
0FFFFFFF00
0F80001F00
0F80001F00
0F80001F00
0F80001F00
0F8003FF00
0F8003FF00
0F8003FF00
0F8003FF00
0F87FFFF00
0F87FE1F00
0F87FE1F00
0F87FE1F00
0F87FE1F00
0FFC001F00
0FFC001F00
0FFC001F00
0FFC001F00
0FFC001F00
0F80001F00
0F80001F00
0F80001F00
0F80001F00
007FFFE000
007FFFE000
007FFFE000
007FFFE000
007FFFE000
0000000000
0000000000
0000000000
0000000000
ENDCHAR
STARTCHAR 31
ENCODING 49
SWIDTH 4320 0
DWIDTH 36 0
BBX 36 36 0 0
BITMAP
00003E0000
00003E0000
00003E0000
00003E0000
0007FE0000
0007FE0000
0007FE0000
0007FE0000
0007FE0000
007C3E0000
007C3E0000
007C3E0000
007C3E0000
007C3E0000
00003E0000
00003E0000
00003E0000
00003E0000
00003E0000
00003E0000
00003E0000
00003E0000
00003E0000
00003E0000
00003E0000
00003E0000
00003E0000
007FFFFF00
007FFFFF00
007FFFFF00
007FFFFF00
007FFFFF00
0000000000
0000000000
0000000000
0000000000
ENDCHAR
STARTCHAR 32
ENCODING 50
SWIDTH 4320 0
DWIDTH 36 0
BBX 36 36 0 0
BITMAP
007FFFE000
007FFFE000
007FFFE000
007FFFE000
0FFFFFFF00
0F80001F00
0F80001F00
0F80001F00
0F80001F00
0000001F00
0000001F00
0000001F00
0000001F00
00003FFF00
00003FE000
00003FE000
00003FE000
00003FE000
007FC00000
007FC00000
007FC00000
007FC00000
0FFFC00000
0F80000000
0F80000000
0F80000000
0F80000000
0FFFFFFF00
0FFFFFFF00
0FFFFFFF00
0FFFFFFF00
0FFFFFFF00
0000000000
0000000000
0000000000
0000000000
ENDCHAR
STARTCHAR 33
ENCODING 51
SWIDTH 4320 0
DWIDTH 36 0
BBX 36 36 0 0
BITMAP
007FFFE000
007FFFE000
007FFFE000
007FFFE000
0FFFFFFF00
0F80001F00
0F80001F00
0F80001F00
0F80001F00
0000001F00
0000001F00
0000001F00
0000001F00
007FFFFF00
007FFFE000
007FFFE000
007FFFE000
007FFFE000
0000001F00
0000001F00
0000001F00
0000001F00
0F80001F00
0F80001F00
0F80001F00
0F80001F00
0F80001F00
007FFFE000
007FFFE000
007FFFE000
007FFFE000
007FFFE000
0000000000
0000000000
0000000000
0000000000
ENDCHAR
STARTCHAR 34
ENCODING 52
SWIDTH 4320 0
DWIDTH 36 0
BBX 36 36 0 0
BITMAP
000003E000
000003E000
000003E000
000003E000
00003FE000
00003FE000
00003FE000
00003FE000
00003FE000
0007C3E000
0007C3E000
0007C3E000
0007C3E000
007FC3E000
007C03E000
007C03E000
007C03E000
007C03E000
0FFFFFFF00
0FFFFFFF00
0FFFFFFF00
0FFFFFFF00
0FFFFFFF00
000003E000
000003E000
000003E000
000003E000
000003E000
000003E000
000003E000
000003E000
000003E000
0000000000
0000000000
0000000000
0000000000
ENDCHAR
STARTCHAR 35
ENCODING 53
SWIDTH 4320 0
DWIDTH 36 0
BBX 36 36 0 0
BITMAP
0FFFFFFF00
0FFFFFFF00
0FFFFFFF00
0FFFFFFF00
0FFFFFFF00
0F80000000
0F80000000
0F80000000
0F80000000
0FFFFE0000
0FFFFE0000
0FFFFE0000
0FFFFE0000
0FFFFFE000
000003E000
000003E000
000003E000
000003E000
0000001F00
0000001F00
0000001F00
0000001F00
0F8003FF00
0F8003E000
0F8003E000
0F8003E000
0F8003E000
007FFE0000
007FFE0000
007FFE0000
007FFE0000
007FFE0000
0000000000
0000000000
0000000000
0000000000
ENDCHAR
STARTCHAR 36
ENCODING 54
SWIDTH 4320 0
DWIDTH 36 0
BBX 36 36 0 0
BITMAP
0007FFE000
0007FFE000
0007FFE000
0007FFE000
007FFFE000
007C000000
007C000000
007C000000
007C000000
0F80000000
0F80000000
0F80000000
0F80000000
0FFFFFE000
0FFFFFE000
0FFFFFE000
0FFFFFE000
0FFFFFE000
0F80001F00
0F80001F00
0F80001F00
0F80001F00
0F80001F00
0F80001F00
0F80001F00
0F80001F00
0F80001F00
007FFFE000
007FFFE000
007FFFE000
007FFFE000
007FFFE000
0000000000
0000000000
0000000000
0000000000
ENDCHAR
STARTCHAR 37
ENCODING 55
SWIDTH 4320 0
DWIDTH 36 0
BBX 36 36 0 0
BITMAP
0FFFFFFF00
0FFFFFFF00
0FFFFFFF00
0FFFFFFF00
0FFFFFFF00
0F80001F00
0F80001F00
0F80001F00
0F80001F00
000003E000
000003E000
000003E000
000003E000
00003FE000
00003E0000
00003E0000
00003E0000
00003E0000
0007C00000
0007C00000
0007C00000
0007C00000
0007C00000
0007C00000
0007C00000
0007C00000
0007C00000
0007C00000
0007C00000
0007C00000
0007C00000
0007C00000
0000000000
0000000000
0000000000
0000000000
ENDCHAR
STARTCHAR 38
ENCODING 56
SWIDTH 4320 0
DWIDTH 36 0
BBX 36 36 0 0
BITMAP
007FFFE000
007FFFE000
007FFFE000
007FFFE000
0FFFFFFF00
0F80001F00
0F80001F00
0F80001F00
0F80001F00
0F80001F00
0F80001F00
0F80001F00
0F80001F00
0FFFFFFF00
007FFFE000
007FFFE000
007FFFE000
007FFFE000
0F80001F00
0F80001F00
0F80001F00
0F80001F00
0F80001F00
0F80001F00
0F80001F00
0F80001F00
0F80001F00
007FFFE000
007FFFE000
007FFFE000
007FFFE000
007FFFE000
0000000000
0000000000
0000000000
0000000000
ENDCHAR
STARTCHAR 39
ENCODING 57
SWIDTH 4320 0
DWIDTH 36 0
BBX 36 36 0 0
BITMAP
007FFFE000
007FFFE000
007FFFE000
007FFFE000
0FFFFFFF00
0F80001F00
0F80001F00
0F80001F00
0F80001F00
0F80001F00
0F80001F00
0F80001F00
0F80001F00
0FFFFFFF00
007FFFFF00
007FFFFF00
007FFFFF00
007FFFFF00
0000001F00
0000001F00
0000001F00
0000001F00
000003FF00
000003E000
000003E000
000003E000
000003E000
007FFE0000
007FFE0000
007FFE0000
007FFE0000
007FFE0000
0000000000
0000000000
0000000000
0000000000
ENDCHAR
STARTCHAR 3a
ENCODING 58
SWIDTH 4320 0
DWIDTH 36 0
BBX 36 36 0 0
BITMAP
0000000000
0000000000
0000000000
0000000000
0000000000
0000000000
0000000000
0000000000
0000000000
00003E0000
00003E0000
00003E0000
00003E0000
00003E0000
0000000000
0000000000
0000000000
0000000000
0000000000
0000000000
0000000000
0000000000
00003E0000
00003E0000
00003E0000
00003E0000
00003E0000
0000000000
0000000000
0000000000
0000000000
0000000000
0000000000
0000000000
0000000000
0000000000
ENDCHAR
STARTCHAR 3b
ENCODING 59
SWIDTH 4320 0
DWIDTH 36 0
BBX 36 36 0 0
BITMAP
0000000000
0000000000
0000000000
0000000000
0000000000
0000000000
0000000000
0000000000
0000000000
00003E0000
00003E0000
00003E0000
00003E0000
00003E0000
0000000000
0000000000
0000000000
0000000000
0000000000
0000000000
0000000000
0000000000
00003E0000
00003E0000
00003E0000
00003E0000
00003E0000
00003E0000
00003E0000
00003E0000
00003E0000
0007FE0000
0007C00000
0007C00000
0007C00000
0007C00000
ENDCHAR
STARTCHAR 3c
ENCODING 60
SWIDTH 4320 0
DWIDTH 36 0
BBX 36 36 0 0
BITMAP
00003FFF00
00003FFF00
00003FFF00
00003FFF00
0007FFFF00
0007FE0000
0007FE0000
0007FE0000
0007FE0000
007FC00000
007FC00000
007FC00000
007FC00000
0FFFC00000
0FFC000000
0FFC000000
0FFC000000
0FFC000000
007FC00000
007FC00000
007FC00000
007FC00000
007FFE0000
0007FE0000
0007FE0000
0007FE0000
0007FE0000
00003FFF00
00003FFF00
00003FFF00
00003FFF00
00003FFF00
0000000000
0000000000
0000000000
0000000000
ENDCHAR
STARTCHAR 3d
ENCODING 61
SWIDTH 4320 0
DWIDTH 36 0
BBX 36 36 0 0
BITMAP
0000000000
0000000000
0000000000
0000000000
0000000000
0000000000
0000000000
0000000000
0000000000
0FFFFFFF00
0FFFFFFF00
0FFFFFFF00
0FFFFFFF00
0FFFFFFF00
0000000000
0000000000
0000000000
0000000000
0FFFFFFF00
0FFFFFFF00
0FFFFFFF00
0FFFFFFF00
0FFFFFFF00
0000000000
0000000000
0000000000
0000000000
0000000000
0000000000
0000000000
0000000000
0000000000
0000000000
0000000000
0000000000
0000000000
ENDCHAR
STARTCHAR 3e
ENCODING 62
SWIDTH 4320 0
DWIDTH 36 0
BBX 36 36 0 0
BITMAP
0FFFC00000
0FFFC00000
0FFFC00000
0FFFC00000
0FFFFE0000
0007FE0000
0007FE0000
0007FE0000
0007FE0000
00003FE000
00003FE000
00003FE000
00003FE000
00003FFF00
000003FF00
000003FF00
000003FF00
000003FF00
00003FE000
00003FE000
00003FE000
00003FE000
0007FFE000
0007FE0000
0007FE0000
0007FE0000
0007FE0000
0FFFC00000
0FFFC00000
0FFFC00000
0FFFC00000
0FFFC00000
0000000000
0000000000
0000000000
0000000000
ENDCHAR
STARTCHAR 3f
ENCODING 63
SWIDTH 4320 0
DWIDTH 36 0
BBX 36 36 0 0
BITMAP
007FFFE000
007FFFE000
007FFFE000
007FFFE000
0FFFFFFF00
0F80001F00
0F80001F00
0F80001F00
0F80001F00
0000001F00
0000001F00
0000001F00
0000001F00
00003FFF00
00003FE000
00003FE000
00003FE000
00003FE000
0007C00000
0007C00000
0007C00000
0007C00000
0007C00000
0000000000
0000000000
0000000000
0000000000
0007C00000
0007C00000
0007C00000
0007C00000
0007C00000
0000000000
0000000000
0000000000
0000000000
ENDCHAR
STARTCHAR 40
ENCODING 64
SWIDTH 4320 0
DWIDTH 36 0
BBX 36 36 0 0
BITMAP
0007FFE000
0007FFE000
0007FFE000
0007FFE000
007FFFFF00
007C001F00
007C001F00
007C001F00
007C001F00
0F803E1F00
0F803E1F00
0F803E1F00
0F803E1F00
0F87FFFF00
0F87C3FF00
0F87C3FF00
0F87C3FF00
0F87C3FF00
0F803FE000
0F803FE000
0F803FE000
0F803FE000
0FFC3FE000
007C000000
007C000000
007C000000
007C000000
0007FFFF00
0007FFFF00
0007FFFF00
0007FFFF00
0007FFFF00
0000000000
0000000000
0000000000
0000000000
ENDCHAR
STARTCHAR 41
ENCODING 65
SWIDTH 4320 0
DWIDTH 36 0
BBX 36 36 0 0
BITMAP
0007FE0000
0007FE0000
0007FE0000
0007FE0000
007FFFE000
007C03E000
007C03E000
007C03E000
007C03E000
0F80001F00
0F80001F00
0F80001F00
0F80001F00
0FFFFFFF00
0FFFFFFF00
0FFFFFFF00
0FFFFFFF00
0FFFFFFF00
0F80001F00
0F80001F00
0F80001F00
0F80001F00
0F80001F00
0F80001F00
0F80001F00
0F80001F00
0F80001F00
0F80001F00
0F80001F00
0F80001F00
0F80001F00
0F80001F00
0000000000
0000000000
0000000000
0000000000
ENDCHAR
STARTCHAR 42
ENCODING 66
SWIDTH 4320 0
DWIDTH 36 0
BBX 36 36 0 0
BITMAP
0FFFFFE000
0FFFFFE000
0FFFFFE000
0FFFFFE000
0FFFFFFF00
007C001F00
007C001F00
007C001F00
007C001F00
007C001F00
007C001F00
007C001F00
007C001F00
007FFFFF00
007FFFE000
007FFFE000
007FFFE000
007FFFE000
007C001F00
007C001F00
007C001F00
007C001F00
007C001F00
007C001F00
007C001F00
007C001F00
007C001F00
0FFFFFE000
0FFFFFE000
0FFFFFE000
0FFFFFE000
0FFFFFE000
0000000000
0000000000
0000000000
0000000000
ENDCHAR
STARTCHAR 43
ENCODING 67
SWIDTH 4320 0
DWIDTH 36 0
BBX 36 36 0 0
BITMAP
0007FFE000
0007FFE000
0007FFE000
0007FFE000
007FFFFF00
007C001F00
007C001F00
007C001F00
007C001F00
0F80000000
0F80000000
0F80000000
0F80000000
0F80000000
0F80000000
0F80000000
0F80000000
0F80000000
0F80000000
0F80000000
0F80000000
0F80000000
0FFC001F00
007C001F00
007C001F00
007C001F00
007C001F00
0007FFE000
0007FFE000
0007FFE000
0007FFE000
0007FFE000
0000000000
0000000000
0000000000
0000000000
ENDCHAR
STARTCHAR 44
ENCODING 68
SWIDTH 4320 0
DWIDTH 36 0
BBX 36 36 0 0
BITMAP
0FFFFE0000
0FFFFE0000
0FFFFE0000
0FFFFE0000
0FFFFFE000
007C03E000
007C03E000
007C03E000
007C03E000
007C001F00
007C001F00
007C001F00
007C001F00
007C001F00
007C001F00
007C001F00
007C001F00
007C001F00
007C001F00
007C001F00
007C001F00
007C001F00
007C03FF00
007C03E000
007C03E000
007C03E000
007C03E000
0FFFFE0000
0FFFFE0000
0FFFFE0000
0FFFFE0000
0FFFFE0000
0000000000
0000000000
0000000000
0000000000
ENDCHAR
STARTCHAR 45
ENCODING 69
SWIDTH 4320 0
DWIDTH 36 0
BBX 36 36 0 0
BITMAP
0FFFFFFF00
0FFFFFFF00
0FFFFFFF00
0FFFFFFF00
0FFFFFFF00
0F80000000
0F80000000
0F80000000
0F80000000
0F80000000
0F80000000
0F80000000
0F80000000
0FFFFE0000
0FFFFE0000
0FFFFE0000
0FFFFE0000
0FFFFE0000
0F80000000
0F80000000
0F80000000
0F80000000
0F80000000
0F80000000
0F80000000
0F80000000
0F80000000
0FFFFFFF00
0FFFFFFF00
0FFFFFFF00
0FFFFFFF00
0FFFFFFF00
0000000000
0000000000
0000000000
0000000000
ENDCHAR
STARTCHAR 46
ENCODING 70
SWIDTH 4320 0
DWIDTH 36 0
BBX 36 36 0 0
BITMAP
0FFFFFFF00
0FFFFFFF00
0FFFFFFF00
0FFFFFFF00
0FFFFFFF00
0F80000000
0F80000000
0F80000000
0F80000000
0F80000000
0F80000000
0F80000000
0F80000000
0FFFFE0000
0FFFFE0000
0FFFFE0000
0FFFFE0000
0FFFFE0000
0F80000000
0F80000000
0F80000000
0F80000000
0F80000000
0F80000000
0F80000000
0F80000000
0F80000000
0F80000000
0F80000000
0F80000000
0F80000000
0F80000000
0000000000
0000000000
0000000000
0000000000
ENDCHAR
STARTCHAR 47
ENCODING 71
SWIDTH 4320 0
DWIDTH 36 0
BBX 36 36 0 0
BITMAP
0007FFE000
0007FFE000
0007FFE000
0007FFE000
007FFFFF00
007C001F00
007C001F00
007C001F00
007C001F00
0F80000000
0F80000000
0F80000000
0F80000000
0F803FFF00
0F803FFF00
0F803FFF00
0F803FFF00
0F803FFF00
0F80001F00
0F80001F00
0F80001F00
0F80001F00
0FFC001F00
007C001F00
007C001F00
007C001F00
007C001F00
0007FFE000
0007FFE000
0007FFE000
0007FFE000
0007FFE000
0000000000
0000000000
0000000000
0000000000
ENDCHAR
STARTCHAR 48
ENCODING 72
SWIDTH 4320 0
DWIDTH 36 0
BBX 36 36 0 0
BITMAP
0F80001F00
0F80001F00
0F80001F00
0F80001F00
0F80001F00
0F80001F00
0F80001F00
0F80001F00
0F80001F00
0F80001F00
0F80001F00
0F80001F00
0F80001F00
0FFFFFFF00
0FFFFFFF00
0FFFFFFF00
0FFFFFFF00
0FFFFFFF00
0F80001F00
0F80001F00
0F80001F00
0F80001F00
0F80001F00
0F80001F00
0F80001F00
0F80001F00
0F80001F00
0F80001F00
0F80001F00
0F80001F00
0F80001F00
0F80001F00
0000000000
0000000000
0000000000
0000000000
ENDCHAR
STARTCHAR 49
ENCODING 73
SWIDTH 4320 0
DWIDTH 36 0
BBX 36 36 0 0
BITMAP
0007FFE000
0007FFE000
0007FFE000
0007FFE000
0007FFE000
00003E0000
00003E0000
00003E0000
00003E0000
00003E0000
00003E0000
00003E0000
00003E0000
00003E0000
00003E0000
00003E0000
00003E0000
00003E0000
00003E0000
00003E0000
00003E0000
00003E0000
00003E0000
00003E0000
00003E0000
00003E0000
00003E0000
0007FFE000
0007FFE000
0007FFE000
0007FFE000
0007FFE000
0000000000
0000000000
0000000000
0000000000
ENDCHAR
STARTCHAR 4a
ENCODING 74
SWIDTH 4320 0
DWIDTH 36 0
BBX 36 36 0 0
BITMAP
00003FFF00
00003FFF00
00003FFF00
00003FFF00
00003FFF00
000003E000
000003E000
000003E000
000003E000
000003E000
000003E000
000003E000
000003E000
000003E000
000003E000
000003E000
000003E000
000003E000
000003E000
000003E000
000003E000
000003E000
0F8003E000
0F8003E000
0F8003E000
0F8003E000
0F8003E000
007FFE0000
007FFE0000
007FFE0000
007FFE0000
007FFE0000
0000000000
0000000000
0000000000
0000000000
ENDCHAR
STARTCHAR 4b
ENCODING 75
SWIDTH 4320 0
DWIDTH 36 0
BBX 36 36 0 0
BITMAP
0F80001F00
0F80001F00
0F80001F00
0F80001F00
0F8003FF00
0F8003E000
0F8003E000
0F8003E000
0F8003E000
0F803E0000
0F803E0000
0F803E0000
0F803E0000
0FFFFE0000
0FFFC00000
0FFFC00000
0FFFC00000
0FFFC00000
0F803E0000
0F803E0000
0F803E0000
0F803E0000
0F803FE000
0F8003E000
0F8003E000
0F8003E000
0F8003E000
0F80001F00
0F80001F00
0F80001F00
0F80001F00
0F80001F00
0000000000
0000000000
0000000000
0000000000
ENDCHAR
STARTCHAR 4c
ENCODING 76
SWIDTH 4320 0
DWIDTH 36 0
BBX 36 36 0 0
BITMAP
0F80000000
0F80000000
0F80000000
0F80000000
0F80000000
0F80000000
0F80000000
0F80000000
0F80000000
0F80000000
0F80000000
0F80000000
0F80000000
0F80000000
0F80000000
0F80000000
0F80000000
0F80000000
0F80000000
0F80000000
0F80000000
0F80000000
0F80000000
0F80000000
0F80000000
0F80000000
0F80000000
0FFFFFFF00
0FFFFFFF00
0FFFFFFF00
0FFFFFFF00
0FFFFFFF00
0000000000
0000000000
0000000000
0000000000
ENDCHAR
STARTCHAR 4d
ENCODING 77
SWIDTH 4320 0
DWIDTH 36 0
BBX 36 36 0 0
BITMAP
0F80001F00
0F80001F00
0F80001F00
0F80001F00
0FFC03FF00
0FFC03FF00
0FFC03FF00
0FFC03FF00
0FFC03FF00
0F87FE1F00
0F87FE1F00
0F87FE1F00
0F87FE1F00
0F87FE1F00
0F87FE1F00
0F87FE1F00
0F87FE1F00
0F87FE1F00
0F80001F00
0F80001F00
0F80001F00
0F80001F00
0F80001F00
0F80001F00
0F80001F00
0F80001F00
0F80001F00
0F80001F00
0F80001F00
0F80001F00
0F80001F00
0F80001F00
0000000000
0000000000
0000000000
0000000000
ENDCHAR
STARTCHAR 4e
ENCODING 78
SWIDTH 4320 0
DWIDTH 36 0
BBX 36 36 0 0
BITMAP
0F80001F00
0F80001F00
0F80001F00
0F80001F00
0FFC001F00
0FFC001F00
0FFC001F00
0FFC001F00
0FFC001F00
0F87C01F00
0F87C01F00
0F87C01F00
0F87C01F00
0F87FE1F00
0F803E1F00
0F803E1F00
0F803E1F00
0F803E1F00
0F8003FF00
0F8003FF00
0F8003FF00
0F8003FF00
0F8003FF00
0F80001F00
0F80001F00
0F80001F00
0F80001F00
0F80001F00
0F80001F00
0F80001F00
0F80001F00
0F80001F00
0000000000
0000000000
0000000000
0000000000
ENDCHAR
STARTCHAR 4f
ENCODING 79
SWIDTH 4320 0
DWIDTH 36 0
BBX 36 36 0 0
BITMAP
0007FE0000
0007FE0000
0007FE0000
0007FE0000
007FFFE000
007C03E000
007C03E000
007C03E000
007C03E000
0F80001F00
0F80001F00
0F80001F00
0F80001F00
0F80001F00
0F80001F00
0F80001F00
0F80001F00
0F80001F00
0F80001F00
0F80001F00
0F80001F00
0F80001F00
0FFC03FF00
007C03E000
007C03E000
007C03E000
007C03E000
0007FE0000
0007FE0000
0007FE0000
0007FE0000
0007FE0000
0000000000
0000000000
0000000000
0000000000
ENDCHAR
STARTCHAR 50
ENCODING 80
SWIDTH 4320 0
DWIDTH 36 0
BBX 36 36 0 0
BITMAP
0FFFFFE000
0FFFFFE000
0FFFFFE000
0FFFFFE000
0FFFFFFF00
0F80001F00
0F80001F00
0F80001F00
0F80001F00
0F80001F00
0F80001F00
0F80001F00
0F80001F00
0FFFFFFF00
0FFFFFE000
0FFFFFE000
0FFFFFE000
0FFFFFE000
0F80000000
0F80000000
0F80000000
0F80000000
0F80000000
0F80000000
0F80000000
0F80000000
0F80000000
0F80000000
0F80000000
0F80000000
0F80000000
0F80000000
0000000000
0000000000
0000000000
0000000000
ENDCHAR
STARTCHAR 51
ENCODING 81
SWIDTH 4320 0
DWIDTH 36 0
BBX 36 36 0 0
BITMAP
0007FE0000
0007FE0000
0007FE0000
0007FE0000
007FFFE000
007C03E000
007C03E000
007C03E000
007C03E000
0F80001F00
0F80001F00
0F80001F00
0F80001F00
0F80001F00
0F80001F00
0F80001F00
0F80001F00
0F80001F00
0F803E1F00
0F803E1F00
0F803E1F00
0F803E1F00
0FFC3FFF00
007C03E000
007C03E000
007C03E000
007C03E000
0007FE1F00
0007FE1F00
0007FE1F00
0007FE1F00
0007FE1F00
0000000000
0000000000
0000000000
0000000000
ENDCHAR
STARTCHAR 52
ENCODING 82
SWIDTH 4320 0
DWIDTH 36 0
BBX 36 36 0 0
BITMAP
0FFFFFE000
0FFFFFE000
0FFFFFE000
0FFFFFE000
0FFFFFFF00
0F80001F00
0F80001F00
0F80001F00
0F80001F00
0F80001F00
0F80001F00
0F80001F00
0F80001F00
0FFFFFFF00
0FFFFFE000
0FFFFFE000
0FFFFFE000
0FFFFFE000
0F803E0000
0F803E0000
0F803E0000
0F803E0000
0F803FE000
0F8003E000
0F8003E000
0F8003E000
0F8003E000
0F80001F00
0F80001F00
0F80001F00
0F80001F00
0F80001F00
0000000000
0000000000
0000000000
0000000000
ENDCHAR
STARTCHAR 53
ENCODING 83
SWIDTH 4320 0
DWIDTH 36 0
BBX 36 36 0 0
BITMAP
007FFFE000
007FFFE000
007FFFE000
007FFFE000
0FFFFFFF00
0F80001F00
0F80001F00
0F80001F00
0F80001F00
0F80000000
0F80000000
0F80000000
0F80000000
0FFFFFE000
007FFFE000
007FFFE000
007FFFE000
007FFFE000
0000001F00
0000001F00
0000001F00
0000001F00
0F80001F00
0F80001F00
0F80001F00
0F80001F00
0F80001F00
007FFFE000
007FFFE000
007FFFE000
007FFFE000
007FFFE000
0000000000
0000000000
0000000000
0000000000
ENDCHAR
STARTCHAR 54
ENCODING 84
SWIDTH 4320 0
DWIDTH 36 0
BBX 36 36 0 0
BITMAP
007FFFFF00
007FFFFF00
007FFFFF00
007FFFFF00
007FFFFF00
00003E0000
00003E0000
00003E0000
00003E0000
00003E0000
00003E0000
00003E0000
00003E0000
00003E0000
00003E0000
00003E0000
00003E0000
00003E0000
00003E0000
00003E0000
00003E0000
00003E0000
00003E0000
00003E0000
00003E0000
00003E0000
00003E0000
00003E0000
00003E0000
00003E0000
00003E0000
00003E0000
0000000000
0000000000
0000000000
0000000000
ENDCHAR
STARTCHAR 55
ENCODING 85
SWIDTH 4320 0
DWIDTH 36 0
BBX 36 36 0 0
BITMAP
0F80001F00
0F80001F00
0F80001F00
0F80001F00
0F80001F00
0F80001F00
0F80001F00
0F80001F00
0F80001F00
0F80001F00
0F80001F00
0F80001F00
0F80001F00
0F80001F00
0F80001F00
0F80001F00
0F80001F00
0F80001F00
0F80001F00
0F80001F00
0F80001F00
0F80001F00
0F80001F00
0F80001F00
0F80001F00
0F80001F00
0F80001F00
007FFFE000
007FFFE000
007FFFE000
007FFFE000
007FFFE000
0000000000
0000000000
0000000000
0000000000
ENDCHAR
STARTCHAR 56
ENCODING 86
SWIDTH 4320 0
DWIDTH 36 0
BBX 36 36 0 0
BITMAP
0F80001F00
0F80001F00
0F80001F00
0F80001F00
0F80001F00
0F80001F00
0F80001F00
0F80001F00
0F80001F00
0F80001F00
0F80001F00
0F80001F00
0F80001F00
0FFC03FF00
007C03E000
007C03E000
007C03E000
007C03E000
007C03E000
007C03E000
007C03E000
007C03E000
007FFFE000
0007FE0000
0007FE0000
0007FE0000
0007FE0000
0007FE0000
0007FE0000
0007FE0000
0007FE0000
0007FE0000
0000000000
0000000000
0000000000
0000000000
ENDCHAR
STARTCHAR 57
ENCODING 87
SWIDTH 4320 0
DWIDTH 36 0
BBX 36 36 0 0
BITMAP
0F80001F00
0F80001F00
0F80001F00
0F80001F00
0F80001F00
0F80001F00
0F80001F00
0F80001F00
0F80001F00
0F80001F00
0F80001F00
0F80001F00
0F80001F00
0F87FE1F00
0F87FE1F00
0F87FE1F00
0F87FE1F00
0F87FE1F00
0F87FE1F00
0F87FE1F00
0F87FE1F00
0F87FE1F00
0FFFFFFF00
0FFC03FF00
0FFC03FF00
0FFC03FF00
0FFC03FF00
0F80001F00
0F80001F00
0F80001F00
0F80001F00
0F80001F00
0000000000
0000000000
0000000000
0000000000
ENDCHAR
STARTCHAR 58
ENCODING 88
SWIDTH 4320 0
DWIDTH 36 0
BBX 36 36 0 0
BITMAP
0F80001F00
0F80001F00
0F80001F00
0F80001F00
0F80001F00
0F80001F00
0F80001F00
0F80001F00
0F80001F00
007C03E000
007C03E000
007C03E000
007C03E000
007FFFE000
0007FE0000
0007FE0000
0007FE0000
0007FE0000
007C03E000
007C03E000
007C03E000
007C03E000
0FFC03FF00
0F80001F00
0F80001F00
0F80001F00
0F80001F00
0F80001F00
0F80001F00
0F80001F00
0F80001F00
0F80001F00
0000000000
0000000000
0000000000
0000000000
ENDCHAR
STARTCHAR 59
ENCODING 89
SWIDTH 4320 0
DWIDTH 36 0
BBX 36 36 0 0
BITMAP
007C001F00
007C001F00
007C001F00
007C001F00
007C001F00
007C001F00
007C001F00
007C001F00
007C001F00
007C001F00
007C001F00
007C001F00
007C001F00
007FFFFF00
0007FFE000
0007FFE000
0007FFE000
0007FFE000
00003E0000
00003E0000
00003E0000
00003E0000
00003E0000
00003E0000
00003E0000
00003E0000
00003E0000
00003E0000
00003E0000
00003E0000
00003E0000
00003E0000
0000000000
0000000000
0000000000
0000000000
ENDCHAR
STARTCHAR 5a
ENCODING 90
SWIDTH 4320 0
DWIDTH 36 0
BBX 36 36 0 0
BITMAP
0FFFFFFF00
0FFFFFFF00
0FFFFFFF00
0FFFFFFF00
0FFFFFFF00
0000001F00
0000001F00
0000001F00
0000001F00
000003E000
000003E000
000003E000
000003E000
0007FFE000
0007FE0000
0007FE0000
0007FE0000
0007FE0000
007C000000
007C000000
007C000000
007C000000
0FFC000000
0F80000000
0F80000000
0F80000000
0F80000000
0FFFFFFF00
0FFFFFFF00
0FFFFFFF00
0FFFFFFF00
0FFFFFFF00
0000000000
0000000000
0000000000
0000000000
ENDCHAR
STARTCHAR 5b
ENCODING 91
SWIDTH 4320 0
DWIDTH 36 0
BBX 36 36 0 0
BITMAP
007FFFE000
007FFFE000
007FFFE000
007FFFE000
007FFFE000
007C000000
007C000000
007C000000
007C000000
007C000000
007C000000
007C000000
007C000000
007C000000
007C000000
007C000000
007C000000
007C000000
007C000000
007C000000
007C000000
007C000000
007C000000
007C000000
007C000000
007C000000
007C000000
007FFFE000
007FFFE000
007FFFE000
007FFFE000
007FFFE000
0000000000
0000000000
0000000000
0000000000
ENDCHAR
STARTCHAR 5c
ENCODING 92
SWIDTH 4320 0
DWIDTH 36 0
BBX 36 36 0 0
BITMAP
0000000000
0000000000
0000000000
0000000000
0F80000000
0F80000000
0F80000000
0F80000000
0F80000000
007C000000
007C000000
007C000000
007C000000
007FC00000
0007C00000
0007C00000
0007C00000
0007C00000
00003E0000
00003E0000
00003E0000
00003E0000
00003FE000
000003E000
000003E000
000003E000
000003E000
0000001F00
0000001F00
0000001F00
0000001F00
0000001F00
0000000000
0000000000
0000000000
0000000000
ENDCHAR
STARTCHAR 5d
ENCODING 93
SWIDTH 4320 0
DWIDTH 36 0
BBX 36 36 0 0
BITMAP
007FFFE000
007FFFE000
007FFFE000
007FFFE000
007FFFE000
000003E000
000003E000
000003E000
000003E000
000003E000
000003E000
000003E000
000003E000
000003E000
000003E000
000003E000
000003E000
000003E000
000003E000
000003E000
000003E000
000003E000
000003E000
000003E000
000003E000
000003E000
000003E000
007FFFE000
007FFFE000
007FFFE000
007FFFE000
007FFFE000
0000000000
0000000000
0000000000
0000000000
ENDCHAR
STARTCHAR 5f
ENCODING 95
SWIDTH 4320 0
DWIDTH 36 0
BBX 36 36 0 0
BITMAP
0000000000
0000000000
0000000000
0000000000
0000000000
0000000000
0000000000
0000000000
0000000000
0000000000
0000000000
0000000000
0000000000
0000000000
0000000000
0000000000
0000000000
0000000000
0000000000
0000000000
0000000000
0000000000
0000000000
0000000000
0000000000
0000000000
0000000000
0000000000
0000000000
0000000000
0000000000
FFFFFFFFF0
FFFFFFFFF0
FFFFFFFFF0
FFFFFFFFF0
FFFFFFFFF0
ENDCHAR
STARTCHAR 61
ENCODING 97
SWIDTH 4320 0
DWIDTH 36 0
BBX 36 36 0 0
BITMAP
0000000000
0000000000
0000000000
0000000000
0000000000
0000000000
0000000000
0000000000
0000000000
007FFE0000
007FFE0000
007FFE0000
007FFE0000
007FFFE000
000003E000
000003E000
000003E000
000003E000
007FFFE000
007FFFE000
007FFFE000
007FFFE000
0FFFFFE000
0F8003E000
0F8003E000
0F8003E000
0F8003E000
007FFE1F00
007FFE1F00
007FFE1F00
007FFE1F00
007FFE1F00
0000000000
0000000000
0000000000
0000000000
ENDCHAR
STARTCHAR 62
ENCODING 98
SWIDTH 4320 0
DWIDTH 36 0
BBX 36 36 0 0
BITMAP
0F80000000
0F80000000
0F80000000
0F80000000
0F80000000
0F80000000
0F80000000
0F80000000
0F80000000
0F87FFE000
0F87FFE000
0F87FFE000
0F87FFE000
0FFFFFFF00
0FFC001F00
0FFC001F00
0FFC001F00
0FFC001F00
0F80001F00
0F80001F00
0F80001F00
0F80001F00
0FFC001F00
0FFC001F00
0FFC001F00
0FFC001F00
0FFC001F00
0F87FFE000
0F87FFE000
0F87FFE000
0F87FFE000
0F87FFE000
0000000000
0000000000
0000000000
0000000000
ENDCHAR
STARTCHAR 63
ENCODING 99
SWIDTH 4320 0
DWIDTH 36 0
BBX 36 36 0 0
BITMAP
0000000000
0000000000
0000000000
0000000000
0000000000
0000000000
0000000000
0000000000
0000000000
007FFFE000
007FFFE000
007FFFE000
007FFFE000
0FFFFFFF00
0F80001F00
0F80001F00
0F80001F00
0F80001F00
0F80000000
0F80000000
0F80000000
0F80000000
0F80001F00
0F80001F00
0F80001F00
0F80001F00
0F80001F00
007FFFE000
007FFFE000
007FFFE000
007FFFE000
007FFFE000
0000000000
0000000000
0000000000
0000000000
ENDCHAR
STARTCHAR 64
ENCODING 100
SWIDTH 4320 0
DWIDTH 36 0
BBX 36 36 0 0
BITMAP
0000001F00
0000001F00
0000001F00
0000001F00
0000001F00
0000001F00
0000001F00
0000001F00
0000001F00
007FFE1F00
007FFE1F00
007FFE1F00
007FFE1F00
0FFFFFFF00
0F8003FF00
0F8003FF00
0F8003FF00
0F8003FF00
0F80001F00
0F80001F00
0F80001F00
0F80001F00
0F8003FF00
0F8003FF00
0F8003FF00
0F8003FF00
0F8003FF00
007FFE1F00
007FFE1F00
007FFE1F00
007FFE1F00
007FFE1F00
0000000000
0000000000
0000000000
0000000000
ENDCHAR
STARTCHAR 65
ENCODING 101
SWIDTH 4320 0
DWIDTH 36 0
BBX 36 36 0 0
BITMAP
0000000000
0000000000
0000000000
0000000000
0000000000
0000000000
0000000000
0000000000
0000000000
007FFFE000
007FFFE000
007FFFE000
007FFFE000
0FFFFFFF00
0F80001F00
0F80001F00
0F80001F00
0F80001F00
0FFFFFFF00
0FFFFFFF00
0FFFFFFF00
0FFFFFFF00
0FFFFFFF00
0F80000000
0F80000000
0F80000000
0F80000000
007FFFE000
007FFFE000
007FFFE000
007FFFE000
007FFFE000
0000000000
0000000000
0000000000
0000000000
ENDCHAR
STARTCHAR 66
ENCODING 102
SWIDTH 4320 0
DWIDTH 36 0
BBX 36 36 0 0
BITMAP
00003FE000
00003FE000
00003FE000
00003FE000
0007FFFF00
0007C01F00
0007C01F00
0007C01F00
0007C01F00
0007C00000
0007C00000
0007C00000
0007C00000
0FFFFFE000
0FFFFFE000
0FFFFFE000
0FFFFFE000
0FFFFFE000
0007C00000
0007C00000
0007C00000
0007C00000
0007C00000
0007C00000
0007C00000
0007C00000
0007C00000
0007C00000
0007C00000
0007C00000
0007C00000
0007C00000
0000000000
0000000000
0000000000
0000000000
ENDCHAR
STARTCHAR 67
ENCODING 103
SWIDTH 4320 0
DWIDTH 36 0
BBX 36 36 0 0
BITMAP
0000000000
0000000000
0000000000
0000000000
0000000000
0000000000
0000000000
0000000000
0000000000
007FFE1F00
007FFE1F00
007FFE1F00
007FFE1F00
0FFFFFFF00
0F8003FF00
0F8003FF00
0F8003FF00
0F8003FF00
0F8003FF00
0F8003FF00
0F8003FF00
0F8003FF00
0FFFFFFF00
007FFE1F00
007FFE1F00
007FFE1F00
007FFE1F00
0000001F00
0000001F00
0000001F00
0000001F00
007FFFFF00
007FFFE000
007FFFE000
007FFFE000
007FFFE000
ENDCHAR
STARTCHAR 68
ENCODING 104
SWIDTH 4320 0
DWIDTH 36 0
BBX 36 36 0 0
BITMAP
0F80000000
0F80000000
0F80000000
0F80000000
0F80000000
0F80000000
0F80000000
0F80000000
0F80000000
0F87FFE000
0F87FFE000
0F87FFE000
0F87FFE000
0FFFFFFF00
0FFC001F00
0FFC001F00
0FFC001F00
0FFC001F00
0F80001F00
0F80001F00
0F80001F00
0F80001F00
0F80001F00
0F80001F00
0F80001F00
0F80001F00
0F80001F00
0F80001F00
0F80001F00
0F80001F00
0F80001F00
0F80001F00
0000000000
0000000000
0000000000
0000000000
ENDCHAR
STARTCHAR 69
ENCODING 105
SWIDTH 4320 0
DWIDTH 36 0
BBX 36 36 0 0
BITMAP
00003E0000
00003E0000
00003E0000
00003E0000
00003E0000
0000000000
0000000000
0000000000
0000000000
0007FE0000
0007FE0000
0007FE0000
0007FE0000
0007FE0000
00003E0000
00003E0000
00003E0000
00003E0000
00003E0000
00003E0000
00003E0000
00003E0000
00003E0000
00003E0000
00003E0000
00003E0000
00003E0000
0007FFE000
0007FFE000
0007FFE000
0007FFE000
0007FFE000
0000000000
0000000000
0000000000
0000000000
ENDCHAR
STARTCHAR 6a
ENCODING 106
SWIDTH 4320 0
DWIDTH 36 0
BBX 36 36 0 0
BITMAP
000003E000
000003E000
000003E000
000003E000
000003E000
0000000000
0000000000
0000000000
0000000000
00003FE000
00003FE000
00003FE000
00003FE000
00003FE000
000003E000
000003E000
000003E000
000003E000
000003E000
000003E000
000003E000
000003E000
000003E000
000003E000
000003E000
000003E000
000003E000
0F8003E000
0F8003E000
0F8003E000
0F8003E000
0FFFFFE000
007FFE0000
007FFE0000
007FFE0000
007FFE0000
ENDCHAR
STARTCHAR 6b
ENCODING 107
SWIDTH 4320 0
DWIDTH 36 0
BBX 36 36 0 0
BITMAP
0F80000000
0F80000000
0F80000000
0F80000000
0F80000000
0F80000000
0F80000000
0F80000000
0F80000000
0F8003E000
0F8003E000
0F8003E000
0F8003E000
0F803FE000
0F803E0000
0F803E0000
0F803E0000
0F803E0000
0F87C00000
0F87C00000
0F87C00000
0F87C00000
0FFFFE0000
0FFC3E0000
0FFC3E0000
0FFC3E0000
0FFC3E0000
0F8003E000
0F8003E000
0F8003E000
0F8003E000
0F8003E000
0000000000
0000000000
0000000000
0000000000
ENDCHAR
STARTCHAR 6c
ENCODING 108
SWIDTH 4320 0
DWIDTH 36 0
BBX 36 36 0 0
BITMAP
0007FE0000
0007FE0000
0007FE0000
0007FE0000
0007FE0000
00003E0000
00003E0000
00003E0000
00003E0000
00003E0000
00003E0000
00003E0000
00003E0000
00003E0000
00003E0000
00003E0000
00003E0000
00003E0000
00003E0000
00003E0000
00003E0000
00003E0000
00003E0000
00003E0000
00003E0000
00003E0000
00003E0000
0007FFE000
0007FFE000
0007FFE000
0007FFE000
0007FFE000
0000000000
0000000000
0000000000
0000000000
ENDCHAR
STARTCHAR 6d
ENCODING 109
SWIDTH 4320 0
DWIDTH 36 0
BBX 36 36 0 0
BITMAP
0000000000
0000000000
0000000000
0000000000
0000000000
0000000000
0000000000
0000000000
0000000000
0FFFC3FF00
0FFFC3FF00
0FFFC3FF00
0FFFC3FF00
0FFFFFFFF0
0F803E01F0
0F803E01F0
0F803E01F0
0F803E01F0
0F803E01F0
0F803E01F0
0F803E01F0
0F803E01F0
0F803E01F0
0F803E01F0
0F803E01F0
0F803E01F0
0F803E01F0
0F803E01F0
0F803E01F0
0F803E01F0
0F803E01F0
0F803E01F0
0000000000
0000000000
0000000000
0000000000
ENDCHAR
STARTCHAR 6e
ENCODING 110
SWIDTH 4320 0
DWIDTH 36 0
BBX 36 36 0 0
BITMAP
0000000000
0000000000
0000000000
0000000000
0000000000
0000000000
0000000000
0000000000
0000000000
0F87FFE000
0F87FFE000
0F87FFE000
0F87FFE000
0FFFFFFF00
0FFC001F00
0FFC001F00
0FFC001F00
0FFC001F00
0F80001F00
0F80001F00
0F80001F00
0F80001F00
0F80001F00
0F80001F00
0F80001F00
0F80001F00
0F80001F00
0F80001F00
0F80001F00
0F80001F00
0F80001F00
0F80001F00
0000000000
0000000000
0000000000
0000000000
ENDCHAR
STARTCHAR 6f
ENCODING 111
SWIDTH 4320 0
DWIDTH 36 0
BBX 36 36 0 0
BITMAP
0000000000
0000000000
0000000000
0000000000
0000000000
0000000000
0000000000
0000000000
0000000000
007FFFE000
007FFFE000
007FFFE000
007FFFE000
0FFFFFFF00
0F80001F00
0F80001F00
0F80001F00
0F80001F00
0F80001F00
0F80001F00
0F80001F00
0F80001F00
0F80001F00
0F80001F00
0F80001F00
0F80001F00
0F80001F00
007FFFE000
007FFFE000
007FFFE000
007FFFE000
007FFFE000
0000000000
0000000000
0000000000
0000000000
ENDCHAR
STARTCHAR 70
ENCODING 112
SWIDTH 4320 0
DWIDTH 36 0
BBX 36 36 0 0
BITMAP
0000000000
0000000000
0000000000
0000000000
0000000000
0000000000
0000000000
0000000000
0000000000
0F87FFE000
0F87FFE000
0F87FFE000
0F87FFE000
0FFFFFFF00
0FFC001F00
0FFC001F00
0FFC001F00
0FFC001F00
0FFC001F00
0FFC001F00
0FFC001F00
0FFC001F00
0FFFFFFF00
0F87FFE000
0F87FFE000
0F87FFE000
0F87FFE000
0F80000000
0F80000000
0F80000000
0F80000000
0F80000000
0F80000000
0F80000000
0F80000000
0F80000000
ENDCHAR
STARTCHAR 71
ENCODING 113
SWIDTH 4320 0
DWIDTH 36 0
BBX 36 36 0 0
BITMAP
0000000000
0000000000
0000000000
0000000000
0000000000
0000000000
0000000000
0000000000
0000000000
007FFE1F00
007FFE1F00
007FFE1F00
007FFE1F00
0FFFFFFF00
0F8003FF00
0F8003FF00
0F8003FF00
0F8003FF00
0F8003FF00
0F8003FF00
0F8003FF00
0F8003FF00
0FFFFFFF00
007FFE1F00
007FFE1F00
007FFE1F00
007FFE1F00
0000001F00
0000001F00
0000001F00
0000001F00
0000001F00
0000001F00
0000001F00
0000001F00
0000001F00
ENDCHAR
STARTCHAR 72
ENCODING 114
SWIDTH 4320 0
DWIDTH 36 0
BBX 36 36 0 0
BITMAP
0000000000
0000000000
0000000000
0000000000
0000000000
0000000000
0000000000
0000000000
0000000000
0F87FFE000
0F87FFE000
0F87FFE000
0F87FFE000
0FFFFFFF00
0FFC001F00
0FFC001F00
0FFC001F00
0FFC001F00
0F80000000
0F80000000
0F80000000
0F80000000
0F80000000
0F80000000
0F80000000
0F80000000
0F80000000
0F80000000
0F80000000
0F80000000
0F80000000
0F80000000
0000000000
0000000000
0000000000
0000000000
ENDCHAR
STARTCHAR 73
ENCODING 115
SWIDTH 4320 0
DWIDTH 36 0
BBX 36 36 0 0
BITMAP
0000000000
0000000000
0000000000
0000000000
0000000000
0000000000
0000000000
0000000000
0000000000
007FFFFF00
007FFFFF00
007FFFFF00
007FFFFF00
0FFFFFFF00
0F80000000
0F80000000
0F80000000
0F80000000
007FFFE000
007FFFE000
007FFFE000
007FFFE000
007FFFFF00
0000001F00
0000001F00
0000001F00
0000001F00
0FFFFFE000
0FFFFFE000
0FFFFFE000
0FFFFFE000
0FFFFFE000
0000000000
0000000000
0000000000
0000000000
ENDCHAR
STARTCHAR 74
ENCODING 116
SWIDTH 4320 0
DWIDTH 36 0
BBX 36 36 0 0
BITMAP
0007C00000
0007C00000
0007C00000
0007C00000
0007C00000
0007C00000
0007C00000
0007C00000
0007C00000
0FFFFFE000
0FFFFFE000
0FFFFFE000
0FFFFFE000
0FFFFFE000
0007C00000
0007C00000
0007C00000
0007C00000
0007C00000
0007C00000
0007C00000
0007C00000
0007C01F00
0007C01F00
0007C01F00
0007C01F00
0007C01F00
00003FE000
00003FE000
00003FE000
00003FE000
00003FE000
0000000000
0000000000
0000000000
0000000000
ENDCHAR
STARTCHAR 75
ENCODING 117
SWIDTH 4320 0
DWIDTH 36 0
BBX 36 36 0 0
BITMAP
0000000000
0000000000
0000000000
0000000000
0000000000
0000000000
0000000000
0000000000
0000000000
0F80001F00
0F80001F00
0F80001F00
0F80001F00
0F80001F00
0F80001F00
0F80001F00
0F80001F00
0F80001F00
0F80001F00
0F80001F00
0F80001F00
0F80001F00
0F80001F00
0F80001F00
0F80001F00
0F80001F00
0F80001F00
007FFFE000
007FFFE000
007FFFE000
007FFFE000
007FFFE000
0000000000
0000000000
0000000000
0000000000
ENDCHAR
STARTCHAR 76
ENCODING 118
SWIDTH 4320 0
DWIDTH 36 0
BBX 36 36 0 0
BITMAP
0000000000
0000000000
0000000000
0000000000
0000000000
0000000000
0000000000
0000000000
0000000000
0F80001F00
0F80001F00
0F80001F00
0F80001F00
0F80001F00
0F80001F00
0F80001F00
0F80001F00
0F80001F00
0F80001F00
0F80001F00
0F80001F00
0F80001F00
0FFC03FF00
007C03E000
007C03E000
007C03E000
007C03E000
0007FE0000
0007FE0000
0007FE0000
0007FE0000
0007FE0000
0000000000
0000000000
0000000000
0000000000
ENDCHAR
STARTCHAR 77
ENCODING 119
SWIDTH 4320 0
DWIDTH 36 0
BBX 36 36 0 0
BITMAP
0000000000
0000000000
0000000000
0000000000
0000000000
0000000000
0000000000
0000000000
0000000000
0F800001F0
0F800001F0
0F800001F0
0F800001F0
0F803E01F0
0F803E01F0
0F803E01F0
0F803E01F0
0F803E01F0
0F803E01F0
0F803E01F0
0F803E01F0
0F803E01F0
0F803E01F0
0F803E01F0
0F803E01F0
0F803E01F0
0F803E01F0
007FC3FF00
007FC3FF00
007FC3FF00
007FC3FF00
007FC3FF00
0000000000
0000000000
0000000000
0000000000
ENDCHAR
STARTCHAR 78
ENCODING 120
SWIDTH 4320 0
DWIDTH 36 0
BBX 36 36 0 0
BITMAP
0000000000
0000000000
0000000000
0000000000
0000000000
0000000000
0000000000
0000000000
0000000000
0F8003E000
0F8003E000
0F8003E000
0F8003E000
0FFC3FE000
007C3E0000
007C3E0000
007C3E0000
007C3E0000
0007C00000
0007C00000
0007C00000
0007C00000
007FFE0000
007C3E0000
007C3E0000
007C3E0000
007C3E0000
0F8003E000
0F8003E000
0F8003E000
0F8003E000
0F8003E000
0000000000
0000000000
0000000000
0000000000
ENDCHAR
STARTCHAR 79
ENCODING 121
SWIDTH 4320 0
DWIDTH 36 0
BBX 36 36 0 0
BITMAP
0000000000
0000000000
0000000000
0000000000
0000000000
0000000000
0000000000
0000000000
0000000000
0F80001F00
0F80001F00
0F80001F00
0F80001F00
0F80001F00
0F80001F00
0F80001F00
0F80001F00
0F80001F00
0F8003FF00
0F8003FF00
0F8003FF00
0F8003FF00
0FFFFFFF00
007FFE1F00
007FFE1F00
007FFE1F00
007FFE1F00
0000001F00
0000001F00
0000001F00
0000001F00
007FFFFF00
007FFFE000
007FFFE000
007FFFE000
007FFFE000
ENDCHAR
STARTCHAR 7a
ENCODING 122
SWIDTH 4320 0
DWIDTH 36 0
BBX 36 36 0 0
BITMAP
0000000000
0000000000
0000000000
0000000000
0000000000
0000000000
0000000000
0000000000
0000000000
0FFFFFFF00
0FFFFFFF00
0FFFFFFF00
0FFFFFFF00
0FFFFFFF00
000003E000
000003E000
000003E000
000003E000
0007FE0000
0007FE0000
0007FE0000
0007FE0000
007FFE0000
007C000000
007C000000
007C000000
007C000000
0FFFFFFF00
0FFFFFFF00
0FFFFFFF00
0FFFFFFF00
0FFFFFFF00
0000000000
0000000000
0000000000
0000000000
ENDCHAR
STARTCHAR 7c
ENCODING 124
SWIDTH 4320 0
DWIDTH 36 0
BBX 36 36 0 0
BITMAP
00003E0000
00003E0000
00003E0000
00003E0000
00003E0000
00003E0000
00003E0000
00003E0000
00003E0000
00003E0000
00003E0000
00003E0000
00003E0000
00003E0000
00003E0000
00003E0000
00003E0000
00003E0000
00003E0000
00003E0000
00003E0000
00003E0000
00003E0000
00003E0000
00003E0000
00003E0000
00003E0000
00003E0000
00003E0000
00003E0000
00003E0000
00003E0000
00003E0000
00003E0000
00003E0000
00003E0000
ENDCHAR
STARTCHAR 7e
ENCODING 126
SWIDTH 4320 0
DWIDTH 36 0
BBX 36 36 0 0
BITMAP
0000000000
0000000000
0000000000
0000000000
0000000000
0000000000
0000000000
0000000000
0000000000
007C000000
007C000000
007C000000
007C000000
0FFFC00000
0F87C00000
0F87C00000
0F87C00000
0F87C00000
F8003E0000
F8003E0000
F8003E0000
F8003E0000
F8003FE1F0
000003E1F0
000003E1F0
000003E1F0
000003E1F0
0000001F00
0000001F00
0000001F00
0000001F00
0000001F00
0000000000
0000000000
0000000000
0000000000
ENDCHAR
STARTCHAR d7
ENCODING 215
SWIDTH 4320 0
DWIDTH 36 0
BBX 36 36 0 0
BITMAP
F8000001F0
F8000001F0
F8000001F0
F8000001F0
FF80001FF0
0F80001F00
0F80001F00
0F80001F00
0F80001F00
007C03E000
007C03E000
007C03E000
007C03E000
007FFFE000
0007FE0000
0007FE0000
0007FE0000
0007FE0000
0007FE0000
0007FE0000
0007FE0000
0007FE0000
007FFFE000
007C03E000
007C03E000
007C03E000
007C03E000
0F80001F00
0F80001F00
0F80001F00
0F80001F00
FF80001FF0
F8000001F0
F8000001F0
F8000001F0
F8000001F0
ENDCHAR
STARTCHAR 3c0
ENCODING 960
SWIDTH 4320 0
DWIDTH 36 0
BBX 36 36 0 0
BITMAP
0000000000
0000000000
0000000000
0000000000
0000000000
0000000000
0000000000
0000000000
0000000000
00000001F0
00000001F0
00000001F0
00000001F0
007FFFFFF0
007FFFFF00
007FFFFF00
007FFFFF00
007FFFFF00
0F87C3E000
0F87C3E000
0F87C3E000
0F87C3E000
0F87C3E000
0007C3E000
0007C3E000
0007C3E000
0007C3E000
0007C3E000
0007C3E000
0007C3E000
0007C3E000
0007C3E000
0000000000
0000000000
0000000000
0000000000
ENDCHAR
STARTCHAR 2026
ENCODING 8230
SWIDTH 4320 0
DWIDTH 36 0
BBX 36 36 0 0
BITMAP
0000000000
0000000000
0000000000
0000000000
0000000000
0000000000
0000000000
0000000000
0000000000
0000000000
0000000000
0000000000
0000000000
0000000000
0000000000
0000000000
0000000000
0000000000
0000000000
0000000000
0000000000
0000000000
0FFFC00000
0FFFC00000
0FFFC00000
0FFFC00000
0FFFC00000
0F87C00000
0F87C00000
0F87C00000
0F87C00000
0FFFC00000
0FFFC00000
0FFFC00000
0FFFC00000
0FFFC00000
ENDCHAR
STARTCHAR 2190
ENCODING 8592
SWIDTH 4320 0
DWIDTH 36 0
BBX 36 36 0 0
BITMAP
0000000000
0000000000
0000000000
0000000000
0000000000
0000000000
0000000000
0000000000
0000000000
0007C00000
0007C00000
0007C00000
0007C00000
007FC00000
007C000000
007C000000
007C000000
007C000000
0FFFFFFFF0
0FFFFFFFF0
0FFFFFFFF0
0FFFFFFFF0
0FFFFFFFF0
007C000000
007C000000
007C000000
007C000000
0007C00000
0007C00000
0007C00000
0007C00000
0007C00000
0000000000
0000000000
0000000000
0000000000
ENDCHAR
STARTCHAR 2191
ENCODING 8593
SWIDTH 4320 0
DWIDTH 36 0
BBX 36 36 0 0
BITMAP
0000000000
0000000000
0000000000
0000000000
00003E0000
00003E0000
00003E0000
00003E0000
00003E0000
0007FFE000
0007FFE000
0007FFE000
0007FFE000
007FFFFF00
007C3E1F00
007C3E1F00
007C3E1F00
007C3E1F00
00003E0000
00003E0000
00003E0000
00003E0000
00003E0000
00003E0000
00003E0000
00003E0000
00003E0000
00003E0000
00003E0000
00003E0000
00003E0000
00003E0000
0000000000
0000000000
0000000000
0000000000
ENDCHAR
STARTCHAR 2192
ENCODING 8594
SWIDTH 4320 0
DWIDTH 36 0
BBX 36 36 0 0
BITMAP
0000000000
0000000000
0000000000
0000000000
0000000000
0000000000
0000000000
0000000000
0000000000
00003E0000
00003E0000
00003E0000
00003E0000
00003FE000
000003E000
000003E000
000003E000
000003E000
FFFFFFFF00
FFFFFFFF00
FFFFFFFF00
FFFFFFFF00
FFFFFFFF00
000003E000
000003E000
000003E000
000003E000
00003E0000
00003E0000
00003E0000
00003E0000
00003E0000
0000000000
0000000000
0000000000
0000000000
ENDCHAR
STARTCHAR 2193
ENCODING 8595
SWIDTH 4320 0
DWIDTH 36 0
BBX 36 36 0 0
BITMAP
0000000000
0000000000
0000000000
0000000000
00003E0000
00003E0000
00003E0000
00003E0000
00003E0000
00003E0000
00003E0000
00003E0000
00003E0000
00003E0000
00003E0000
00003E0000
00003E0000
00003E0000
007C3E1F00
007C3E1F00
007C3E1F00
007C3E1F00
007FFFFF00
0007FFE000
0007FFE000
0007FFE000
0007FFE000
00003E0000
00003E0000
00003E0000
00003E0000
00003E0000
0000000000
0000000000
0000000000
0000000000
ENDCHAR
STARTCHAR 21bf
ENCODING 8639
SWIDTH 4320 0
DWIDTH 36 0
BBX 36 36 0 0
BITMAP
0000001F00
0000001F00
0000001F00
0000001F00
0000001F00
0000001F00
0000001F00
0000001F00
0000001F00
0000001F00
0000001F00
0000001F00
0000001F00
0000001F00
0000001F00
0000001F00
0000001F00
0000001F00
0000001F00
0000001F00
0000001F00
0000001F00
0000001F00
0000001F00
0000001F00
0000001F00
0000001F00
000003FFF0
000003FFF0
000003FFF0
000003FFF0
000003FFF0
0000001F00
0000001F00
0000001F00
0000001F00
ENDCHAR
STARTCHAR 21c0
ENCODING 8640
SWIDTH 4320 0
DWIDTH 36 0
BBX 36 36 0 0
BITMAP
0000000000
0000000000
0000000000
0000000000
0000000000
0000000000
0000000000
0000000000
0000000000
0000000000
0000000000
0000000000
0000000000
0000000000
0000000000
0000000000
0000000000
0000000000
0000000000
0000000000
0000000000
0000000000
0000001F00
0000001F00
0000001F00
0000001F00
0000001F00
FFFFFFFFF0
FFFFFFFFF0
FFFFFFFFF0
FFFFFFFFF0
FFFFFFFFF0
0000001F00
0000001F00
0000001F00
0000001F00
ENDCHAR
STARTCHAR 21d6
ENCODING 8662
SWIDTH 4320 0
DWIDTH 36 0
BBX 36 36 0 0
BITMAP
007C000000
007C000000
007C000000
007C000000
007FC00000
0007C00000
0007C00000
0007C00000
0007C00000
F8003E0000
F8003E0000
F8003E0000
F8003E0000
FF803FE000
0F8003E000
0F8003E000
0F8003E000
0F8003E000
007C001F00
007C001F00
007C001F00
007C001F00
007FC01FF0
0007C001F0
0007C001F0
0007C001F0
0007C001F0
00003E0000
00003E0000
00003E0000
00003E0000
00003FE000
000003E000
000003E000
000003E000
000003E000
ENDCHAR
STARTCHAR 21d7
ENCODING 8663
SWIDTH 4320 0
DWIDTH 36 0
BBX 36 36 0 0
BITMAP
000003E000
000003E000
000003E000
000003E000
00003FE000
00003E0000
00003E0000
00003E0000
00003E0000
0007C001F0
0007C001F0
0007C001F0
0007C001F0
007FC01FF0
007C001F00
007C001F00
007C001F00
007C001F00
0F8003E000
0F8003E000
0F8003E000
0F8003E000
FF803FE000
F8003E0000
F8003E0000
F8003E0000
F8003E0000
0007C00000
0007C00000
0007C00000
0007C00000
007FC00000
007C000000
007C000000
007C000000
007C000000
ENDCHAR
STARTCHAR 21e6
ENCODING 8678
SWIDTH 4320 0
DWIDTH 36 0
BBX 36 36 0 0
BITMAP
FFFFFFFFF0
FFFFFFFFF0
FFFFFFFFF0
FFFFFFFFF0
FFFFFFFFF0
FFFFFFFFF0
FFFFFFFFF0
FFFFFFFFF0
FFFFFFFFF0
FFFC3FFFF0
FFFC3FFFF0
FFFC3FFFF0
FFFC3FFFF0
FFFFFFFFF0
FF87FFFFF0
FF87FFFFF0
FF87FFFFF0
FF87FFFFF0
F8000001F0
F8000001F0
F8000001F0
F8000001F0
FF87FFFFF0
FF87FFFFF0
FF87FFFFF0
FF87FFFFF0
FF87FFFFF0
FFFC3FFFF0
FFFC3FFFF0
FFFC3FFFF0
FFFC3FFFF0
FFFFFFFFF0
FFFFFFFFF0
FFFFFFFFF0
FFFFFFFFF0
FFFFFFFFF0
ENDCHAR
STARTCHAR 21e7
ENCODING 8679
SWIDTH 4320 0
DWIDTH 36 0
BBX 36 36 0 0
BITMAP
FFFFFFFFF0
FFFFFFFFF0
FFFFFFFFF0
FFFFFFFFF0
FFFFFFFFF0
FFFFC3FFF0
FFFFC3FFF0
FFFFC3FFF0
FFFFC3FFF0
FFFC001FF0
FFFC001FF0
FFFC001FF0
FFFC001FF0
FFFFC3FFF0
FF87C3E1F0
FF87C3E1F0
FF87C3E1F0
FF87C3E1F0
FFFFC3FFF0
FFFFC3FFF0
FFFFC3FFF0
FFFFC3FFF0
FFFFC3FFF0
FFFFC3FFF0
FFFFC3FFF0
FFFFC3FFF0
FFFFC3FFF0
FFFFC3FFF0
FFFFC3FFF0
FFFFC3FFF0
FFFFC3FFF0
FFFFFFFFF0
FFFFFFFFF0
FFFFFFFFF0
FFFFFFFFF0
FFFFFFFFF0
ENDCHAR
STARTCHAR 21e8
ENCODING 8680
SWIDTH 4320 0
DWIDTH 36 0
BBX 36 36 0 0
BITMAP
FFFFFFFFF0
FFFFFFFFF0
FFFFFFFFF0
FFFFFFFFF0
FFFFFFFFF0
FFFFFFFFF0
FFFFFFFFF0
FFFFFFFFF0
FFFFFFFFF0
FFFFC3FFF0
FFFFC3FFF0
FFFFC3FFF0
FFFFC3FFF0
FFFFFFFFF0
FFFFFE1FF0
FFFFFE1FF0
FFFFFE1FF0
FFFFFE1FF0
F8000001F0
F8000001F0
F8000001F0
F8000001F0
FFFFFE1FF0
FFFFFE1FF0
FFFFFE1FF0
FFFFFE1FF0
FFFFFE1FF0
FFFFC3FFF0
FFFFC3FFF0
FFFFC3FFF0
FFFFC3FFF0
FFFFFFFFF0
FFFFFFFFF0
FFFFFFFFF0
FFFFFFFFF0
FFFFFFFFF0
ENDCHAR
STARTCHAR 21e9
ENCODING 8681
SWIDTH 4320 0
DWIDTH 36 0
BBX 36 36 0 0
BITMAP
FFFFFFFFF0
FFFFFFFFF0
FFFFFFFFF0
FFFFFFFFF0
FFFFFFFFF0
FFFFC3FFF0
FFFFC3FFF0
FFFFC3FFF0
FFFFC3FFF0
FFFFC3FFF0
FFFFC3FFF0
FFFFC3FFF0
FFFFC3FFF0
FFFFC3FFF0
FFFFC3FFF0
FFFFC3FFF0
FFFFC3FFF0
FFFFC3FFF0
FF87C3E1F0
FF87C3E1F0
FF87C3E1F0
FF87C3E1F0
FFFFC3FFF0
FFFC001FF0
FFFC001FF0
FFFC001FF0
FFFC001FF0
FFFFC3FFF0
FFFFC3FFF0
FFFFC3FFF0
FFFFC3FFF0
FFFFFFFFF0
FFFFFFFFF0
FFFFFFFFF0
FFFFFFFFF0
FFFFFFFFF0
ENDCHAR
STARTCHAR 22a5
ENCODING 8869
SWIDTH 4320 0
DWIDTH 36 0
BBX 36 36 0 0
BITMAP
0000001F00
0000001F00
0000001F00
0000001F00
0000001F00
0000001F00
0000001F00
0000001F00
0000001F00
0000001F00
0000001F00
0000001F00
0000001F00
0000001F00
0000001F00
0000001F00
0000001F00
0000001F00
0000001F00
0000001F00
0000001F00
0000001F00
0000001F00
0000001F00
0000001F00
0000001F00
0000001F00
FFFFFFFFF0
FFFFFFFFF0
FFFFFFFFF0
FFFFFFFFF0
FFFFFFFFF0
0000001F00
0000001F00
0000001F00
0000001F00
ENDCHAR
STARTCHAR 2460
ENCODING 9312
SWIDTH 4320 0
DWIDTH 36 0
BBX 36 36 0 0
BITMAP
0000000000
0000000000
0000000000
0000000000
0FFFC00000
0FFFC00000
0FFFC00000
0FFFC00000
0FFFC00000
0FFFC00000
0FFFC00000
0FFFC00000
0FFFC00000
0FFFC00000
0FFFC00000
0FFFC00000
0FFFC00000
0FFFC00000
0000000000
0000000000
0000000000
0000000000
0000000000
0000000000
0000000000
0000000000
0000000000
0000000000
0000000000
0000000000
0000000000
0000000000
0000000000
0000000000
0000000000
0000000000
ENDCHAR
STARTCHAR 2461
ENCODING 9313
SWIDTH 4320 0
DWIDTH 36 0
BBX 36 36 0 0
BITMAP
0000000000
0000000000
0000000000
0000000000
000003FFF0
000003FFF0
000003FFF0
000003FFF0
000003FFF0
000003FFF0
000003FFF0
000003FFF0
000003FFF0
000003FFF0
000003FFF0
000003FFF0
000003FFF0
000003FFF0
0000000000
0000000000
0000000000
0000000000
0000000000
0000000000
0000000000
0000000000
0000000000
0000000000
0000000000
0000000000
0000000000
0000000000
0000000000
0000000000
0000000000
0000000000
ENDCHAR
STARTCHAR 2462
ENCODING 9314
SWIDTH 4320 0
DWIDTH 36 0
BBX 36 36 0 0
BITMAP
0000000000
0000000000
0000000000
0000000000
0FFFC3FFF0
0FFFC3FFF0
0FFFC3FFF0
0FFFC3FFF0
0FFFC3FFF0
0FFFC3FFF0
0FFFC3FFF0
0FFFC3FFF0
0FFFC3FFF0
0FFFC3FFF0
0FFFC3FFF0
0FFFC3FFF0
0FFFC3FFF0
0FFFC3FFF0
0000000000
0000000000
0000000000
0000000000
0000000000
0000000000
0000000000
0000000000
0000000000
0000000000
0000000000
0000000000
0000000000
0000000000
0000000000
0000000000
0000000000
0000000000
ENDCHAR
STARTCHAR 2463
ENCODING 9315
SWIDTH 4320 0
DWIDTH 36 0
BBX 36 36 0 0
BITMAP
0000000000
0000000000
0000000000
0000000000
0000000000
0000000000
0000000000
0000000000
0000000000
0000000000
0000000000
0000000000
0000000000
0000000000
0000000000
0000000000
0000000000
0000000000
0000000000
0000000000
0000000000
0000000000
0FFFC00000
0FFFC00000
0FFFC00000
0FFFC00000
0FFFC00000
0FFFC00000
0FFFC00000
0FFFC00000
0FFFC00000
0FFFC00000
0FFFC00000
0FFFC00000
0FFFC00000
0FFFC00000
ENDCHAR
STARTCHAR 2464
ENCODING 9316
SWIDTH 4320 0
DWIDTH 36 0
BBX 36 36 0 0
BITMAP
0000000000
0000000000
0000000000
0000000000
0FFFC00000
0FFFC00000
0FFFC00000
0FFFC00000
0FFFC00000
0FFFC00000
0FFFC00000
0FFFC00000
0FFFC00000
0FFFC00000
0FFFC00000
0FFFC00000
0FFFC00000
0FFFC00000
0000000000
0000000000
0000000000
0000000000
0FFFC00000
0FFFC00000
0FFFC00000
0FFFC00000
0FFFC00000
0FFFC00000
0FFFC00000
0FFFC00000
0FFFC00000
0FFFC00000
0FFFC00000
0FFFC00000
0FFFC00000
0FFFC00000
ENDCHAR
STARTCHAR 2465
ENCODING 9317
SWIDTH 4320 0
DWIDTH 36 0
BBX 36 36 0 0
BITMAP
0000000000
0000000000
0000000000
0000000000
000003FFF0
000003FFF0
000003FFF0
000003FFF0
000003FFF0
000003FFF0
000003FFF0
000003FFF0
000003FFF0
000003FFF0
000003FFF0
000003FFF0
000003FFF0
000003FFF0
0000000000
0000000000
0000000000
0000000000
0FFFC00000
0FFFC00000
0FFFC00000
0FFFC00000
0FFFC00000
0FFFC00000
0FFFC00000
0FFFC00000
0FFFC00000
0FFFC00000
0FFFC00000
0FFFC00000
0FFFC00000
0FFFC00000
ENDCHAR
STARTCHAR 2466
ENCODING 9318
SWIDTH 4320 0
DWIDTH 36 0
BBX 36 36 0 0
BITMAP
0000000000
0000000000
0000000000
0000000000
0FFFC3FFF0
0FFFC3FFF0
0FFFC3FFF0
0FFFC3FFF0
0FFFC3FFF0
0FFFC3FFF0
0FFFC3FFF0
0FFFC3FFF0
0FFFC3FFF0
0FFFC3FFF0
0FFFC3FFF0
0FFFC3FFF0
0FFFC3FFF0
0FFFC3FFF0
0000000000
0000000000
0000000000
0000000000
0FFFC00000
0FFFC00000
0FFFC00000
0FFFC00000
0FFFC00000
0FFFC00000
0FFFC00000
0FFFC00000
0FFFC00000
0FFFC00000
0FFFC00000
0FFFC00000
0FFFC00000
0FFFC00000
ENDCHAR
STARTCHAR 2467
ENCODING 9319
SWIDTH 4320 0
DWIDTH 36 0
BBX 36 36 0 0
BITMAP
0000000000
0000000000
0000000000
0000000000
0000000000
0000000000
0000000000
0000000000
0000000000
0000000000
0000000000
0000000000
0000000000
0000000000
0000000000
0000000000
0000000000
0000000000
0000000000
0000000000
0000000000
0000000000
000003FFF0
000003FFF0
000003FFF0
000003FFF0
000003FFF0
000003FFF0
000003FFF0
000003FFF0
000003FFF0
000003FFF0
000003FFF0
000003FFF0
000003FFF0
000003FFF0
ENDCHAR
STARTCHAR 2468
ENCODING 9320
SWIDTH 4320 0
DWIDTH 36 0
BBX 36 36 0 0
BITMAP
0000000000
0000000000
0000000000
0000000000
0FFFC00000
0FFFC00000
0FFFC00000
0FFFC00000
0FFFC00000
0FFFC00000
0FFFC00000
0FFFC00000
0FFFC00000
0FFFC00000
0FFFC00000
0FFFC00000
0FFFC00000
0FFFC00000
0000000000
0000000000
0000000000
0000000000
000003FFF0
000003FFF0
000003FFF0
000003FFF0
000003FFF0
000003FFF0
000003FFF0
000003FFF0
000003FFF0
000003FFF0
000003FFF0
000003FFF0
000003FFF0
000003FFF0
ENDCHAR
STARTCHAR 2469
ENCODING 9321
SWIDTH 4320 0
DWIDTH 36 0
BBX 36 36 0 0
BITMAP
0000000000
0000000000
0000000000
0000000000
000003FFF0
000003FFF0
000003FFF0
000003FFF0
000003FFF0
000003FFF0
000003FFF0
000003FFF0
000003FFF0
000003FFF0
000003FFF0
000003FFF0
000003FFF0
000003FFF0
0000000000
0000000000
0000000000
0000000000
000003FFF0
000003FFF0
000003FFF0
000003FFF0
000003FFF0
000003FFF0
000003FFF0
000003FFF0
000003FFF0
000003FFF0
000003FFF0
000003FFF0
000003FFF0
000003FFF0
ENDCHAR
STARTCHAR 246a
ENCODING 9322
SWIDTH 4320 0
DWIDTH 36 0
BBX 36 36 0 0
BITMAP
0000000000
0000000000
0000000000
0000000000
0FFFC3FFF0
0FFFC3FFF0
0FFFC3FFF0
0FFFC3FFF0
0FFFC3FFF0
0FFFC3FFF0
0FFFC3FFF0
0FFFC3FFF0
0FFFC3FFF0
0FFFC3FFF0
0FFFC3FFF0
0FFFC3FFF0
0FFFC3FFF0
0FFFC3FFF0
0000000000
0000000000
0000000000
0000000000
000003FFF0
000003FFF0
000003FFF0
000003FFF0
000003FFF0
000003FFF0
000003FFF0
000003FFF0
000003FFF0
000003FFF0
000003FFF0
000003FFF0
000003FFF0
000003FFF0
ENDCHAR
STARTCHAR 246b
ENCODING 9323
SWIDTH 4320 0
DWIDTH 36 0
BBX 36 36 0 0
BITMAP
0000000000
0000000000
0000000000
0000000000
0000000000
0000000000
0000000000
0000000000
0000000000
0000000000
0000000000
0000000000
0000000000
0000000000
0000000000
0000000000
0000000000
0000000000
0000000000
0000000000
0000000000
0000000000
0FFFC3FFF0
0FFFC3FFF0
0FFFC3FFF0
0FFFC3FFF0
0FFFC3FFF0
0FFFC3FFF0
0FFFC3FFF0
0FFFC3FFF0
0FFFC3FFF0
0FFFC3FFF0
0FFFC3FFF0
0FFFC3FFF0
0FFFC3FFF0
0FFFC3FFF0
ENDCHAR
STARTCHAR 246c
ENCODING 9324
SWIDTH 4320 0
DWIDTH 36 0
BBX 36 36 0 0
BITMAP
0000000000
0000000000
0000000000
0000000000
0FFFC00000
0FFFC00000
0FFFC00000
0FFFC00000
0FFFC00000
0FFFC00000
0FFFC00000
0FFFC00000
0FFFC00000
0FFFC00000
0FFFC00000
0FFFC00000
0FFFC00000
0FFFC00000
0000000000
0000000000
0000000000
0000000000
0FFFC3FFF0
0FFFC3FFF0
0FFFC3FFF0
0FFFC3FFF0
0FFFC3FFF0
0FFFC3FFF0
0FFFC3FFF0
0FFFC3FFF0
0FFFC3FFF0
0FFFC3FFF0
0FFFC3FFF0
0FFFC3FFF0
0FFFC3FFF0
0FFFC3FFF0
ENDCHAR
STARTCHAR 246d
ENCODING 9325
SWIDTH 4320 0
DWIDTH 36 0
BBX 36 36 0 0
BITMAP
0000000000
0000000000
0000000000
0000000000
000003FFF0
000003FFF0
000003FFF0
000003FFF0
000003FFF0
000003FFF0
000003FFF0
000003FFF0
000003FFF0
000003FFF0
000003FFF0
000003FFF0
000003FFF0
000003FFF0
0000000000
0000000000
0000000000
0000000000
0FFFC3FFF0
0FFFC3FFF0
0FFFC3FFF0
0FFFC3FFF0
0FFFC3FFF0
0FFFC3FFF0
0FFFC3FFF0
0FFFC3FFF0
0FFFC3FFF0
0FFFC3FFF0
0FFFC3FFF0
0FFFC3FFF0
0FFFC3FFF0
0FFFC3FFF0
ENDCHAR
STARTCHAR 246e
ENCODING 9326
SWIDTH 4320 0
DWIDTH 36 0
BBX 36 36 0 0
BITMAP
0000000000
0000000000
0000000000
0000000000
0FFFC3FFF0
0FFFC3FFF0
0FFFC3FFF0
0FFFC3FFF0
0FFFC3FFF0
0FFFC3FFF0
0FFFC3FFF0
0FFFC3FFF0
0FFFC3FFF0
0FFFC3FFF0
0FFFC3FFF0
0FFFC3FFF0
0FFFC3FFF0
0FFFC3FFF0
0000000000
0000000000
0000000000
0000000000
0FFFC3FFF0
0FFFC3FFF0
0FFFC3FFF0
0FFFC3FFF0
0FFFC3FFF0
0FFFC3FFF0
0FFFC3FFF0
0FFFC3FFF0
0FFFC3FFF0
0FFFC3FFF0
0FFFC3FFF0
0FFFC3FFF0
0FFFC3FFF0
0FFFC3FFF0
ENDCHAR
STARTCHAR 24b8
ENCODING 9400
SWIDTH 4320 0
DWIDTH 36 0
BBX 36 36 0 0
BITMAP
FFFC001FF0
FFFC001FF0
FFFC001FF0
FFFC001FF0
FFFFFFFFF0
FF87FFE1F0
FF87FFE1F0
FF87FFE1F0
FF87FFE1F0
F87FFFFFF0
F87FFFFFF0
F87FFFFFF0
F87FFFFFF0
F87FFFFFF0
F87FFFFFF0
F87FFFFFF0
F87FFFFFF0
F87FFFFFF0
F87FFFFFF0
F87FFFFFF0
F87FFFFFF0
F87FFFFFF0
FFFFFFFFF0
FF87FFE1F0
FF87FFE1F0
FF87FFE1F0
FF87FFE1F0
FFFC001FF0
FFFC001FF0
FFFC001FF0
FFFC001FF0
FFFFFFFFF0
FFFFFFFFF0
FFFFFFFFF0
FFFFFFFFF0
FFFFFFFFF0
ENDCHAR
STARTCHAR 24bd
ENCODING 9405
SWIDTH 4320 0
DWIDTH 36 0
BBX 36 36 0 0
BITMAP
F87FFE1FF0
F87FFE1FF0
F87FFE1FF0
F87FFE1FF0
F87FFE1FF0
F87FFE1FF0
F87FFE1FF0
F87FFE1FF0
F87FFE1FF0
F87FFE1FF0
F87FFE1FF0
F87FFE1FF0
F87FFE1FF0
F87FFE1FF0
F800001FF0
F800001FF0
F800001FF0
F800001FF0
F87FFE1FF0
F87FFE1FF0
F87FFE1FF0
F87FFE1FF0
F87FFE1FF0
F87FFE1FF0
F87FFE1FF0
F87FFE1FF0
F87FFE1FF0
F87FFE1FF0
F87FFE1FF0
F87FFE1FF0
F87FFE1FF0
FFFFFFFFF0
FFFFFFFFF0
FFFFFFFFF0
FFFFFFFFF0
FFFFFFFFF0
ENDCHAR
STARTCHAR 2500
ENCODING 9472
SWIDTH 4320 0
DWIDTH 36 0
BBX 36 36 0 0
BITMAP
0000000000
0000000000
0000000000
0000000000
0000000000
0000000000
0000000000
0000000000
0000000000
0000000000
0000000000
0000000000
0000000000
0000000000
0000000000
0000000000
0000000000
0000000000
FFFFFFFFF0
FFFFFFFFF0
FFFFFFFFF0
FFFFFFFFF0
FFFFFFFFF0
0000000000
0000000000
0000000000
0000000000
0000000000
0000000000
0000000000
0000000000
0000000000
0000000000
0000000000
0000000000
0000000000
ENDCHAR
STARTCHAR 2503
ENCODING 9475
SWIDTH 4320 0
DWIDTH 36 0
BBX 36 36 0 0
BITMAP
0007C00000
0007C00000
0007C00000
0007C00000
0007C00000
0007C00000
0007C00000
0007C00000
0007C00000
0007C00000
0007C00000
0007C00000
0007C00000
0007C00000
0007C00000
0007C00000
0007C00000
0007C00000
0007C00000
0007C00000
0007C00000
0007C00000
0007C00000
0007C00000
0007C00000
0007C00000
0007C00000
0007C00000
0007C00000
0007C00000
0007C00000
0007C00000
0007C00000
0007C00000
0007C00000
0007C00000
ENDCHAR
STARTCHAR 2506
ENCODING 9478
SWIDTH 4320 0
DWIDTH 36 0
BBX 36 36 0 0
BITMAP
0000001F00
0000001F00
0000001F00
0000001F00
0000001F00
0000001F00
0000001F00
0000001F00
0000001F00
0000001F00
0000001F00
0000001F00
0000001F00
0000001F00
0000001F00
0000001F00
0000001F00
0000001F00
0000001F00
0000001F00
0000001F00
0000001F00
0000001F00
0000001F00
0000001F00
0000001F00
0000001F00
0000001F00
0000001F00
0000001F00
0000001F00
0000001F00
0000001F00
0000001F00
0000001F00
0000001F00
ENDCHAR
STARTCHAR 2507
ENCODING 9479
SWIDTH 4320 0
DWIDTH 36 0
BBX 36 36 0 0
BITMAP
0F80000000
0F80000000
0F80000000
0F80000000
0F80000000
0F80000000
0F80000000
0F80000000
0F80000000
0F80000000
0F80000000
0F80000000
0F80000000
0F80000000
0F80000000
0F80000000
0F80000000
0F80000000
0F80000000
0F80000000
0F80000000
0F80000000
0F80000000
0F80000000
0F80000000
0F80000000
0F80000000
0F80000000
0F80000000
0F80000000
0F80000000
0F80000000
0F80000000
0F80000000
0F80000000
0F80000000
ENDCHAR
STARTCHAR 250a
ENCODING 9482
SWIDTH 4320 0
DWIDTH 36 0
BBX 36 36 0 0
BITMAP
000003E000
000003E000
000003E000
000003E000
000003E000
000003E000
000003E000
000003E000
000003E000
000003E000
000003E000
000003E000
000003E000
000003E000
000003E000
000003E000
000003E000
000003E000
000003E000
000003E000
000003E000
000003E000
000003E000
000003E000
000003E000
000003E000
000003E000
000003E000
000003E000
000003E000
000003E000
000003E000
000003E000
000003E000
000003E000
000003E000
ENDCHAR
STARTCHAR 250b
ENCODING 9483
SWIDTH 4320 0
DWIDTH 36 0
BBX 36 36 0 0
BITMAP
007C000000
007C000000
007C000000
007C000000
007C000000
007C000000
007C000000
007C000000
007C000000
007C000000
007C000000
007C000000
007C000000
007C000000
007C000000
007C000000
007C000000
007C000000
007C000000
007C000000
007C000000
007C000000
007C000000
007C000000
007C000000
007C000000
007C000000
007C000000
007C000000
007C000000
007C000000
007C000000
007C000000
007C000000
007C000000
007C000000
ENDCHAR
STARTCHAR 250c
ENCODING 9484
SWIDTH 4320 0
DWIDTH 36 0
BBX 36 36 0 0
BITMAP
0000000000
0000000000
0000000000
0000000000
0000000000
0000000000
0000000000
0000000000
0000000000
0000000000
0000000000
0000000000
0000000000
0000000000
0000000000
0000000000
0000000000
0000000000
00003FFFF0
00003FFFF0
00003FFFF0
00003FFFF0
00003FFFF0
00003E0000
00003E0000
00003E0000
00003E0000
00003E0000
00003E0000
00003E0000
00003E0000
00003E0000
00003E0000
00003E0000
00003E0000
00003E0000
ENDCHAR
STARTCHAR 250f
ENCODING 9487
SWIDTH 4320 0
DWIDTH 36 0
BBX 36 36 0 0
BITMAP
FFFFFFFFF0
FFFFFFFFF0
FFFFFFFFF0
FFFFFFFFF0
FFFFFFFFF0
F800000000
F800000000
F800000000
F800000000
F800000000
F800000000
F800000000
F800000000
F800000000
F800000000
F800000000
F800000000
F800000000
F800000000
F800000000
F800000000
F800000000
F800000000
F800000000
F800000000
F800000000
F800000000
F800000000
F800000000
F800000000
F800000000
F800000000
F800000000
F800000000
F800000000
F800000000
ENDCHAR
STARTCHAR 2510
ENCODING 9488
SWIDTH 4320 0
DWIDTH 36 0
BBX 36 36 0 0
BITMAP
0000000000
0000000000
0000000000
0000000000
0000000000
0000000000
0000000000
0000000000
0000000000
0000000000
0000000000
0000000000
0000000000
0000000000
0000000000
0000000000
0000000000
0000000000
FFFFFE0000
FFFFFE0000
FFFFFE0000
FFFFFE0000
FFFFFE0000
00003E0000
00003E0000
00003E0000
00003E0000
00003E0000
00003E0000
00003E0000
00003E0000
00003E0000
00003E0000
00003E0000
00003E0000
00003E0000
ENDCHAR
STARTCHAR 2513
ENCODING 9491
SWIDTH 4320 0
DWIDTH 36 0
BBX 36 36 0 0
BITMAP
FFFFFFFFF0
FFFFFFFFF0
FFFFFFFFF0
FFFFFFFFF0
FFFFFFFFF0
00000001F0
00000001F0
00000001F0
00000001F0
00000001F0
00000001F0
00000001F0
00000001F0
00000001F0
00000001F0
00000001F0
00000001F0
00000001F0
00000001F0
00000001F0
00000001F0
00000001F0
00000001F0
00000001F0
00000001F0
00000001F0
00000001F0
00000001F0
00000001F0
00000001F0
00000001F0
00000001F0
00000001F0
00000001F0
00000001F0
00000001F0
ENDCHAR
STARTCHAR 2514
ENCODING 9492
SWIDTH 4320 0
DWIDTH 36 0
BBX 36 36 0 0
BITMAP
00003E0000
00003E0000
00003E0000
00003E0000
00003E0000
00003E0000
00003E0000
00003E0000
00003E0000
00003E0000
00003E0000
00003E0000
00003E0000
00003E0000
00003E0000
00003E0000
00003E0000
00003E0000
00003FFFF0
00003FFFF0
00003FFFF0
00003FFFF0
00003FFFF0
0000000000
0000000000
0000000000
0000000000
0000000000
0000000000
0000000000
0000000000
0000000000
0000000000
0000000000
0000000000
0000000000
ENDCHAR
STARTCHAR 2517
ENCODING 9495
SWIDTH 4320 0
DWIDTH 36 0
BBX 36 36 0 0
BITMAP
F800000000
F800000000
F800000000
F800000000
F800000000
F800000000
F800000000
F800000000
F800000000
F800000000
F800000000
F800000000
F800000000
F800000000
F800000000
F800000000
F800000000
F800000000
F800000000
F800000000
F800000000
F800000000
F800000000
F800000000
F800000000
F800000000
F800000000
F800000000
F800000000
F800000000
F800000000
FFFFFFFFF0
FFFFFFFFF0
FFFFFFFFF0
FFFFFFFFF0
FFFFFFFFF0
ENDCHAR
STARTCHAR 2518
ENCODING 9496
SWIDTH 4320 0
DWIDTH 36 0
BBX 36 36 0 0
BITMAP
00003E0000
00003E0000
00003E0000
00003E0000
00003E0000
00003E0000
00003E0000
00003E0000
00003E0000
00003E0000
00003E0000
00003E0000
00003E0000
00003E0000
00003E0000
00003E0000
00003E0000
00003E0000
FFFFFE0000
FFFFFE0000
FFFFFE0000
FFFFFE0000
FFFFFE0000
0000000000
0000000000
0000000000
0000000000
0000000000
0000000000
0000000000
0000000000
0000000000
0000000000
0000000000
0000000000
0000000000
ENDCHAR
STARTCHAR 251b
ENCODING 9499
SWIDTH 4320 0
DWIDTH 36 0
BBX 36 36 0 0
BITMAP
00000001F0
00000001F0
00000001F0
00000001F0
00000001F0
00000001F0
00000001F0
00000001F0
00000001F0
00000001F0
00000001F0
00000001F0
00000001F0
00000001F0
00000001F0
00000001F0
00000001F0
00000001F0
00000001F0
00000001F0
00000001F0
00000001F0
00000001F0
00000001F0
00000001F0
00000001F0
00000001F0
00000001F0
00000001F0
00000001F0
00000001F0
FFFFFFFFF0
FFFFFFFFF0
FFFFFFFFF0
FFFFFFFFF0
FFFFFFFFF0
ENDCHAR
STARTCHAR 251c
ENCODING 9500
SWIDTH 4320 0
DWIDTH 36 0
BBX 36 36 0 0
BITMAP
00003E0000
00003E0000
00003E0000
00003E0000
00003E0000
00003E0000
00003E0000
00003E0000
00003E0000
00003E0000
00003E0000
00003E0000
00003E0000
00003E0000
00003E0000
00003E0000
00003E0000
00003E0000
00003FFFF0
00003FFFF0
00003FFFF0
00003FFFF0
00003FFFF0
00003E0000
00003E0000
00003E0000
00003E0000
00003E0000
00003E0000
00003E0000
00003E0000
00003E0000
00003E0000
00003E0000
00003E0000
00003E0000
ENDCHAR
STARTCHAR 2524
ENCODING 9508
SWIDTH 4320 0
DWIDTH 36 0
BBX 36 36 0 0
BITMAP
00003E0000
00003E0000
00003E0000
00003E0000
00003E0000
00003E0000
00003E0000
00003E0000
00003E0000
00003E0000
00003E0000
00003E0000
00003E0000
00003E0000
00003E0000
00003E0000
00003E0000
00003E0000
FFFFFE0000
FFFFFE0000
FFFFFE0000
FFFFFE0000
FFFFFE0000
00003E0000
00003E0000
00003E0000
00003E0000
00003E0000
00003E0000
00003E0000
00003E0000
00003E0000
00003E0000
00003E0000
00003E0000
00003E0000
ENDCHAR
STARTCHAR 252c
ENCODING 9516
SWIDTH 4320 0
DWIDTH 36 0
BBX 36 36 0 0
BITMAP
0000000000
0000000000
0000000000
0000000000
0000000000
0000000000
0000000000
0000000000
0000000000
0000000000
0000000000
0000000000
0000000000
0000000000
0000000000
0000000000
0000000000
0000000000
FFFFFFFFF0
FFFFFFFFF0
FFFFFFFFF0
FFFFFFFFF0
FFFFFFFFF0
00003E0000
00003E0000
00003E0000
00003E0000
00003E0000
00003E0000
00003E0000
00003E0000
00003E0000
00003E0000
00003E0000
00003E0000
00003E0000
ENDCHAR
STARTCHAR 2534
ENCODING 9524
SWIDTH 4320 0
DWIDTH 36 0
BBX 36 36 0 0
BITMAP
00003E0000
00003E0000
00003E0000
00003E0000
00003E0000
00003E0000
00003E0000
00003E0000
00003E0000
00003E0000
00003E0000
00003E0000
00003E0000
00003E0000
00003E0000
00003E0000
00003E0000
00003E0000
FFFFFFFFF0
FFFFFFFFF0
FFFFFFFFF0
FFFFFFFFF0
FFFFFFFFF0
0000000000
0000000000
0000000000
0000000000
0000000000
0000000000
0000000000
0000000000
0000000000
0000000000
0000000000
0000000000
0000000000
ENDCHAR
STARTCHAR 253c
ENCODING 9532
SWIDTH 4320 0
DWIDTH 36 0
BBX 36 36 0 0
BITMAP
00003E0000
00003E0000
00003E0000
00003E0000
00003E0000
00003E0000
00003E0000
00003E0000
00003E0000
00003E0000
00003E0000
00003E0000
00003E0000
00003E0000
00003E0000
00003E0000
00003E0000
00003E0000
FFFFFFFFF0
FFFFFFFFF0
FFFFFFFFF0
FFFFFFFFF0
FFFFFFFFF0
00003E0000
00003E0000
00003E0000
00003E0000
00003E0000
00003E0000
00003E0000
00003E0000
00003E0000
00003E0000
00003E0000
00003E0000
00003E0000
ENDCHAR
STARTCHAR 256d
ENCODING 9581
SWIDTH 4320 0
DWIDTH 36 0
BBX 36 36 0 0
BITMAP
0000000000
0000000000
0000000000
0000000000
0000000000
0000000000
0000000000
0000000000
0000000000
0000000000
0000000000
0000000000
0000000000
0000000000
0000000000
0000000000
0000000000
0000000000
0000001FF0
0000001FF0
0000001FF0
0000001FF0
000003FFF0
000003E000
000003E000
000003E000
000003E000
00003E0000
00003E0000
00003E0000
00003E0000
00003E0000
00003E0000
00003E0000
00003E0000
00003E0000
ENDCHAR
STARTCHAR 256e
ENCODING 9582
SWIDTH 4320 0
DWIDTH 36 0
BBX 36 36 0 0
BITMAP
0000000000
0000000000
0000000000
0000000000
0000000000
0000000000
0000000000
0000000000
0000000000
0000000000
0000000000
0000000000
0000000000
0000000000
0000000000
0000000000
0000000000
0000000000
FF80000000
FF80000000
FF80000000
FF80000000
FFFC000000
007C000000
007C000000
007C000000
007C000000
0007C00000
0007C00000
0007C00000
0007C00000
0007C00000
0007C00000
0007C00000
0007C00000
0007C00000
ENDCHAR
STARTCHAR 256f
ENCODING 9583
SWIDTH 4320 0
DWIDTH 36 0
BBX 36 36 0 0
BITMAP
0007C00000
0007C00000
0007C00000
0007C00000
0007C00000
0007C00000
0007C00000
0007C00000
0007C00000
007C000000
007C000000
007C000000
007C000000
FFFC000000
FF80000000
FF80000000
FF80000000
FF80000000
0000000000
0000000000
0000000000
0000000000
0000000000
0000000000
0000000000
0000000000
0000000000
0000000000
0000000000
0000000000
0000000000
0000000000
0000000000
0000000000
0000000000
0000000000
ENDCHAR
STARTCHAR 2570
ENCODING 9584
SWIDTH 4320 0
DWIDTH 36 0
BBX 36 36 0 0
BITMAP
00003E0000
00003E0000
00003E0000
00003E0000
00003E0000
00003E0000
00003E0000
00003E0000
00003E0000
000003E000
000003E000
000003E000
000003E000
000003FFF0
0000001FF0
0000001FF0
0000001FF0
0000001FF0
0000000000
0000000000
0000000000
0000000000
0000000000
0000000000
0000000000
0000000000
0000000000
0000000000
0000000000
0000000000
0000000000
0000000000
0000000000
0000000000
0000000000
0000000000
ENDCHAR
STARTCHAR 2580
ENCODING 9600
SWIDTH 4320 0
DWIDTH 36 0
BBX 36 36 0 0
BITMAP
FFFFFFFFF0
FFFFFFFFF0
FFFFFFFFF0
FFFFFFFFF0
FFFFFFFFF0
FFFFFFFFF0
FFFFFFFFF0
FFFFFFFFF0
FFFFFFFFF0
FFFFFFFFF0
FFFFFFFFF0
FFFFFFFFF0
FFFFFFFFF0
FFFFFFFFF0
FFFFFFFFF0
FFFFFFFFF0
FFFFFFFFF0
FFFFFFFFF0
0000000000
0000000000
0000000000
0000000000
0000000000
0000000000
0000000000
0000000000
0000000000
0000000000
0000000000
0000000000
0000000000
0000000000
0000000000
0000000000
0000000000
0000000000
ENDCHAR
STARTCHAR 2582
ENCODING 9602
SWIDTH 4320 0
DWIDTH 36 0
BBX 36 36 0 0
BITMAP
0000000000
0000000000
0000000000
0000000000
0000000000
0000000000
0000000000
0000000000
0000000000
0000000000
0000000000
0000000000
0000000000
0000000000
0000000000
0000000000
0000000000
0000000000
0000000000
0000000000
0000000000
0000000000
0000000000
0000000000
0000000000
0000000000
0000000000
FFFFFFFFF0
FFFFFFFFF0
FFFFFFFFF0
FFFFFFFFF0
FFFFFFFFF0
FFFFFFFFF0
FFFFFFFFF0
FFFFFFFFF0
FFFFFFFFF0
ENDCHAR
STARTCHAR 2583
ENCODING 9603
SWIDTH 4320 0
DWIDTH 36 0
BBX 36 36 0 0
BITMAP
0000000000
0000000000
0000000000
0000000000
0000000000
0000000000
0000000000
0000000000
0000000000
0000000000
0000000000
0000000000
0000000000
0000000000
0000000000
0000000000
0000000000
0000000000
0000000000
0000000000
0000000000
0000000000
FFFFFFFFF0
FFFFFFFFF0
FFFFFFFFF0
FFFFFFFFF0
FFFFFFFFF0
FFFFFFFFF0
FFFFFFFFF0
FFFFFFFFF0
FFFFFFFFF0
FFFFFFFFF0
FFFFFFFFF0
FFFFFFFFF0
FFFFFFFFF0
FFFFFFFFF0
ENDCHAR
STARTCHAR 2584
ENCODING 9604
SWIDTH 4320 0
DWIDTH 36 0
BBX 36 36 0 0
BITMAP
0000000000
0000000000
0000000000
0000000000
0000000000
0000000000
0000000000
0000000000
0000000000
0000000000
0000000000
0000000000
0000000000
0000000000
0000000000
0000000000
0000000000
0000000000
FFFFFFFFF0
FFFFFFFFF0
FFFFFFFFF0
FFFFFFFFF0
FFFFFFFFF0
FFFFFFFFF0
FFFFFFFFF0
FFFFFFFFF0
FFFFFFFFF0
FFFFFFFFF0
FFFFFFFFF0
FFFFFFFFF0
FFFFFFFFF0
FFFFFFFFF0
FFFFFFFFF0
FFFFFFFFF0
FFFFFFFFF0
FFFFFFFFF0
ENDCHAR
STARTCHAR 258d
ENCODING 9613
SWIDTH 4320 0
DWIDTH 36 0
BBX 36 36 0 0
BITMAP
FFFFC00000
FFFFC00000
FFFFC00000
FFFFC00000
FFFFC00000
FFFFC00000
FFFFC00000
FFFFC00000
FFFFC00000
FFFFC00000
FFFFC00000
FFFFC00000
FFFFC00000
FFFFC00000
FFFFC00000
FFFFC00000
FFFFC00000
FFFFC00000
FFFFC00000
FFFFC00000
FFFFC00000
FFFFC00000
FFFFC00000
FFFFC00000
FFFFC00000
FFFFC00000
FFFFC00000
FFFFC00000
FFFFC00000
FFFFC00000
FFFFC00000
FFFFC00000
FFFFC00000
FFFFC00000
FFFFC00000
FFFFC00000
ENDCHAR
STARTCHAR 258e
ENCODING 9614
SWIDTH 4320 0
DWIDTH 36 0
BBX 36 36 0 0
BITMAP
FF80000000
FF80000000
FF80000000
FF80000000
FF80000000
FF80000000
FF80000000
FF80000000
FF80000000
FF80000000
FF80000000
FF80000000
FF80000000
FF80000000
FF80000000
FF80000000
FF80000000
FF80000000
FF80000000
FF80000000
FF80000000
FF80000000
FF80000000
FF80000000
FF80000000
FF80000000
FF80000000
FF80000000
FF80000000
FF80000000
FF80000000
FF80000000
FF80000000
FF80000000
FF80000000
FF80000000
ENDCHAR
STARTCHAR 258f
ENCODING 9615
SWIDTH 4320 0
DWIDTH 36 0
BBX 36 36 0 0
BITMAP
F800000000
F800000000
F800000000
F800000000
F800000000
F800000000
F800000000
F800000000
F800000000
F800000000
F800000000
F800000000
F800000000
F800000000
F800000000
F800000000
F800000000
F800000000
F800000000
F800000000
F800000000
F800000000
F800000000
F800000000
F800000000
F800000000
F800000000
F800000000
F800000000
F800000000
F800000000
F800000000
F800000000
F800000000
F800000000
F800000000
ENDCHAR
STARTCHAR 2590
ENCODING 9616
SWIDTH 4320 0
DWIDTH 36 0
BBX 36 36 0 0
BITMAP
00003FFFF0
00003FFFF0
00003FFFF0
00003FFFF0
00003FFFF0
00003FFFF0
00003FFFF0
00003FFFF0
00003FFFF0
00003FFFF0
00003FFFF0
00003FFFF0
00003FFFF0
00003FFFF0
00003FFFF0
00003FFFF0
00003FFFF0
00003FFFF0
00003FFFF0
00003FFFF0
00003FFFF0
00003FFFF0
00003FFFF0
00003FFFF0
00003FFFF0
00003FFFF0
00003FFFF0
00003FFFF0
00003FFFF0
00003FFFF0
00003FFFF0
00003FFFF0
00003FFFF0
00003FFFF0
00003FFFF0
00003FFFF0
ENDCHAR
STARTCHAR 2591
ENCODING 9617
SWIDTH 4320 0
DWIDTH 36 0
BBX 36 36 0 0
BITMAP
0F87C3E1F0
0F87C3E1F0
0F87C3E1F0
0F87C3E1F0
FFFFFFFFF0
F87C3E1F00
F87C3E1F00
F87C3E1F00
F87C3E1F00
0F87C3E1F0
0F87C3E1F0
0F87C3E1F0
0F87C3E1F0
FFFFFFFFF0
F87C3E1F00
F87C3E1F00
F87C3E1F00
F87C3E1F00
0F87C3E1F0
0F87C3E1F0
0F87C3E1F0
0F87C3E1F0
FFFFFFFFF0
F87C3E1F00
F87C3E1F00
F87C3E1F00
F87C3E1F00
0F87C3E1F0
0F87C3E1F0
0F87C3E1F0
0F87C3E1F0
FFFFFFFFF0
F87C3E1F00
F87C3E1F00
F87C3E1F00
F87C3E1F00
ENDCHAR
STARTCHAR 2592
ENCODING 9618
SWIDTH 4320 0
DWIDTH 36 0
BBX 36 36 0 0
BITMAP
F87C3E1F00
F87C3E1F00
F87C3E1F00
F87C3E1F00
FFFFFFFFF0
0F87C3E1F0
0F87C3E1F0
0F87C3E1F0
0F87C3E1F0
F87C3E1F00
F87C3E1F00
F87C3E1F00
F87C3E1F00
FFFFFFFFF0
0F87C3E1F0
0F87C3E1F0
0F87C3E1F0
0F87C3E1F0
F87C3E1F00
F87C3E1F00
F87C3E1F00
F87C3E1F00
FFFFFFFFF0
0F87C3E1F0
0F87C3E1F0
0F87C3E1F0
0F87C3E1F0
F87C3E1F00
F87C3E1F00
F87C3E1F00
F87C3E1F00
FFFFFFFFF0
0F87C3E1F0
0F87C3E1F0
0F87C3E1F0
0F87C3E1F0
ENDCHAR
STARTCHAR 2593
ENCODING 9619
SWIDTH 4320 0
DWIDTH 36 0
BBX 36 36 0 0
BITMAP
F87C000000
F87C000000
F87C000000
F87C000000
FFFFC00000
0F87C00000
0F87C00000
0F87C00000
0F87C00000
F87C000000
F87C000000
F87C000000
F87C000000
FFFFC00000
0F87C00000
0F87C00000
0F87C00000
0F87C00000
F87C000000
F87C000000
F87C000000
F87C000000
FFFFC00000
0F87C00000
0F87C00000
0F87C00000
0F87C00000
F87C000000
F87C000000
F87C000000
F87C000000
FFFFC00000
0F87C00000
0F87C00000
0F87C00000
0F87C00000
ENDCHAR
STARTCHAR 2595
ENCODING 9621
SWIDTH 4320 0
DWIDTH 36 0
BBX 36 36 0 0
BITMAP
00000001F0
00000001F0
00000001F0
00000001F0
00000001F0
00000001F0
00000001F0
00000001F0
00000001F0
00000001F0
00000001F0
00000001F0
00000001F0
00000001F0
00000001F0
00000001F0
00000001F0
00000001F0
00000001F0
00000001F0
00000001F0
00000001F0
00000001F0
00000001F0
00000001F0
00000001F0
00000001F0
00000001F0
00000001F0
00000001F0
00000001F0
00000001F0
00000001F0
00000001F0
00000001F0
00000001F0
ENDCHAR
STARTCHAR 259a
ENCODING 9626
SWIDTH 4320 0
DWIDTH 36 0
BBX 36 36 0 0
BITMAP
FFFFC00000
FFFFC00000
FFFFC00000
FFFFC00000
FFFFC00000
FFFFC00000
FFFFC00000
FFFFC00000
FFFFC00000
FFFFC00000
FFFFC00000
FFFFC00000
FFFFC00000
FFFFC00000
FFFFC00000
FFFFC00000
FFFFC00000
FFFFC00000
00003FFFF0
00003FFFF0
00003FFFF0
00003FFFF0
00003FFFF0
00003FFFF0
00003FFFF0
00003FFFF0
00003FFFF0
00003FFFF0
00003FFFF0
00003FFFF0
00003FFFF0
00003FFFF0
00003FFFF0
00003FFFF0
00003FFFF0
00003FFFF0
ENDCHAR
STARTCHAR 259e
ENCODING 9630
SWIDTH 4320 0
DWIDTH 36 0
BBX 36 36 0 0
BITMAP
00003FFFF0
00003FFFF0
00003FFFF0
00003FFFF0
00003FFFF0
00003FFFF0
00003FFFF0
00003FFFF0
00003FFFF0
00003FFFF0
00003FFFF0
00003FFFF0
00003FFFF0
00003FFFF0
00003FFFF0
00003FFFF0
00003FFFF0
00003FFFF0
FFFFC00000
FFFFC00000
FFFFC00000
FFFFC00000
FFFFC00000
FFFFC00000
FFFFC00000
FFFFC00000
FFFFC00000
FFFFC00000
FFFFC00000
FFFFC00000
FFFFC00000
FFFFC00000
FFFFC00000
FFFFC00000
FFFFC00000
FFFFC00000
ENDCHAR
STARTCHAR 25a0
ENCODING 9632
SWIDTH 4320 0
DWIDTH 36 0
BBX 36 36 0 0
BITMAP
FFFFFFFFF0
FFFFFFFFF0
FFFFFFFFF0
FFFFFFFFF0
FFFFFFFFF0
FFFFFFFFF0
FFFFFFFFF0
FFFFFFFFF0
FFFFFFFFF0
FFFFFFFFF0
FFFFFFFFF0
FFFFFFFFF0
FFFFFFFFF0
FFFFFFFFF0
FFFFFFFFF0
FFFFFFFFF0
FFFFFFFFF0
FFFFFFFFF0
FFFFFFFFF0
FFFFFFFFF0
FFFFFFFFF0
FFFFFFFFF0
FFFFFFFFF0
FFFFFFFFF0
FFFFFFFFF0
FFFFFFFFF0
FFFFFFFFF0
FFFFFFFFF0
FFFFFFFFF0
FFFFFFFFF0
FFFFFFFFF0
FFFFFFFFF0
FFFFFFFFF0
FFFFFFFFF0
FFFFFFFFF0
FFFFFFFFF0
ENDCHAR
STARTCHAR 25bd
ENCODING 9661
SWIDTH 4320 0
DWIDTH 36 0
BBX 36 36 0 0
BITMAP
FFFFFFFFF0
FFFFFFFFF0
FFFFFFFFF0
FFFFFFFFF0
FFFFFFFFF0
FFFFFFFFF0
FFFFFFFFF0
FFFFFFFFF0
FFFFFFFFF0
0000000000
0000000000
0000000000
0000000000
0000000000
0000000000
0000000000
0000000000
0000000000
0000000000
0000000000
0000000000
0000000000
0000000000
0000000000
0000000000
0000000000
0000000000
0000000000
0000000000
0000000000
0000000000
0000000000
0000000000
0000000000
0000000000
0000000000
ENDCHAR
STARTCHAR 25c0
ENCODING 9664
SWIDTH 4320 0
DWIDTH 36 0
BBX 36 36 0 0
BITMAP
000003FFF0
000003FFF0
000003FFF0
000003FFF0
000003FFF0
000003FFF0
000003FFF0
000003FFF0
000003FFF0
000003FFF0
000003FFF0
000003FFF0
000003FFF0
000003FFF0
000003FFF0
000003FFF0
000003FFF0
000003FFF0
000003FFF0
000003FFF0
000003FFF0
000003FFF0
000003FFF0
000003FFF0
000003FFF0
000003FFF0
000003FFF0
000003FFF0
000003FFF0
000003FFF0
000003FFF0
000003FFF0
000003FFF0
000003FFF0
000003FFF0
000003FFF0
ENDCHAR
STARTCHAR 25c1
ENCODING 9665
SWIDTH 4320 0
DWIDTH 36 0
BBX 36 36 0 0
BITMAP
0000001FF0
0000001FF0
0000001FF0
0000001FF0
0000001FF0
0000001FF0
0000001FF0
0000001FF0
0000001FF0
0000001FF0
0000001FF0
0000001FF0
0000001FF0
0000001FF0
0000001FF0
0000001FF0
0000001FF0
0000001FF0
0000001FF0
0000001FF0
0000001FF0
0000001FF0
0000001FF0
0000001FF0
0000001FF0
0000001FF0
0000001FF0
0000001FF0
0000001FF0
0000001FF0
0000001FF0
0000001FF0
0000001FF0
0000001FF0
0000001FF0
0000001FF0
ENDCHAR
STARTCHAR 25cb
ENCODING 9675
SWIDTH 4320 0
DWIDTH 36 0
BBX 36 36 0 0
BITMAP
0000000000
0000000000
0000000000
0000000000
007FFFE000
007FFFE000
007FFFE000
007FFFE000
007FFFE000
0F80001F00
0F80001F00
0F80001F00
0F80001F00
0F80001F00
0F80001F00
0F80001F00
0F80001F00
0F80001F00
0F80001F00
0F80001F00
0F80001F00
0F80001F00
0F80001F00
0F80001F00
0F80001F00
0F80001F00
0F80001F00
007FFFE000
007FFFE000
007FFFE000
007FFFE000
007FFFE000
0000000000
0000000000
0000000000
0000000000
ENDCHAR
STARTCHAR 25ce
ENCODING 9678
SWIDTH 4320 0
DWIDTH 36 0
BBX 36 36 0 0
BITMAP
FFFFFFFFF0
FFFFFFFFF0
FFFFFFFFF0
FFFFFFFFF0
FFFFFFFFF0
FF80001FF0
FF80001FF0
FF80001FF0
FF80001FF0
F8000001F0
F8000001F0
F8000001F0
F8000001F0
F8000001F0
F8000001F0
F8000001F0
F8000001F0
F8000001F0
F8000001F0
F8000001F0
F8000001F0
F8000001F0
F8000001F0
F8000001F0
F8000001F0
F8000001F0
F8000001F0
FF80001FF0
FF80001FF0
FF80001FF0
FF80001FF0
FFFFFFFFF0
FFFFFFFFF0
FFFFFFFFF0
FFFFFFFFF0
FFFFFFFFF0
ENDCHAR
STARTCHAR 25cf
ENCODING 9679
SWIDTH 4320 0
DWIDTH 36 0
BBX 36 36 0 0
BITMAP
0000000000
0000000000
0000000000
0000000000
007FFFE000
007FFFE000
007FFFE000
007FFFE000
007FFFE000
0FFFFFFF00
0FFFFFFF00
0FFFFFFF00
0FFFFFFF00
0FFFFFFF00
0FFFFFFF00
0FFFFFFF00
0FFFFFFF00
0FFFFFFF00
0FFFFFFF00
0FFFFFFF00
0FFFFFFF00
0FFFFFFF00
0FFFFFFF00
0FFFFFFF00
0FFFFFFF00
0FFFFFFF00
0FFFFFFF00
007FFFE000
007FFFE000
007FFFE000
007FFFE000
007FFFE000
0000000000
0000000000
0000000000
0000000000
ENDCHAR
STARTCHAR 25e2
ENCODING 9698
SWIDTH 4320 0
DWIDTH 36 0
BBX 36 36 0 0
BITMAP
00000001F0
00000001F0
00000001F0
00000001F0
0000001FF0
0000001FF0
0000001FF0
0000001FF0
0000001FF0
000003FFF0
000003FFF0
000003FFF0
000003FFF0
00003FFFF0
00003FFFF0
00003FFFF0
00003FFFF0
00003FFFF0
0007FFFFF0
0007FFFFF0
0007FFFFF0
0007FFFFF0
007FFFFFF0
007FFFFFF0
007FFFFFF0
007FFFFFF0
007FFFFFF0
0FFFFFFFF0
0FFFFFFFF0
0FFFFFFFF0
0FFFFFFFF0
FFFFFFFFF0
FFFFFFFFF0
FFFFFFFFF0
FFFFFFFFF0
FFFFFFFFF0
ENDCHAR
STARTCHAR 25e3
ENCODING 9699
SWIDTH 4320 0
DWIDTH 36 0
BBX 36 36 0 0
BITMAP
F800000000
F800000000
F800000000
F800000000
FF80000000
FF80000000
FF80000000
FF80000000
FF80000000
FFFC000000
FFFC000000
FFFC000000
FFFC000000
FFFFC00000
FFFFC00000
FFFFC00000
FFFFC00000
FFFFC00000
FFFFFE0000
FFFFFE0000
FFFFFE0000
FFFFFE0000
FFFFFFE000
FFFFFFE000
FFFFFFE000
FFFFFFE000
FFFFFFE000
FFFFFFFF00
FFFFFFFF00
FFFFFFFF00
FFFFFFFF00
FFFFFFFFF0
FFFFFFFFF0
FFFFFFFFF0
FFFFFFFFF0
FFFFFFFFF0
ENDCHAR
STARTCHAR 25e4
ENCODING 9700
SWIDTH 4320 0
DWIDTH 36 0
BBX 36 36 0 0
BITMAP
FFFFFFFFF0
FFFFFFFFF0
FFFFFFFFF0
FFFFFFFFF0
FFFFFFFFF0
FFFFFFFF00
FFFFFFFF00
FFFFFFFF00
FFFFFFFF00
FFFFFFE000
FFFFFFE000
FFFFFFE000
FFFFFFE000
FFFFFFE000
FFFFFE0000
FFFFFE0000
FFFFFE0000
FFFFFE0000
FFFFC00000
FFFFC00000
FFFFC00000
FFFFC00000
FFFFC00000
FFFC000000
FFFC000000
FFFC000000
FFFC000000
FF80000000
FF80000000
FF80000000
FF80000000
FF80000000
F800000000
F800000000
F800000000
F800000000
ENDCHAR
STARTCHAR 25e5
ENCODING 9701
SWIDTH 4320 0
DWIDTH 36 0
BBX 36 36 0 0
BITMAP
FFFFFFFFF0
FFFFFFFFF0
FFFFFFFFF0
FFFFFFFFF0
FFFFFFFFF0
0FFFFFFFF0
0FFFFFFFF0
0FFFFFFFF0
0FFFFFFFF0
007FFFFFF0
007FFFFFF0
007FFFFFF0
007FFFFFF0
007FFFFFF0
0007FFFFF0
0007FFFFF0
0007FFFFF0
0007FFFFF0
00003FFFF0
00003FFFF0
00003FFFF0
00003FFFF0
00003FFFF0
000003FFF0
000003FFF0
000003FFF0
000003FFF0
0000001FF0
0000001FF0
0000001FF0
0000001FF0
0000001FF0
00000001F0
00000001F0
00000001F0
00000001F0
ENDCHAR
STARTCHAR 263a
ENCODING 9786
SWIDTH 4320 0
DWIDTH 36 0
BBX 36 36 0 0
BITMAP
007FFFE000
007FFFE000
007FFFE000
007FFFE000
0FFFFFFF00
0F80001F00
0F80001F00
0F80001F00
0F80001F00
F8000001F0
F8000001F0
F8000001F0
F8000001F0
F87C03E1F0
F87C03E1F0
F87C03E1F0
F87C03E1F0
F87C03E1F0
F8000001F0
F8000001F0
F8000001F0
F8000001F0
F807FE01F0
F807FE01F0
F807FE01F0
F807FE01F0
F807FE01F0
0F80001F00
0F80001F00
0F80001F00
0F80001F00
0FFFFFFF00
007FFFE000
007FFFE000
007FFFE000
007FFFE000
ENDCHAR
STARTCHAR 263b
ENCODING 9787
SWIDTH 4320 0
DWIDTH 36 0
BBX 36 36 0 0
BITMAP
007FFFE000
007FFFE000
007FFFE000
007FFFE000
0FFFFFFF00
0FFFFFFF00
0FFFFFFF00
0FFFFFFF00
0FFFFFFF00
FFFFFFFFF0
FFFFFFFFF0
FFFFFFFFF0
FFFFFFFFF0
FFFFFFFFF0
FF87FE1FF0
FF87FE1FF0
FF87FE1FF0
FF87FE1FF0
FFFFFFFFF0
FFFFFFFFF0
FFFFFFFFF0
FFFFFFFFF0
FFFFFFFFF0
FFFC03FFF0
FFFC03FFF0
FFFC03FFF0
FFFC03FFF0
0FFFFFFF00
0FFFFFFF00
0FFFFFFF00
0FFFFFFF00
0FFFFFFF00
007FFFE000
007FFFE000
007FFFE000
007FFFE000
ENDCHAR
STARTCHAR 2660
ENCODING 9824
SWIDTH 4320 0
DWIDTH 36 0
BBX 36 36 0 0
BITMAP
00003E0000
00003E0000
00003E0000
00003E0000
0007FFE000
0007FFE000
0007FFE000
0007FFE000
0007FFE000
007FFFFF00
007FFFFF00
007FFFFF00
007FFFFF00
0FFFFFFFF0
0FFFFFFFF0
0FFFFFFFF0
0FFFFFFFF0
0FFFFFFFF0
0FFFFFFFF0
0FFFFFFFF0
0FFFFFFFF0
0FFFFFFFF0
0FFFFFFFF0
0007FFE000
0007FFE000
0007FFE000
0007FFE000
007FFFFF00
007FFFFF00
007FFFFF00
007FFFFF00
007FFFFF00
0000000000
0000000000
0000000000
0000000000
ENDCHAR
STARTCHAR 2663
ENCODING 9827
SWIDTH 4320 0
DWIDTH 36 0
BBX 36 36 0 0
BITMAP
00003E0000
00003E0000
00003E0000
00003E0000
0007FFE000
0007FFE000
0007FFE000
0007FFE000
0007FFE000
007C3E1F00
007C3E1F00
007C3E1F00
007C3E1F00
0FFFFFFFF0
0FFFFFFFF0
0FFFFFFFF0
0FFFFFFFF0
0FFFFFFFF0
007C3E1F00
007C3E1F00
007C3E1F00
007C3E1F00
007C3E1F00
00003E0000
00003E0000
00003E0000
00003E0000
00003E0000
00003E0000
00003E0000
00003E0000
00003E0000
0000000000
0000000000
0000000000
0000000000
ENDCHAR
STARTCHAR 2665
ENCODING 9829
SWIDTH 4320 0
DWIDTH 36 0
BBX 36 36 0 0
BITMAP
007FC3FF00
007FC3FF00
007FC3FF00
007FC3FF00
0FFFFFFFF0
0FFFFFFFF0
0FFFFFFFF0
0FFFFFFFF0
0FFFFFFFF0
0FFFFFFFF0
0FFFFFFFF0
0FFFFFFFF0
0FFFFFFFF0
0FFFFFFFF0
0FFFFFFFF0
0FFFFFFFF0
0FFFFFFFF0
0FFFFFFFF0
007FFFFF00
007FFFFF00
007FFFFF00
007FFFFF00
007FFFFF00
0007FFE000
0007FFE000
0007FFE000
0007FFE000
00003E0000
00003E0000
00003E0000
00003E0000
00003E0000
0000000000
0000000000
0000000000
0000000000
ENDCHAR
STARTCHAR 2666
ENCODING 9830
SWIDTH 4320 0
DWIDTH 36 0
BBX 36 36 0 0
BITMAP
00003E0000
00003E0000
00003E0000
00003E0000
0007FFE000
0007FFE000
0007FFE000
0007FFE000
0007FFE000
007FFFFF00
007FFFFF00
007FFFFF00
007FFFFF00
0FFFFFFFF0
0FFFFFFFF0
0FFFFFFFF0
0FFFFFFFF0
0FFFFFFFF0
007FFFFF00
007FFFFF00
007FFFFF00
007FFFFF00
007FFFFF00
0007FFE000
0007FFE000
0007FFE000
0007FFE000
00003E0000
00003E0000
00003E0000
00003E0000
00003E0000
0000000000
0000000000
0000000000
0000000000
ENDCHAR
STARTCHAR 3001
ENCODING 12289
SWIDTH 4320 0
DWIDTH 36 0
BBX 36 36 0 0
BITMAP
0000000000
0000000000
0000000000
0000000000
0000000000
0000000000
0000000000
0000000000
0000000000
0000000000
0000000000
0000000000
0000000000
0000000000
0000000000
0000000000
0000000000
0000000000
0F80000000
0F80000000
0F80000000
0F80000000
0FFC000000
007C000000
007C000000
007C000000
007C000000
0007C00000
0007C00000
0007C00000
0007C00000
0007C00000
0000000000
0000000000
0000000000
0000000000
ENDCHAR
STARTCHAR 3002
ENCODING 12290
SWIDTH 4320 0
DWIDTH 36 0
BBX 36 36 0 0
BITMAP
0000000000
0000000000
0000000000
0000000000
0000000000
0000000000
0000000000
0000000000
0000000000
0000000000
0000000000
0000000000
0000000000
0000000000
0000000000
0000000000
0000000000
0000000000
0FFFC00000
0FFFC00000
0FFFC00000
0FFFC00000
0FFFC00000
0F87C00000
0F87C00000
0F87C00000
0F87C00000
0FFFC00000
0FFFC00000
0FFFC00000
0FFFC00000
0FFFC00000
0000000000
0000000000
0000000000
0000000000
ENDCHAR
STARTCHAR 300c
ENCODING 12300
SWIDTH 4320 0
DWIDTH 36 0
BBX 36 36 0 0
BITMAP
0007FFFF00
0007FFFF00
0007FFFF00
0007FFFF00
0007FFFF00
0007C00000
0007C00000
0007C00000
0007C00000
0007C00000
0007C00000
0007C00000
0007C00000
0007C00000
0007C00000
0007C00000
0007C00000
0007C00000
0000000000
0000000000
0000000000
0000000000
0000000000
0000000000
0000000000
0000000000
0000000000
0000000000
0000000000
0000000000
0000000000
0000000000
0000000000
0000000000
0000000000
0000000000
ENDCHAR
STARTCHAR 300d
ENCODING 12301
SWIDTH 4320 0
DWIDTH 36 0
BBX 36 36 0 0
BITMAP
0000000000
0000000000
0000000000
0000000000
0000000000
0000000000
0000000000
0000000000
0000000000
0000000000
0000000000
0000000000
0000000000
00003E0000
00003E0000
00003E0000
00003E0000
00003E0000
00003E0000
00003E0000
00003E0000
00003E0000
00003E0000
00003E0000
00003E0000
00003E0000
00003E0000
0FFFFE0000
0FFFFE0000
0FFFFE0000
0FFFFE0000
0FFFFE0000
0000000000
0000000000
0000000000
0000000000
ENDCHAR
STARTCHAR 300e
ENCODING 12302
SWIDTH 4320 0
DWIDTH 36 0
BBX 36 36 0 0
BITMAP
0007FFFF00
0007FFFF00
0007FFFF00
0007FFFF00
0007FFFF00
0007C00000
0007C00000
0007C00000
0007C00000
0007C00000
0007C00000
0007C00000
0007C00000
0007C00000
0007C00000
0007C00000
0007C00000
0007C00000
0000000000
0000000000
0000000000
0000000000
0000000000
0000000000
0000000000
0000000000
0000000000
0000000000
0000000000
0000000000
0000000000
0000000000
0000000000
0000000000
0000000000
0000000000
ENDCHAR
STARTCHAR 300f
ENCODING 12303
SWIDTH 4320 0
DWIDTH 36 0
BBX 36 36 0 0
BITMAP
0000000000
0000000000
0000000000
0000000000
0000000000
0000000000
0000000000
0000000000
0000000000
0000000000
0000000000
0000000000
0000000000
0000000000
0000000000
0000000000
0000000000
0000000000
00003E0000
00003E0000
00003E0000
00003E0000
00003E0000
00003E0000
00003E0000
00003E0000
00003E0000
00003E0000
00003E0000
00003E0000
00003E0000
0FFFFE0000
0FFFFE0000
0FFFFE0000
0FFFFE0000
0FFFFE0000
ENDCHAR
STARTCHAR 301d
ENCODING 12317
SWIDTH 4320 0
DWIDTH 36 0
BBX 36 36 0 0
BITMAP
007C000000
007C000000
007C000000
007C000000
F87FC00000
F807C00000
F807C00000
F807C00000
F807C00000
0F80000000
0F80000000
0F80000000
0F80000000
0F80000000
0000000000
0000000000
0000000000
0000000000
0000000000
0000000000
0000000000
0000000000
0000000000
0000000000
0000000000
0000000000
0000000000
0000000000
0000000000
0000000000
0000000000
0000000000
0000000000
0000000000
0000000000
0000000000
ENDCHAR
STARTCHAR 3041
ENCODING 12353
SWIDTH 4320 0
DWIDTH 36 0
BBX 36 36 0 0
BITMAP
0000000000
0000000000
0000000000
0000000000
007C000000
007C000000
007C000000
007C000000
007C000000
0FFFC00000
0FFFC00000
0FFFC00000
0FFFC00000
0FFFC00000
007C000000
007C000000
007C000000
007C000000
0FFFFE0000
0FFFFE0000
0FFFFE0000
0FFFFE0000
FFFFFFE000
F807C3E000
F807C3E000
F807C3E000
F807C3E000
0FFC3E0000
0FFC3E0000
0FFC3E0000
0FFC3E0000
0FFC3E0000
0000000000
0000000000
0000000000
0000000000
ENDCHAR
STARTCHAR 3042
ENCODING 12354
SWIDTH 4320 0
DWIDTH 36 0
BBX 36 36 0 0
BITMAP
007C000000
007C000000
007C000000
007C000000
FFFFFFE000
FFFFFFE000
FFFFFFE000
FFFFFFE000
FFFFFFE000
007C000000
007C000000
007C000000
007C000000
0FFFFFE000
0FFFFFE000
0FFFFFE000
0FFFFFE000
0FFFFFE000
F87C3E1F00
F87C3E1F00
F87C3E1F00
F87C3E1F00
F87FFE1F00
F807C01F00
F807C01F00
F807C01F00
F807C01F00
0FFC03E000
0FFC03E000
0FFC03E000
0FFC03E000
0FFC03E000
0000000000
0000000000
0000000000
0000000000
ENDCHAR
STARTCHAR 3043
ENCODING 12355
SWIDTH 4320 0
DWIDTH 36 0
BBX 36 36 0 0
BITMAP
0000000000
0000000000
0000000000
0000000000
0000000000
0000000000
0000000000
0000000000
0000000000
0F803E0000
0F803E0000
0F803E0000
0F803E0000
0F803FE000
0F8003E000
0F8003E000
0F8003E000
0F8003E000
0F8003E000
0F8003E000
0F8003E000
0F8003E000
0F8003E000
0F8003E000
0F8003E000
0F8003E000
0F8003E000
007C000000
007C000000
007C000000
007C000000
007C000000
0000000000
0000000000
0000000000
0000000000
ENDCHAR
STARTCHAR 3044
ENCODING 12356
SWIDTH 4320 0
DWIDTH 36 0
BBX 36 36 0 0
BITMAP
F80003E000
F80003E000
F80003E000
F80003E000
F80003FF00
F800001F00
F800001F00
F800001F00
F800001F00
F800001F00
F800001F00
F800001F00
F800001F00
F800001F00
F800001F00
F800001F00
F800001F00
F800001F00
F800001F00
F800001F00
F800001F00
F800001F00
F807C01F00
F807C00000
F807C00000
F807C00000
F807C00000
0FFC000000
0FFC000000
0FFC000000
0FFC000000
0FFC000000
0000000000
0000000000
0000000000
0000000000
ENDCHAR
STARTCHAR 3045
ENCODING 12357
SWIDTH 4320 0
DWIDTH 36 0
BBX 36 36 0 0
BITMAP
0000000000
0000000000
0000000000
0000000000
007C000000
007C000000
007C000000
007C000000
007C000000
0000000000
0000000000
0000000000
0000000000
0FFFFE0000
0FFFFE0000
0FFFFE0000
0FFFFE0000
0FFFFE0000
000003E000
000003E000
000003E000
000003E000
000003E000
000003E000
000003E000
000003E000
000003E000
00003E0000
00003E0000
00003E0000
00003E0000
00003E0000
0000000000
0000000000
0000000000
0000000000
ENDCHAR
STARTCHAR 3046
ENCODING 12358
SWIDTH 4320 0
DWIDTH 36 0
BBX 36 36 0 0
BITMAP
0007FE0000
0007FE0000
0007FE0000
0007FE0000
0007FE0000
0000000000
0000000000
0000000000
0000000000
007FFFE000
007FFFE000
007FFFE000
007FFFE000
0FFFFFFF00
0F80001F00
0F80001F00
0F80001F00
0F80001F00
0000001F00
0000001F00
0000001F00
0000001F00
000003FF00
000003E000
000003E000
000003E000
000003E000
00003E0000
00003E0000
00003E0000
00003E0000
00003E0000
0000000000
0000000000
0000000000
0000000000
ENDCHAR
STARTCHAR 3047
ENCODING 12359
SWIDTH 4320 0
DWIDTH 36 0
BBX 36 36 0 0
BITMAP
0000000000
0000000000
0000000000
0000000000
007C000000
007C000000
007C000000
007C000000
007C000000
0000000000
0000000000
0000000000
0000000000
0FFFFE0000
0FFFFE0000
0FFFFE0000
0FFFFE0000
0FFFFE0000
0007C00000
0007C00000
0007C00000
0007C00000
007FC00000
007FC00000
007FC00000
007FC00000
007FC00000
0F803FE000
0F803FE000
0F803FE000
0F803FE000
0F803FE000
0000000000
0000000000
0000000000
0000000000
ENDCHAR
STARTCHAR 3048
ENCODING 12360
SWIDTH 4320 0
DWIDTH 36 0
BBX 36 36 0 0
BITMAP
0007C00000
0007C00000
0007C00000
0007C00000
0007C00000
0000000000
0000000000
0000000000
0000000000
0FFFFFE000
0FFFFFE000
0FFFFFE000
0FFFFFE000
0FFFFFE000
00003E0000
00003E0000
00003E0000
00003E0000
0007C00000
0007C00000
0007C00000
0007C00000
007FFE0000
007C3E0000
007C3E0000
007C3E0000
007C3E0000
0F8003FF00
0F8003FF00
0F8003FF00
0F8003FF00
0F8003FF00
0000000000
0000000000
0000000000
0000000000
ENDCHAR
STARTCHAR 3049
ENCODING 12361
SWIDTH 4320 0
DWIDTH 36 0
BBX 36 36 0 0
BITMAP
0000000000
0000000000
0000000000
0000000000
007C000000
007C000000
007C000000
007C000000
007C000000
0FFFC3E000
0FFFC3E000
0FFFC3E000
0FFFC3E000
0FFFC3E000
007C000000
007C000000
007C000000
007C000000
0FFFFE0000
0FFFFE0000
0FFFFE0000
0FFFFE0000
FFFFFFE000
F87C03E000
F87C03E000
F87C03E000
F87C03E000
0FFC3E0000
0FFC3E0000
0FFC3E0000
0FFC3E0000
0FFC3E0000
0000000000
0000000000
0000000000
0000000000
ENDCHAR
STARTCHAR 304a
ENCODING 12362
SWIDTH 4320 0
DWIDTH 36 0
BBX 36 36 0 0
BITMAP
007C000000
007C000000
007C000000
007C000000
FFFFFFE1F0
FFFFFFE1F0
FFFFFFE1F0
FFFFFFE1F0
FFFFFFE1F0
007C0001F0
007C0001F0
007C0001F0
007C0001F0
0FFFFFE1F0
0FFFFFE000
0FFFFFE000
0FFFFFE000
0FFFFFE000
F87C001F00
F87C001F00
F87C001F00
F87C001F00
F87C001F00
F87C001F00
F87C001F00
F87C001F00
F87C001F00
0FFC03E000
0FFC03E000
0FFC03E000
0FFC03E000
0FFC03E000
0000000000
0000000000
0000000000
0000000000
ENDCHAR
STARTCHAR 304b
ENCODING 12363
SWIDTH 4320 0
DWIDTH 36 0
BBX 36 36 0 0
BITMAP
007C001F00
007C001F00
007C001F00
007C001F00
FFFFFE1FF0
FFFFFE01F0
FFFFFE01F0
FFFFFE01F0
FFFFFE01F0
007C03E1F0
007C03E1F0
007C03E1F0
007C03E1F0
007C03E1F0
007C03E000
007C03E000
007C03E000
007C03E000
007C03E000
007C03E000
007C03E000
007C03E000
007C03E000
007C03E000
007C03E000
007C03E000
007C03E000
0F803E0000
0F803E0000
0F803E0000
0F803E0000
0F803E0000
0000000000
0000000000
0000000000
0000000000
ENDCHAR
STARTCHAR 304d
ENCODING 12365
SWIDTH 4320 0
DWIDTH 36 0
BBX 36 36 0 0
BITMAP
0007C00000
0007C00000
0007C00000
0007C00000
0FFFFFFF00
0FFFFFFF00
0FFFFFFF00
0FFFFFFF00
0FFFFFFF00
00003E0000
00003E0000
00003E0000
00003E0000
0FFFFFFF00
0FFFFFFF00
0FFFFFFF00
0FFFFFFF00
0FFFFFFF00
000003E000
000003E000
000003E000
000003E000
000003FF00
0000001F00
0000001F00
0000001F00
0000001F00
0FFC000000
0FFC000000
0FFC000000
0FFC000000
0FFFFE0000
0007FE0000
0007FE0000
0007FE0000
0007FE0000
ENDCHAR
STARTCHAR 304f
ENCODING 12367
SWIDTH 4320 0
DWIDTH 36 0
BBX 36 36 0 0
BITMAP
00003FE000
00003FE000
00003FE000
00003FE000
0007FFE000
0007FE0000
0007FE0000
0007FE0000
0007FE0000
007FC00000
007FC00000
007FC00000
007FC00000
0FFFC00000
0FFC000000
0FFC000000
0FFC000000
0FFC000000
007FC00000
007FC00000
007FC00000
007FC00000
007FFE0000
0007FE0000
0007FE0000
0007FE0000
0007FE0000
00003FE000
00003FE000
00003FE000
00003FE000
00003FE000
0000000000
0000000000
0000000000
0000000000
ENDCHAR
STARTCHAR 3051
ENCODING 12369
SWIDTH 4320 0
DWIDTH 36 0
BBX 36 36 0 0
BITMAP
F80003E000
F80003E000
F80003E000
F80003E000
F87FFFFF00
F87FFFFF00
F87FFFFF00
F87FFFFF00
F87FFFFF00
F80003E000
F80003E000
F80003E000
F80003E000
F80003E000
F80003E000
F80003E000
F80003E000
F80003E000
F80003E000
F80003E000
F80003E000
F80003E000
F80003E000
F80003E000
F80003E000
F80003E000
F80003E000
0F803E0000
0F803E0000
0F803E0000
0F803E0000
0F803E0000
0000000000
0000000000
0000000000
0000000000
ENDCHAR
STARTCHAR 3053
ENCODING 12371
SWIDTH 4320 0
DWIDTH 36 0
BBX 36 36 0 0
BITMAP
0000000000
0000000000
0000000000
0000000000
FFFFFFE000
FFFFFFE000
FFFFFFE000
FFFFFFE000
FFFFFFE000
0000001F00
0000001F00
0000001F00
0000001F00
0000001F00
0000000000
0000000000
0000000000
0000000000
0000000000
0000000000
0000000000
0000000000
F800000000
F800000000
F800000000
F800000000
F800000000
0FFFFFFF00
0FFFFFFF00
0FFFFFFF00
0FFFFFFF00
0FFFFFFF00
0000000000
0000000000
0000000000
0000000000
ENDCHAR
STARTCHAR 3055
ENCODING 12373
SWIDTH 4320 0
DWIDTH 36 0
BBX 36 36 0 0
BITMAP
007C000000
007C000000
007C000000
007C000000
FFFFFFFF00
FFFFFFFF00
FFFFFFFF00
FFFFFFFF00
FFFFFFFF00
0007C00000
0007C00000
0007C00000
0007C00000
0007FE0000
00003E0000
00003E0000
00003E0000
00003E0000
0F8003E000
0F8003E000
0F8003E000
0F8003E000
0FFC03E000
007C000000
007C000000
007C000000
007C000000
0007FE0000
0007FE0000
0007FE0000
0007FE0000
0007FE0000
0000000000
0000000000
0000000000
0000000000
ENDCHAR
STARTCHAR 3057
ENCODING 12375
SWIDTH 4320 0
DWIDTH 36 0
BBX 36 36 0 0
BITMAP
0F80000000
0F80000000
0F80000000
0F80000000
0F80000000
0F80000000
0F80000000
0F80000000
0F80000000
0F80000000
0F80000000
0F80000000
0F80000000
0F80000000
0F80000000
0F80000000
0F80000000
0F80000000
0F8003E000
0F8003E000
0F8003E000
0F8003E000
0F8003E000
0F8003E000
0F8003E000
0F8003E000
0F8003E000
007FFE0000
007FFE0000
007FFE0000
007FFE0000
007FFE0000
0000000000
0000000000
0000000000
0000000000
ENDCHAR
STARTCHAR 3059
ENCODING 12377
SWIDTH 4320 0
DWIDTH 36 0
BBX 36 36 0 0
BITMAP
00003E0000
00003E0000
00003E0000
00003E0000
FFFFFFFF00
FFFFFFFF00
FFFFFFFF00
FFFFFFFF00
FFFFFFFF00
00003E0000
00003E0000
00003E0000
00003E0000
007FFE0000
007FFE0000
007FFE0000
007FFE0000
007FFE0000
0F803E0000
0F803E0000
0F803E0000
0F803E0000
0FFFFE0000
007FFE0000
007FFE0000
007FFE0000
007FFE0000
00003E0000
00003E0000
00003E0000
00003E0000
0007FE0000
0007C00000
0007C00000
0007C00000
0007C00000
ENDCHAR
STARTCHAR 305b
ENCODING 12379
SWIDTH 4320 0
DWIDTH 36 0
BBX 36 36 0 0
BITMAP
0F8003E000
0F8003E000
0F8003E000
0F8003E000
0F8003E000
0F8003E000
0F8003E000
0F8003E000
0F8003E000
FFFFFFFF00
FFFFFFFF00
FFFFFFFF00
FFFFFFFF00
FFFFFFFF00
0F8003E000
0F8003E000
0F8003E000
0F8003E000
0F87FE0000
0F87FE0000
0F87FE0000
0F87FE0000
0F87FE0000
0F80000000
0F80000000
0F80000000
0F80000000
007FFFFF00
007FFFFF00
007FFFFF00
007FFFFF00
007FFFFF00
0000000000
0000000000
0000000000
0000000000
ENDCHAR
STARTCHAR 305d
ENCODING 12381
SWIDTH 4320 0
DWIDTH 36 0
BBX 36 36 0 0
BITMAP
007FFFE000
007FFFE000
007FFFE000
007FFFE000
007FFFE000
00003E0000
00003E0000
00003E0000
00003E0000
0007C00000
0007C00000
0007C00000
0007C00000
0FFFFFFF00
0FFFFFFF00
0FFFFFFF00
0FFFFFFF00
0FFFFFFF00
00003E0000
00003E0000
00003E0000
00003E0000
0007FE0000
0007C00000
0007C00000
0007C00000
0007C00000
00003FE000
00003FE000
00003FE000
00003FE000
00003FE000
0000000000
0000000000
0000000000
0000000000
ENDCHAR
STARTCHAR 305f
ENCODING 12383
SWIDTH 4320 0
DWIDTH 36 0
BBX 36 36 0 0
BITMAP
007C000000
007C000000
007C000000
007C000000
FFFFFFE000
FFFFFFE000
FFFFFFE000
FFFFFFE000
FFFFFFE000
0F80000000
0F80000000
0F80000000
0F80000000
0F87FFFF00
0F87FFFF00
0F87FFFF00
0F87FFFF00
0F87FFFF00
F800000000
F800000000
F800000000
F800000000
F87C000000
F87C000000
F87C000000
F87C000000
F87C000000
F87FFFFF00
F87FFFFF00
F87FFFFF00
F87FFFFF00
F87FFFFF00
0000000000
0000000000
0000000000
0000000000
ENDCHAR
STARTCHAR 3061
ENCODING 12385
SWIDTH 4320 0
DWIDTH 36 0
BBX 36 36 0 0
BITMAP
0007C00000
0007C00000
0007C00000
0007C00000
FFFFFFFF00
FFFFFFFF00
FFFFFFFF00
FFFFFFFF00
FFFFFFFF00
007C000000
007C000000
007C000000
007C000000
0FFFFFE000
0FFFFFE000
0FFFFFE000
0FFFFFE000
0FFFFFE000
0000001F00
0000001F00
0000001F00
0000001F00
0000001F00
0000001F00
0000001F00
0000001F00
0000001F00
FFFFFFE000
FFFFFFE000
FFFFFFE000
FFFFFFE000
FFFFFFE000
0000000000
0000000000
0000000000
0000000000
ENDCHAR
STARTCHAR 3063
ENCODING 12387
SWIDTH 4320 0
DWIDTH 36 0
BBX 36 36 0 0
BITMAP
0000000000
0000000000
0000000000
0000000000
0000000000
0000000000
0000000000
0000000000
0000000000
0000000000
0000000000
0000000000
0000000000
FFFFFE0000
FFFFFE0000
FFFFFE0000
FFFFFE0000
FFFFFE0000
000003E000
000003E000
000003E000
000003E000
000003E000
000003E000
000003E000
000003E000
000003E000
0007FE0000
0007FE0000
0007FE0000
0007FE0000
0007FE0000
0000000000
0000000000
0000000000
0000000000
ENDCHAR
STARTCHAR 3064
ENCODING 12388
SWIDTH 4320 0
DWIDTH 36 0
BBX 36 36 0 0
BITMAP
F800000000
F800000000
F800000000
F800000000
FFFFFFE000
0FFFFFE000
0FFFFFE000
0FFFFFE000
0FFFFFE000
0000001F00
0000001F00
0000001F00
0000001F00
0000001F00
0000001F00
0000001F00
0000001F00
0000001F00
0000001F00
0000001F00
0000001F00
0000001F00
000003FF00
000003E000
000003E000
000003E000
000003E000
0007FE0000
0007FE0000
0007FE0000
0007FE0000
0007FE0000
0000000000
0000000000
0000000000
0000000000
ENDCHAR
STARTCHAR 3066
ENCODING 12390
SWIDTH 4320 0
DWIDTH 36 0
BBX 36 36 0 0
BITMAP
FFFFFFFF00
FFFFFFFF00
FFFFFFFF00
FFFFFFFF00
FFFFFFFF00
000003E000
000003E000
000003E000
000003E000
00003E0000
00003E0000
00003E0000
00003E0000
0007FE0000
0007C00000
0007C00000
0007C00000
0007C00000
0007C00000
0007C00000
0007C00000
0007C00000
0007FE0000
00003E0000
00003E0000
00003E0000
00003E0000
000003E000
000003E000
000003E000
000003E000
000003E000
0000000000
0000000000
0000000000
0000000000
ENDCHAR
STARTCHAR 3068
ENCODING 12392
SWIDTH 4320 0
DWIDTH 36 0
BBX 36 36 0 0
BITMAP
007C000000
007C000000
007C000000
007C000000
007C001F00
007C001F00
007C001F00
007C001F00
007C001F00
007C3FE000
007C3FE000
007C3FE000
007C3FE000
007FFFE000
007FC00000
007FC00000
007FC00000
007FC00000
0F80000000
0F80000000
0F80000000
0F80000000
FF80000000
F800000000
F800000000
F800000000
F800000000
0FFFFFFF00
0FFFFFFF00
0FFFFFFF00
0FFFFFFF00
0FFFFFFF00
0000000000
0000000000
0000000000
0000000000
ENDCHAR
STARTCHAR 306a
ENCODING 12394
SWIDTH 4320 0
DWIDTH 36 0
BBX 36 36 0 0
BITMAP
007C000000
007C000000
007C000000
007C000000
FFFFFE1F00
FFFFFE1F00
FFFFFE1F00
FFFFFE1F00
FFFFFE1F00
0F800001F0
0F800001F0
0F800001F0
0F800001F0
0F8003E1F0
0F8003E000
0F8003E000
0F8003E000
0F8003E000
F807FFE000
F807FFE000
F807FFE000
F807FFE000
F87FFFFF00
F87C03FF00
F87C03FF00
F87C03FF00
F87C03FF00
0007FFE000
0007FFE000
0007FFE000
0007FFE000
0007FFE000
0000000000
0000000000
0000000000
0000000000
ENDCHAR
STARTCHAR 306b
ENCODING 12395
SWIDTH 4320 0
DWIDTH 36 0
BBX 36 36 0 0
BITMAP
F807FFFF00
F807FFFF00
F807FFFF00
F807FFFF00
F807FFFF00
F800000000
F800000000
F800000000
F800000000
F800000000
F800000000
F800000000
F800000000
F800000000
F800000000
F800000000
F800000000
F800000000
F800000000
F800000000
F800000000
F800000000
F807C00000
F807C00000
F807C00000
F807C00000
F807C00000
FF87FFFF00
FF87FFFF00
FF87FFFF00
FF87FFFF00
FF87FFFF00
0000000000
0000000000
0000000000
0000000000
ENDCHAR
STARTCHAR 306c
ENCODING 12396
SWIDTH 4320 0
DWIDTH 36 0
BBX 36 36 0 0
BITMAP
000003E000
000003E000
000003E000
000003E000
0F8003E000
0F8003E000
0F8003E000
0F8003E000
0F8003E000
0FFFFFE000
0FFFFFE000
0FFFFFE000
0FFFFFE000
0FFFFFFF00
0F803E1F00
0F803E1F00
0F803E1F00
0F803E1F00
F87FC01F00
F87FC01F00
F87FC01F00
F87FC01F00
F87FC3FFF0
F807C3FFF0
F807C3FFF0
F807C3FFF0
F807C3FFF0
0FFC03FF00
0FFC03FF00
0FFC03FF00
0FFC03FF00
0FFC03FF00
0000000000
0000000000
0000000000
0000000000
ENDCHAR
STARTCHAR 306d
ENCODING 12397
SWIDTH 4320 0
DWIDTH 36 0
BBX 36 36 0 0
BITMAP
007C000000
007C000000
007C000000
007C000000
FFFC03E000
FFFC03E000
FFFC03E000
FFFC03E000
FFFC03E000
007C3E1F00
007C3E1F00
007C3E1F00
007C3E1F00
007FFE1F00
007FC01F00
007FC01F00
007FC01F00
007FC01F00
0FFC03FF00
0FFC03FF00
0FFC03FF00
0FFC03FF00
FFFC3FFFF0
F87C3E1FF0
F87C3E1FF0
F87C3E1FF0
F87C3E1FF0
007C03FF00
007C03FF00
007C03FF00
007C03FF00
007C03FF00
0000000000
0000000000
0000000000
0000000000
ENDCHAR
STARTCHAR 306e
ENCODING 12398
SWIDTH 4320 0
DWIDTH 36 0
BBX 36 36 0 0
BITMAP
007FFE0000
007FFE0000
007FFE0000
007FFE0000
0FFFFFE000
0F87C3E000
0F87C3E000
0F87C3E000
0F87C3E000
F807C01F00
F807C01F00
F807C01F00
F807C01F00
F807C01F00
F807C01F00
F807C01F00
F807C01F00
F807C01F00
F807C01F00
F807C01F00
F807C01F00
F807C01F00
F807C01F00
F807C01F00
F807C01F00
F807C01F00
F807C01F00
0FFC03E000
0FFC03E000
0FFC03E000
0FFC03E000
0FFC03E000
0000000000
0000000000
0000000000
0000000000
ENDCHAR
STARTCHAR 306f
ENCODING 12399
SWIDTH 4320 0
DWIDTH 36 0
BBX 36 36 0 0
BITMAP
F80003E000
F80003E000
F80003E000
F80003E000
F807FFFF00
F807FFFF00
F807FFFF00
F807FFFF00
F807FFFF00
F80003E000
F80003E000
F80003E000
F80003E000
F80003E000
F80003E000
F80003E000
F80003E000
F80003E000
F807FFE000
F807FFE000
F807FFE000
F807FFE000
F87FFFFF00
F87C03FF00
F87C03FF00
F87C03FF00
F87C03FF00
0F87FFE000
0F87FFE000
0F87FFE000
0F87FFE000
0F87FFE000
0000000000
0000000000
0000000000
0000000000
ENDCHAR
STARTCHAR 3072
ENCODING 12402
SWIDTH 4320 0
DWIDTH 36 0
BBX 36 36 0 0
BITMAP
FFFC000000
FFFC000000
FFFC000000
FFFC000000
FFFC03FF00
007C03FF00
007C03FF00
007C03FF00
007C03FF00
0F8003E1F0
0F8003E1F0
0F8003E1F0
0F8003E1F0
FF8003E1F0
F80003E000
F80003E000
F80003E000
F80003E000
F80003E000
F80003E000
F80003E000
F80003E000
F8003FE000
F8003E0000
F8003E0000
F8003E0000
F8003E0000
0FFFC00000
0FFFC00000
0FFFC00000
0FFFC00000
0FFFC00000
0000000000
0000000000
0000000000
0000000000
ENDCHAR
STARTCHAR 3075
ENCODING 12405
SWIDTH 4320 0
DWIDTH 36 0
BBX 36 36 0 0
BITMAP
007FFE0000
007FFE0000
007FFE0000
007FFE0000
007FFE0000
0000000000
0000000000
0000000000
0000000000
0007C00000
0007C00000
0007C00000
0007C00000
0F87FE1F00
0F803E1F00
0F803E1F00
0F803E1F00
0F803E1F00
0F803E1F00
0F803E1F00
0F803E1F00
0F803E1F00
FF803E1F00
F8003E1F00
F8003E1F00
F8003E1F00
F8003E1F00
007FC00000
007FC00000
007FC00000
007FC00000
007FC00000
0000000000
0000000000
0000000000
0000000000
ENDCHAR
STARTCHAR 3078
ENCODING 12408
SWIDTH 4320 0
DWIDTH 36 0
BBX 36 36 0 0
BITMAP
0000000000
0000000000
0000000000
0000000000
007C000000
007C000000
007C000000
007C000000
007C000000
0F87C00000
0F87C00000
0F87C00000
0F87C00000
FF87FE0000
F8003E0000
F8003E0000
F8003E0000
F8003E0000
000003E000
000003E000
000003E000
000003E000
000003FF00
0000001F00
0000001F00
0000001F00
0000001F00
0000001F00
0000001F00
0000001F00
0000001F00
0000001F00
0000000000
0000000000
0000000000
0000000000
ENDCHAR
STARTCHAR 307b
ENCODING 12411
SWIDTH 4320 0
DWIDTH 36 0
BBX 36 36 0 0
BITMAP
F807FFFF00
F807FFFF00
F807FFFF00
F807FFFF00
F807FFFF00
F80003E000
F80003E000
F80003E000
F80003E000
F807FFFF00
F807FFFF00
F807FFFF00
F807FFFF00
F807FFFF00
F80003E000
F80003E000
F80003E000
F80003E000
F807FFE000
F807FFE000
F807FFE000
F807FFE000
F87FFFFF00
F87C03FF00
F87C03FF00
F87C03FF00
F87C03FF00
FF87FFE000
FF87FFE000
FF87FFE000
FF87FFE000
FF87FFE000
0000000000
0000000000
0000000000
0000000000
ENDCHAR
STARTCHAR 307e
ENCODING 12414
SWIDTH 4320 0
DWIDTH 36 0
BBX 36 36 0 0
BITMAP
0007C00000
0007C00000
0007C00000
0007C00000
0FFFFFFF00
0FFFFFFF00
0FFFFFFF00
0FFFFFFF00
0FFFFFFF00
0007C00000
0007C00000
0007C00000
0007C00000
0FFFFFFF00
0FFFFFFF00
0FFFFFFF00
0FFFFFFF00
0FFFFFFF00
0007C00000
0007C00000
0007C00000
0007C00000
0FFFC00000
0FFFC00000
0FFFC00000
0FFFC00000
0FFFC00000
F807FFE000
F807FFE000
F807FFE000
F807FFE000
FFFFFFFF00
0FFFC01F00
0FFFC01F00
0FFFC01F00
0FFFC01F00
ENDCHAR
STARTCHAR 307f
ENCODING 12415
SWIDTH 4320 0
DWIDTH 36 0
BBX 36 36 0 0
BITMAP
0FFFC00000
0FFFC00000
0FFFC00000
0FFFC00000
0FFFC00000
0007C00000
0007C00000
0007C00000
0007C00000
0007C3E000
0007C3E000
0007C3E000
0007C3E000
0FFFFFFF00
0FFFFFFF00
0FFFFFFF00
0FFFFFFF00
0FFFFFFF00
F807C3E000
F807C3E000
F807C3E000
F807C3E000
F807C3E000
F807C3E000
F807C3E000
F807C3E000
F807C3E000
0FFC03E000
0FFC03E000
0FFC03E000
0FFC03E000
0FFC03E000
0000000000
0000000000
0000000000
0000000000
ENDCHAR
STARTCHAR 3080
ENCODING 12416
SWIDTH 4320 0
DWIDTH 36 0
BBX 36 36 0 0
BITMAP
007C000000
007C000000
007C000000
007C000000
FFFFFFE1F0
FFFFFFE1F0
FFFFFFE1F0
FFFFFFE1F0
FFFFFFE1F0
007C0001F0
007C0001F0
007C0001F0
007C0001F0
0FFC0001F0
0FFC000000
0FFC000000
0FFC000000
0FFC000000
F87C000000
F87C000000
F87C000000
F87C000000
FFFC001F00
0FFC001F00
0FFC001F00
0FFC001F00
0FFC001F00
007FFFFF00
007FFFFF00
007FFFFF00
007FFFFF00
007FFFFF00
0000000000
0000000000
0000000000
0000000000
ENDCHAR
STARTCHAR 3081
ENCODING 12417
SWIDTH 4320 0
DWIDTH 36 0
BBX 36 36 0 0
BITMAP
000003E000
000003E000
000003E000
000003E000
0F8003E000
0F8003E000
0F8003E000
0F8003E000
0F8003E000
0FFFFFE000
0FFFFFE000
0FFFFFE000
0FFFFFE000
0FFFFFFF00
0F803E1F00
0F803E1F00
0F803E1F00
0F803E1F00
F87FC01F00
F87FC01F00
F87FC01F00
F87FC01F00
F87FC01F00
F807C01F00
F807C01F00
F807C01F00
F807C01F00
0FFC03E000
0FFC03E000
0FFC03E000
0FFC03E000
0FFC03E000
0000000000
0000000000
0000000000
0000000000
ENDCHAR
STARTCHAR 3082
ENCODING 12418
SWIDTH 4320 0
DWIDTH 36 0
BBX 36 36 0 0
BITMAP
007C000000
007C000000
007C000000
007C000000
FFFFFE0000
FFFFFE0000
FFFFFE0000
FFFFFE0000
FFFFFE0000
007C000000
007C000000
007C000000
007C000000
FFFFFE0000
FFFFFE0000
FFFFFE0000
FFFFFE0000
FFFFFE0000
007C001F00
007C001F00
007C001F00
007C001F00
007C001F00
007C001F00
007C001F00
007C001F00
007C001F00
0007FFE000
0007FFE000
0007FFE000
0007FFE000
0007FFE000
0000000000
0000000000
0000000000
0000000000
ENDCHAR
STARTCHAR 3083
ENCODING 12419
SWIDTH 4320 0
DWIDTH 36 0
BBX 36 36 0 0
BITMAP
0000000000
0000000000
0000000000
0000000000
0000000000
0000000000
0000000000
0000000000
0000000000
0F87FE0000
0F87FE0000
0F87FE0000
0F87FE0000
FFFFFFE000
FFFC03E000
FFFC03E000
FFFC03E000
FFFC03E000
007C3E0000
007C3E0000
007C3E0000
007C3E0000
007C3E0000
007C000000
007C000000
007C000000
007C000000
0007C00000
0007C00000
0007C00000
0007C00000
0007C00000
0000000000
0000000000
0000000000
0000000000
ENDCHAR
STARTCHAR 3084
ENCODING 12420
SWIDTH 4320 0
DWIDTH 36 0
BBX 36 36 0 0
BITMAP
0F803E0000
0F803E0000
0F803E0000
0F803E0000
0F803FE000
0F803FE000
0F803FE000
0F803FE000
0F803FE000
007FC01F00
007FC01F00
007FC01F00
007FC01F00
FFFFC01F00
FFFC001F00
FFFC001F00
FFFC001F00
FFFC001F00
007C03E000
007C03E000
007C03E000
007C03E000
007FC3E000
0007C00000
0007C00000
0007C00000
0007C00000
0007C00000
0007C00000
0007C00000
0007C00000
0007FE0000
00003E0000
00003E0000
00003E0000
00003E0000
ENDCHAR
STARTCHAR 3085
ENCODING 12421
SWIDTH 4320 0
DWIDTH 36 0
BBX 36 36 0 0
BITMAP
0000000000
0000000000
0000000000
0000000000
0000000000
0000000000
0000000000
0000000000
0000000000
0007C00000
0007C00000
0007C00000
0007C00000
F87FFE0000
F87FFE0000
F87FFE0000
F87FFE0000
F87FFE0000
FF87C3E000
FF87C3E000
FF87C3E000
FF87C3E000
FF87FFE000
F807FE0000
F807FE0000
F807FE0000
F807FE0000
007FC00000
007FC00000
007FC00000
007FC00000
007FC00000
0000000000
0000000000
0000000000
0000000000
ENDCHAR
STARTCHAR 3086
ENCODING 12422
SWIDTH 4320 0
DWIDTH 36 0
BBX 36 36 0 0
BITMAP
00003E0000
00003E0000
00003E0000
00003E0000
F807FFE000
F807FFE000
F807FFE000
F807FFE000
F807FFE000
F87C3E1F00
F87C3E1F00
F87C3E1F00
F87C3E1F00
FFFC3E1F00
FF803E1F00
FF803E1F00
FF803E1F00
FF803E1F00
FF803E1F00
FF803E1F00
FF803E1F00
FF803E1F00
FF803FFF00
F8003FE000
F8003FE000
F8003FE000
F8003FE000
0007FE0000
0007FE0000
0007FE0000
0007FE0000
0007FE0000
0000000000
0000000000
0000000000
0000000000
ENDCHAR
STARTCHAR 3087
ENCODING 12423
SWIDTH 4320 0
DWIDTH 36 0
BBX 36 36 0 0
BITMAP
0000000000
0000000000
0000000000
0000000000
0000000000
0000000000
0000000000
0000000000
0000000000
007C000000
007C000000
007C000000
007C000000
007FFE0000
007FFE0000
007FFE0000
007FFE0000
007FFE0000
007C000000
007C000000
007C000000
007C000000
0FFFFE0000
0FFFFE0000
0FFFFE0000
0FFFFE0000
0FFFFE0000
0FFC000000
0FFC000000
0FFC000000
0FFC000000
0FFC000000
0000000000
0000000000
0000000000
0000000000
ENDCHAR
STARTCHAR 3088
ENCODING 12424
SWIDTH 4320 0
DWIDTH 36 0
BBX 36 36 0 0
BITMAP
00003E0000
00003E0000
00003E0000
00003E0000
00003FFF00
00003FFF00
00003FFF00
00003FFF00
00003FFF00
00003E0000
00003E0000
00003E0000
00003E0000
00003E0000
00003E0000
00003E0000
00003E0000
00003E0000
0FFFFE0000
0FFFFE0000
0FFFFE0000
0FFFFE0000
FFFFFFFF00
F8003FFF00
F8003FFF00
F8003FFF00
F8003FFF00
0FFFFE0000
0FFFFE0000
0FFFFE0000
0FFFFE0000
0FFFFE0000
0000000000
0000000000
0000000000
0000000000
ENDCHAR
STARTCHAR 3089
ENCODING 12425
SWIDTH 4320 0
DWIDTH 36 0
BBX 36 36 0 0
BITMAP
0FFC000000
0FFC000000
0FFC000000
0FFC000000
0FFC000000
0000000000
0000000000
0000000000
0000000000
F807FFE000
F807FFE000
F807FFE000
F807FFE000
F87FFFFF00
F87C001F00
F87C001F00
F87C001F00
F87C001F00
FF80001F00
FF80001F00
FF80001F00
FF80001F00
FF80001F00
F800001F00
F800001F00
F800001F00
F800001F00
0007FFE000
0007FFE000
0007FFE000
0007FFE000
0007FFE000
0000000000
0000000000
0000000000
0000000000
ENDCHAR
STARTCHAR 308a
ENCODING 12426
SWIDTH 4320 0
DWIDTH 36 0
BBX 36 36 0 0
BITMAP
0F8003E000
0F8003E000
0F8003E000
0F8003E000
0F8003E000
0F8003E000
0F8003E000
0F8003E000
0F8003E000
0F8003E000
0F8003E000
0F8003E000
0F8003E000
0FFC03E000
0FFC03E000
0FFC03E000
0FFC03E000
0FFC03E000
000003E000
000003E000
000003E000
000003E000
00003FE000
00003E0000
00003E0000
00003E0000
00003E0000
0007C00000
0007C00000
0007C00000
0007C00000
0007C00000
0000000000
0000000000
0000000000
0000000000
ENDCHAR
STARTCHAR 308b
ENCODING 12427
SWIDTH 4320 0
DWIDTH 36 0
BBX 36 36 0 0
BITMAP
0FFFFFE000
0FFFFFE000
0FFFFFE000
0FFFFFE000
0FFFFFE000
00003E0000
00003E0000
00003E0000
00003E0000
0007C00000
0007C00000
0007C00000
0007C00000
007FFFE000
007FFFE000
007FFFE000
007FFFE000
007FFFE000
0F80001F00
0F80001F00
0F80001F00
0F80001F00
0F87FE1F00
0007FE1F00
0007FE1F00
0007FE1F00
0007FE1F00
007C03E000
007C03E000
007C03E000
007C03E000
007FFFE000
0007FE0000
0007FE0000
0007FE0000
0007FE0000
ENDCHAR
STARTCHAR 308c
ENCODING 12428
SWIDTH 4320 0
DWIDTH 36 0
BBX 36 36 0 0
BITMAP
007C000000
007C000000
007C000000
007C000000
FFFC03FF00
FFFC03FF00
FFFC03FF00
FFFC03FF00
FFFC03FF00
007C3FE000
007C3FE000
007C3FE000
007C3FE000
007FFFE000
007FC3E000
007FC3E000
007FC3E000
007FC3E000
0FFC03E000
0FFC03E000
0FFC03E000
0FFC03E000
FFFC03E000
F87C03E000
F87C03E000
F87C03E000
F87C03E000
007C001F00
007C001F00
007C001F00
007C001F00
007C001F00
0000000000
0000000000
0000000000
0000000000
ENDCHAR
STARTCHAR 308d
ENCODING 12429
SWIDTH 4320 0
DWIDTH 36 0
BBX 36 36 0 0
BITMAP
0FFFFFE000
0FFFFFE000
0FFFFFE000
0FFFFFE000
0FFFFFE000
00003E0000
00003E0000
00003E0000
00003E0000
0007C00000
0007C00000
0007C00000
0007C00000
007FFFE000
007C3FE000
007C3FE000
007C3FE000
007C3FE000
0F80001F00
0F80001F00
0F80001F00
0F80001F00
0F80001F00
0000001F00
0000001F00
0000001F00
0000001F00
007C03E000
007C03E000
007C03E000
007C03E000
007FFFE000
0007FE0000
0007FE0000
0007FE0000
0007FE0000
ENDCHAR
STARTCHAR 308f
ENCODING 12431
SWIDTH 4320 0
DWIDTH 36 0
BBX 36 36 0 0
BITMAP
007C000000
007C000000
007C000000
007C000000
FFFC03E000
FFFC03E000
FFFC03E000
FFFC03E000
FFFC03E000
007C3E1F00
007C3E1F00
007C3E1F00
007C3E1F00
007FFE1F00
007FC01F00
007FC01F00
007FC01F00
007FC01F00
0FFC001F00
0FFC001F00
0FFC001F00
0FFC001F00
FFFC001F00
F87C001F00
F87C001F00
F87C001F00
F87C001F00
007C03E000
007C03E000
007C03E000
007C03E000
007C03E000
0000000000
0000000000
0000000000
0000000000
ENDCHAR
STARTCHAR 3092
ENCODING 12434
SWIDTH 4320 0
DWIDTH 36 0
BBX 36 36 0 0
BITMAP
0007C00000
0007C00000
0007C00000
0007C00000
FFFFFFFF00
FFFFFFFF00
FFFFFFFF00
FFFFFFFF00
FFFFFFFF00
007C000000
007C000000
007C000000
007C000000
0FFFC3E000
0FFFC3E000
0FFFC3E000
0FFFC3E000
0FFFC3E000
F87FFE0000
F87FFE0000
F87FFE0000
F87FFE0000
FFFFFE0000
0F803E0000
0F803E0000
0F803E0000
0F803E0000
0FFFFFFF00
0FFFFFFF00
0FFFFFFF00
0FFFFFFF00
0FFFFFFF00
0000000000
0000000000
0000000000
0000000000
ENDCHAR
STARTCHAR 3093
ENCODING 12435
SWIDTH 4320 0
DWIDTH 36 0
BBX 36 36 0 0
BITMAP
0007C00000
0007C00000
0007C00000
0007C00000
007FC00000
007C000000
007C000000
007C000000
007C000000
007C000000
007C000000
007C000000
007C000000
0FFFC00000
0FFFC00000
0FFFC00000
0FFFC00000
0FFFC00000
0F803E0000
0F803E0000
0F803E0000
0F803E0000
FF803E0000
F8003E0000
F8003E0000
F8003E0000
F8003E0000
F80003FF00
F80003FF00
F80003FF00
F80003FF00
F80003FF00
0000000000
0000000000
0000000000
0000000000
ENDCHAR
STARTCHAR 309b
ENCODING 12443
SWIDTH 4320 0
DWIDTH 36 0
BBX 36 36 0 0
BITMAP
0007C00000
0007C00000
0007C00000
0007C00000
0F87FE0000
0F803E0000
0F803E0000
0F803E0000
0F803E0000
007C000000
007C000000
007C000000
007C000000
007C000000
0000000000
0000000000
0000000000
0000000000
0000000000
0000000000
0000000000
0000000000
0000000000
0000000000
0000000000
0000000000
0000000000
0000000000
0000000000
0000000000
0000000000
0000000000
0000000000
0000000000
0000000000
0000000000
ENDCHAR
STARTCHAR 309c
ENCODING 12444
SWIDTH 4320 0
DWIDTH 36 0
BBX 36 36 0 0
BITMAP
0FFFC00000
0FFFC00000
0FFFC00000
0FFFC00000
0FFFC00000
0F87C00000
0F87C00000
0F87C00000
0F87C00000
0FFFC00000
0FFFC00000
0FFFC00000
0FFFC00000
0FFFC00000
0000000000
0000000000
0000000000
0000000000
0000000000
0000000000
0000000000
0000000000
0000000000
0000000000
0000000000
0000000000
0000000000
0000000000
0000000000
0000000000
0000000000
0000000000
0000000000
0000000000
0000000000
0000000000
ENDCHAR
STARTCHAR 30a1
ENCODING 12449
SWIDTH 4320 0
DWIDTH 36 0
BBX 36 36 0 0
BITMAP
0000000000
0000000000
0000000000
0000000000
0000000000
0000000000
0000000000
0000000000
0000000000
007FFFFF00
007FFFFF00
007FFFFF00
007FFFFF00
007FFFFF00
0000001F00
0000001F00
0000001F00
0000001F00
00003FE000
00003FE000
00003FE000
00003FE000
00003FE000
00003E0000
00003E0000
00003E0000
00003E0000
0007C00000
0007C00000
0007C00000
0007C00000
0007C00000
0000000000
0000000000
0000000000
0000000000
ENDCHAR
STARTCHAR 30a2
ENCODING 12450
SWIDTH 4320 0
DWIDTH 36 0
BBX 36 36 0 0
BITMAP
007FFFFF00
007FFFFF00
007FFFFF00
007FFFFF00
007FFFFF00
0000001F00
0000001F00
0000001F00
0000001F00
00003E1F00
00003E1F00
00003E1F00
00003E1F00
00003FFF00
00003FE000
00003FE000
00003FE000
00003FE000
00003E0000
00003E0000
00003E0000
00003E0000
00003E0000
00003E0000
00003E0000
00003E0000
00003E0000
0007C00000
0007C00000
0007C00000
0007C00000
0007C00000
0000000000
0000000000
0000000000
0000000000
ENDCHAR
STARTCHAR 30a3
ENCODING 12451
SWIDTH 4320 0
DWIDTH 36 0
BBX 36 36 0 0
BITMAP
0000000000
0000000000
0000000000
0000000000
0000000000
0000000000
0000000000
0000000000
0000000000
000003E000
000003E000
000003E000
000003E000
00003FE000
00003E0000
00003E0000
00003E0000
00003E0000
0007FE0000
0007FE0000
0007FE0000
0007FE0000
007FFE0000
007C3E0000
007C3E0000
007C3E0000
007C3E0000
00003E0000
00003E0000
00003E0000
00003E0000
00003E0000
0000000000
0000000000
0000000000
0000000000
ENDCHAR
STARTCHAR 30a4
ENCODING 12452
SWIDTH 4320 0
DWIDTH 36 0
BBX 36 36 0 0
BITMAP
0000001F00
0000001F00
0000001F00
0000001F00
000003FF00
000003E000
000003E000
000003E000
000003E000
00003E0000
00003E0000
00003E0000
00003E0000
0007FE0000
0007FE0000
0007FE0000
0007FE0000
0007FE0000
007C3E0000
007C3E0000
007C3E0000
007C3E0000
007C3E0000
00003E0000
00003E0000
00003E0000
00003E0000
00003E0000
00003E0000
00003E0000
00003E0000
00003E0000
0000000000
0000000000
0000000000
0000000000
ENDCHAR
STARTCHAR 30a5
ENCODING 12453
SWIDTH 4320 0
DWIDTH 36 0
BBX 36 36 0 0
BITMAP
0000000000
0000000000
0000000000
0000000000
0000000000
0000000000
0000000000
0000000000
0000000000
00003E0000
00003E0000
00003E0000
00003E0000
007FFFFF00
007FFFFF00
007FFFFF00
007FFFFF00
007FFFFF00
007C001F00
007C001F00
007C001F00
007C001F00
007C001F00
0000001F00
0000001F00
0000001F00
0000001F00
00003FE000
00003FE000
00003FE000
00003FE000
00003FE000
0000000000
0000000000
0000000000
0000000000
ENDCHAR
STARTCHAR 30a6
ENCODING 12454
SWIDTH 4320 0
DWIDTH 36 0
BBX 36 36 0 0
BITMAP
00003E0000
00003E0000
00003E0000
00003E0000
007FFFFF00
007FFFFF00
007FFFFF00
007FFFFF00
007FFFFF00
007C001F00
007C001F00
007C001F00
007C001F00
007C001F00
007C001F00
007C001F00
007C001F00
007C001F00
0000001F00
0000001F00
0000001F00
0000001F00
000003FF00
000003E000
000003E000
000003E000
000003E000
00003E0000
00003E0000
00003E0000
00003E0000
00003E0000
0000000000
0000000000
0000000000
0000000000
ENDCHAR
STARTCHAR 30a7
ENCODING 12455
SWIDTH 4320 0
DWIDTH 36 0
BBX 36 36 0 0
BITMAP
0000000000
0000000000
0000000000
0000000000
0000000000
0000000000
0000000000
0000000000
0000000000
0000000000
0000000000
0000000000
0000000000
007FFFFF00
007FFFFF00
007FFFFF00
007FFFFF00
007FFFFF00
00003E0000
00003E0000
00003E0000
00003E0000
00003E0000
00003E0000
00003E0000
00003E0000
00003E0000
007FFFFF00
007FFFFF00
007FFFFF00
007FFFFF00
007FFFFF00
0000000000
0000000000
0000000000
0000000000
ENDCHAR
STARTCHAR 30a8
ENCODING 12456
SWIDTH 4320 0
DWIDTH 36 0
BBX 36 36 0 0
BITMAP
0000000000
0000000000
0000000000
0000000000
007FFFFF00
007FFFFF00
007FFFFF00
007FFFFF00
007FFFFF00
00003E0000
00003E0000
00003E0000
00003E0000
00003E0000
00003E0000
00003E0000
00003E0000
00003E0000
00003E0000
00003E0000
00003E0000
00003E0000
00003E0000
00003E0000
00003E0000
00003E0000
00003E0000
007FFFFF00
007FFFFF00
007FFFFF00
007FFFFF00
007FFFFF00
0000000000
0000000000
0000000000
0000000000
ENDCHAR
STARTCHAR 30a9
ENCODING 12457
SWIDTH 4320 0
DWIDTH 36 0
BBX 36 36 0 0
BITMAP
0000000000
0000000000
0000000000
0000000000
0000000000
0000000000
0000000000
0000000000
0000000000
000003E000
000003E000
000003E000
000003E000
007FFFFF00
007FFFFF00
007FFFFF00
007FFFFF00
007FFFFF00
00003FE000
00003FE000
00003FE000
00003FE000
0007FFE000
0007C3E000
0007C3E000
0007C3E000
0007C3E000
007C03E000
007C03E000
007C03E000
007C03E000
007C03E000
0000000000
0000000000
0000000000
0000000000
ENDCHAR
STARTCHAR 30aa
ENCODING 12458
SWIDTH 4320 0
DWIDTH 36 0
BBX 36 36 0 0
BITMAP
000003E000
000003E000
000003E000
000003E000
007FFFFF00
007FFFFF00
007FFFFF00
007FFFFF00
007FFFFF00
000003E000
000003E000
000003E000
000003E000
00003FE000
00003FE000
00003FE000
00003FE000
00003FE000
0007C3E000
0007C3E000
0007C3E000
0007C3E000
007FC3E000
007C03E000
007C03E000
007C03E000
007C03E000
000003E000
000003E000
000003E000
000003E000
000003E000
0000000000
0000000000
0000000000
0000000000
ENDCHAR
STARTCHAR 30ab
ENCODING 12459
SWIDTH 4320 0
DWIDTH 36 0
BBX 36 36 0 0
BITMAP
0007C00000
0007C00000
0007C00000
0007C00000
007FFFFF00
007FFFFF00
007FFFFF00
007FFFFF00
007FFFFF00
0007C01F00
0007C01F00
0007C01F00
0007C01F00
0007C01F00
0007C01F00
0007C01F00
0007C01F00
0007C01F00
0007C01F00
0007C01F00
0007C01F00
0007C01F00
0007C01F00
0007C01F00
0007C01F00
0007C01F00
0007C01F00
007C03E000
007C03E000
007C03E000
007C03E000
007C03E000
0000000000
0000000000
0000000000
0000000000
ENDCHAR
STARTCHAR 30ad
ENCODING 12461
SWIDTH 4320 0
DWIDTH 36 0
BBX 36 36 0 0
BITMAP
00003E0000
00003E0000
00003E0000
00003E0000
007FFFFF00
007FFFFF00
007FFFFF00
007FFFFF00
007FFFFF00
00003E0000
00003E0000
00003E0000
00003E0000
007FFFFF00
007FFFFF00
007FFFFF00
007FFFFF00
007FFFFF00
00003E0000
00003E0000
00003E0000
00003E0000
00003E0000
00003E0000
00003E0000
00003E0000
00003E0000
00003E0000
00003E0000
00003E0000
00003E0000
00003E0000
0000000000
0000000000
0000000000
0000000000
ENDCHAR
STARTCHAR 30af
ENCODING 12463
SWIDTH 4320 0
DWIDTH 36 0
BBX 36 36 0 0
BITMAP
0000000000
0000000000
0000000000
0000000000
0007FFFF00
0007FFFF00
0007FFFF00
0007FFFF00
0007FFFF00
0007C01F00
0007C01F00
0007C01F00
0007C01F00
007FC01F00
007C001F00
007C001F00
007C001F00
007C001F00
0000001F00
0000001F00
0000001F00
0000001F00
000003FF00
000003E000
000003E000
000003E000
000003E000
0007FE0000
0007FE0000
0007FE0000
0007FE0000
0007FE0000
0000000000
0000000000
0000000000
0000000000
ENDCHAR
STARTCHAR 30b1
ENCODING 12465
SWIDTH 4320 0
DWIDTH 36 0
BBX 36 36 0 0
BITMAP
0007C00000
0007C00000
0007C00000
0007C00000
0007FFFF00
0007FFFF00
0007FFFF00
0007FFFF00
0007FFFF00
007C03E000
007C03E000
007C03E000
007C03E000
007C03E000
000003E000
000003E000
000003E000
000003E000
000003E000
000003E000
000003E000
000003E000
000003E000
000003E000
000003E000
000003E000
000003E000
00003E0000
00003E0000
00003E0000
00003E0000
00003E0000
0000000000
0000000000
0000000000
0000000000
ENDCHAR
STARTCHAR 30b3
ENCODING 12467
SWIDTH 4320 0
DWIDTH 36 0
BBX 36 36 0 0
BITMAP
0000000000
0000000000
0000000000
0000000000
007FFFFF00
007FFFFF00
007FFFFF00
007FFFFF00
007FFFFF00
0000001F00
0000001F00
0000001F00
0000001F00
0000001F00
0000001F00
0000001F00
0000001F00
0000001F00
0000001F00
0000001F00
0000001F00
0000001F00
0000001F00
0000001F00
0000001F00
0000001F00
0000001F00
007FFFFF00
007FFFFF00
007FFFFF00
007FFFFF00
007FFFFF00
0000000000
0000000000
0000000000
0000000000
ENDCHAR
STARTCHAR 30b5
ENCODING 12469
SWIDTH 4320 0
DWIDTH 36 0
BBX 36 36 0 0
BITMAP
0007C3E000
0007C3E000
0007C3E000
0007C3E000
007FFFFF00
007FFFFF00
007FFFFF00
007FFFFF00
007FFFFF00
0007C3E000
0007C3E000
0007C3E000
0007C3E000
0007C3E000
0007C3E000
0007C3E000
0007C3E000
0007C3E000
000003E000
000003E000
000003E000
000003E000
00003FE000
00003E0000
00003E0000
00003E0000
00003E0000
0007C00000
0007C00000
0007C00000
0007C00000
0007C00000
0000000000
0000000000
0000000000
0000000000
ENDCHAR
STARTCHAR 30b7
ENCODING 12471
SWIDTH 4320 0
DWIDTH 36 0
BBX 36 36 0 0
BITMAP
0000000000
0000000000
0000000000
0000000000
007FC00000
007FC00000
007FC00000
007FC00000
007FC00000
0000001F00
0000001F00
0000001F00
0000001F00
007FC01F00
007FC01F00
007FC01F00
007FC01F00
007FC01F00
0000001F00
0000001F00
0000001F00
0000001F00
000003FF00
000003E000
000003E000
000003E000
000003E000
007FFE0000
007FFE0000
007FFE0000
007FFE0000
007FFE0000
0000000000
0000000000
0000000000
0000000000
ENDCHAR
STARTCHAR 30b9
ENCODING 12473
SWIDTH 4320 0
DWIDTH 36 0
BBX 36 36 0 0
BITMAP
0000000000
0000000000
0000000000
0000000000
007FFFFF00
007FFFFF00
007FFFFF00
007FFFFF00
007FFFFF00
0000001F00
0000001F00
0000001F00
0000001F00
000003FF00
000003E000
000003E000
000003E000
000003E000
00003E0000
00003E0000
00003E0000
00003E0000
0007FFE000
0007C3E000
0007C3E000
0007C3E000
0007C3E000
007C001F00
007C001F00
007C001F00
007C001F00
007C001F00
0000000000
0000000000
0000000000
0000000000
ENDCHAR
STARTCHAR 30bb
ENCODING 12475
SWIDTH 4320 0
DWIDTH 36 0
BBX 36 36 0 0
BITMAP
0007C00000
0007C00000
0007C00000
0007C00000
007FFFFF00
007FFFFF00
007FFFFF00
007FFFFF00
007FFFFF00
0007C01F00
0007C01F00
0007C01F00
0007C01F00
0007C3FF00
0007C3E000
0007C3E000
0007C3E000
0007C3E000
0007C00000
0007C00000
0007C00000
0007C00000
0007C00000
0007C00000
0007C00000
0007C00000
0007C00000
00003FFF00
00003FFF00
00003FFF00
00003FFF00
00003FFF00
0000000000
0000000000
0000000000
0000000000
ENDCHAR
STARTCHAR 30bd
ENCODING 12477
SWIDTH 4320 0
DWIDTH 36 0
BBX 36 36 0 0
BITMAP
0000000000
0000000000
0000000000
0000000000
007C001F00
007C001F00
007C001F00
007C001F00
007C001F00
007C001F00
007C001F00
007C001F00
007C001F00
007FC01F00
0007C01F00
0007C01F00
0007C01F00
0007C01F00
0000001F00
0000001F00
0000001F00
0000001F00
000003FF00
000003E000
000003E000
000003E000
000003E000
0007FE0000
0007FE0000
0007FE0000
0007FE0000
0007FE0000
0000000000
0000000000
0000000000
0000000000
ENDCHAR
STARTCHAR 30bf
ENCODING 12479
SWIDTH 4320 0
DWIDTH 36 0
BBX 36 36 0 0
BITMAP
0000000000
0000000000
0000000000
0000000000
0007FFFF00
0007FFFF00
0007FFFF00
0007FFFF00
0007FFFF00
0007C01F00
0007C01F00
0007C01F00
0007C01F00
007FFE1F00
007C3E1F00
007C3E1F00
007C3E1F00
007C3E1F00
000003FF00
000003FF00
000003FF00
000003FF00
000003FF00
000003E000
000003E000
000003E000
000003E000
0007FE0000
0007FE0000
0007FE0000
0007FE0000
0007FE0000
0000000000
0000000000
0000000000
0000000000
ENDCHAR
STARTCHAR 30c1
ENCODING 12481
SWIDTH 4320 0
DWIDTH 36 0
BBX 36 36 0 0
BITMAP
000003E000
000003E000
000003E000
000003E000
007FFFE000
007FFE0000
007FFE0000
007FFE0000
007FFE0000
00003E0000
00003E0000
00003E0000
00003E0000
007FFFFF00
007FFFFF00
007FFFFF00
007FFFFF00
007FFFFF00
00003E0000
00003E0000
00003E0000
00003E0000
00003E0000
00003E0000
00003E0000
00003E0000
00003E0000
0007C00000
0007C00000
0007C00000
0007C00000
0007C00000
0000000000
0000000000
0000000000
0000000000
ENDCHAR
STARTCHAR 30c3
ENCODING 12483
SWIDTH 4320 0
DWIDTH 36 0
BBX 36 36 0 0
BITMAP
0000000000
0000000000
0000000000
0000000000
0000000000
0000000000
0000000000
0000000000
0000000000
0000000000
0000000000
0000000000
0000000000
007C3E1F00
007C3E1F00
007C3E1F00
007C3E1F00
007C3E1F00
007C3E1F00
007C3E1F00
007C3E1F00
007C3E1F00
007C3E1F00
0000001F00
0000001F00
0000001F00
0000001F00
00003FE000
00003FE000
00003FE000
00003FE000
00003FE000
0000000000
0000000000
0000000000
0000000000
ENDCHAR
STARTCHAR 30c4
ENCODING 12484
SWIDTH 4320 0
DWIDTH 36 0
BBX 36 36 0 0
BITMAP
0000000000
0000000000
0000000000
0000000000
007C3E1F00
007C3E1F00
007C3E1F00
007C3E1F00
007C3E1F00
007C3E1F00
007C3E1F00
007C3E1F00
007C3E1F00
007C3E1F00
007C3E1F00
007C3E1F00
007C3E1F00
007C3E1F00
0000001F00
0000001F00
0000001F00
0000001F00
000003FF00
000003E000
000003E000
000003E000
000003E000
00003E0000
00003E0000
00003E0000
00003E0000
00003E0000
0000000000
0000000000
0000000000
0000000000
ENDCHAR
STARTCHAR 30c6
ENCODING 12486
SWIDTH 4320 0
DWIDTH 36 0
BBX 36 36 0 0
BITMAP
0007FFE000
0007FFE000
0007FFE000
0007FFE000
0007FFE000
0000000000
0000000000
0000000000
0000000000
007FFFFF00
007FFFFF00
007FFFFF00
007FFFFF00
007FFFFF00
00003E0000
00003E0000
00003E0000
00003E0000
00003E0000
00003E0000
00003E0000
00003E0000
00003E0000
00003E0000
00003E0000
00003E0000
00003E0000
0007C00000
0007C00000
0007C00000
0007C00000
0007C00000
0000000000
0000000000
0000000000
0000000000
ENDCHAR
STARTCHAR 30c8
ENCODING 12488
SWIDTH 4320 0
DWIDTH 36 0
BBX 36 36 0 0
BITMAP
0007C00000
0007C00000
0007C00000
0007C00000
0007C00000
0007C00000
0007C00000
0007C00000
0007C00000
0007C00000
0007C00000
0007C00000
0007C00000
0007FE0000
0007FE0000
0007FE0000
0007FE0000
0007FE0000
0007C3E000
0007C3E000
0007C3E000
0007C3E000
0007C3E000
0007C00000
0007C00000
0007C00000
0007C00000
0007C00000
0007C00000
0007C00000
0007C00000
0007C00000
0000000000
0000000000
0000000000
0000000000
ENDCHAR
STARTCHAR 30ca
ENCODING 12490
SWIDTH 4320 0
DWIDTH 36 0
BBX 36 36 0 0
BITMAP
00003E0000
00003E0000
00003E0000
00003E0000
00003E0000
00003E0000
00003E0000
00003E0000
00003E0000
007FFFFF00
007FFFFF00
007FFFFF00
007FFFFF00
007FFFFF00
00003E0000
00003E0000
00003E0000
00003E0000
00003E0000
00003E0000
00003E0000
00003E0000
0007FE0000
0007C00000
0007C00000
0007C00000
0007C00000
007C000000
007C000000
007C000000
007C000000
007C000000
0000000000
0000000000
0000000000
0000000000
ENDCHAR
STARTCHAR 30cb
ENCODING 12491
SWIDTH 4320 0
DWIDTH 36 0
BBX 36 36 0 0
BITMAP
0000000000
0000000000
0000000000
0000000000
0007FFE000
0007FFE000
0007FFE000
0007FFE000
0007FFE000
0000000000
0000000000
0000000000
0000000000
0000000000
0000000000
0000000000
0000000000
0000000000
0000000000
0000000000
0000000000
0000000000
0000000000
0000000000
0000000000
0000000000
0000000000
007FFFFF00
007FFFFF00
007FFFFF00
007FFFFF00
007FFFFF00
0000000000
0000000000
0000000000
0000000000
ENDCHAR
STARTCHAR 30cc
ENCODING 12492
SWIDTH 4320 0
DWIDTH 36 0
BBX 36 36 0 0
BITMAP
0000000000
0000000000
0000000000
0000000000
007FFFFF00
007FFFFF00
007FFFFF00
007FFFFF00
007FFFFF00
0000001F00
0000001F00
0000001F00
0000001F00
0007C3FF00
0007C3E000
0007C3E000
0007C3E000
0007C3E000
00003E0000
00003E0000
00003E0000
00003E0000
0007FFE000
0007C3E000
0007C3E000
0007C3E000
0007C3E000
007C000000
007C000000
007C000000
007C000000
007C000000
0000000000
0000000000
0000000000
0000000000
ENDCHAR
STARTCHAR 30cd
ENCODING 12493
SWIDTH 4320 0
DWIDTH 36 0
BBX 36 36 0 0
BITMAP
00003E0000
00003E0000
00003E0000
00003E0000
007FFFFF00
007FFFFF00
007FFFFF00
007FFFFF00
007FFFFF00
000003E000
000003E000
000003E000
000003E000
00003FE000
00003E0000
00003E0000
00003E0000
00003E0000
0007FFE000
0007FFE000
0007FFE000
0007FFE000
007FFFFF00
007C3E1F00
007C3E1F00
007C3E1F00
007C3E1F00
00003E0000
00003E0000
00003E0000
00003E0000
00003E0000
0000000000
0000000000
0000000000
0000000000
ENDCHAR
STARTCHAR 30ce
ENCODING 12494
SWIDTH 4320 0
DWIDTH 36 0
BBX 36 36 0 0
BITMAP
000003E000
000003E000
000003E000
000003E000
000003E000
000003E000
000003E000
000003E000
000003E000
000003E000
000003E000
000003E000
000003E000
000003E000
000003E000
000003E000
000003E000
000003E000
000003E000
000003E000
000003E000
000003E000
00003FE000
00003E0000
00003E0000
00003E0000
00003E0000
0007C00000
0007C00000
0007C00000
0007C00000
0007C00000
0000000000
0000000000
0000000000
0000000000
ENDCHAR
STARTCHAR 30cf
ENCODING 12495
SWIDTH 4320 0
DWIDTH 36 0
BBX 36 36 0 0
BITMAP
0000000000
0000000000
0000000000
0000000000
00003E0000
00003E0000
00003E0000
00003E0000
00003E0000
000003E000
000003E000
000003E000
000003E000
007C03FF00
007C001F00
007C001F00
007C001F00
007C001F00
007C001F00
007C001F00
007C001F00
007C001F00
007C001F00
007C001F00
007C001F00
007C001F00
007C001F00
007C001F00
007C001F00
007C001F00
007C001F00
007C001F00
0000000000
0000000000
0000000000
0000000000
ENDCHAR
STARTCHAR 30d2
ENCODING 12498
SWIDTH 4320 0
DWIDTH 36 0
BBX 36 36 0 0
BITMAP
007C000000
007C000000
007C000000
007C000000
007C000000
007C000000
007C000000
007C000000
007C000000
007FFFFF00
007FFFFF00
007FFFFF00
007FFFFF00
007FFFFF00
007C000000
007C000000
007C000000
007C000000
007C000000
007C000000
007C000000
007C000000
007C000000
007C000000
007C000000
007C000000
007C000000
0007FFFF00
0007FFFF00
0007FFFF00
0007FFFF00
0007FFFF00
0000000000
0000000000
0000000000
0000000000
ENDCHAR
STARTCHAR 30d5
ENCODING 12501
SWIDTH 4320 0
DWIDTH 36 0
BBX 36 36 0 0
BITMAP
0000000000
0000000000
0000000000
0000000000
007FFFFF00
007FFFFF00
007FFFFF00
007FFFFF00
007FFFFF00
0000001F00
0000001F00
0000001F00
0000001F00
0000001F00
0000001F00
0000001F00
0000001F00
0000001F00
0000001F00
0000001F00
0000001F00
0000001F00
000003FF00
000003E000
000003E000
000003E000
000003E000
0007FE0000
0007FE0000
0007FE0000
0007FE0000
0007FE0000
0000000000
0000000000
0000000000
0000000000
ENDCHAR
STARTCHAR 30d8
ENCODING 12504
SWIDTH 4320 0
DWIDTH 36 0
BBX 36 36 0 0
BITMAP
0000000000
0000000000
0000000000
0000000000
0007C00000
0007C00000
0007C00000
0007C00000
0007C00000
007C3E0000
007C3E0000
007C3E0000
007C3E0000
007C3FE000
000003E000
000003E000
000003E000
000003E000
0000001F00
0000001F00
0000001F00
0000001F00
0000001F00
0000001F00
0000001F00
0000001F00
0000001F00
0000000000
0000000000
0000000000
0000000000
0000000000
0000000000
0000000000
0000000000
0000000000
ENDCHAR
STARTCHAR 30db
ENCODING 12507
SWIDTH 4320 0
DWIDTH 36 0
BBX 36 36 0 0
BITMAP
00003E0000
00003E0000
00003E0000
00003E0000
007FFFFF00
007FFFFF00
007FFFFF00
007FFFFF00
007FFFFF00
00003E0000
00003E0000
00003E0000
00003E0000
00003E0000
00003E0000
00003E0000
00003E0000
00003E0000
007C3E1F00
007C3E1F00
007C3E1F00
007C3E1F00
007C3E1F00
007C3E1F00
007C3E1F00
007C3E1F00
007C3E1F00
00003E0000
00003E0000
00003E0000
00003E0000
00003E0000
0000000000
0000000000
0000000000
0000000000
ENDCHAR
STARTCHAR 30de
ENCODING 12510
SWIDTH 4320 0
DWIDTH 36 0
BBX 36 36 0 0
BITMAP
0000000000
0000000000
0000000000
0000000000
007FFFFF00
007FFFFF00
007FFFFF00
007FFFFF00
007FFFFF00
0000001F00
0000001F00
0000001F00
0000001F00
0000001F00
0000001F00
0000001F00
0000001F00
0000001F00
0007C3E000
0007C3E000
0007C3E000
0007C3E000
0007FFE000
00003E0000
00003E0000
00003E0000
00003E0000
000003E000
000003E000
000003E000
000003E000
000003E000
0000000000
0000000000
0000000000
0000000000
ENDCHAR
STARTCHAR 30df
ENCODING 12511
SWIDTH 4320 0
DWIDTH 36 0
BBX 36 36 0 0
BITMAP
0000000000
0000000000
0000000000
0000000000
0007FFE000
0007FFE000
0007FFE000
0007FFE000
0007FFE000
0000000000
0000000000
0000000000
0000000000
0007FFE000
0007FFE000
0007FFE000
0007FFE000
0007FFE000
0000000000
0000000000
0000000000
0000000000
007FFFE000
007FFFE000
007FFFE000
007FFFE000
007FFFE000
0000001F00
0000001F00
0000001F00
0000001F00
0000001F00
0000000000
0000000000
0000000000
0000000000
ENDCHAR
STARTCHAR 30e0
ENCODING 12512
SWIDTH 4320 0
DWIDTH 36 0
BBX 36 36 0 0
BITMAP
0000000000
0000000000
0000000000
0000000000
00003E0000
00003E0000
00003E0000
00003E0000
00003E0000
0007C00000
0007C00000
0007C00000
0007C00000
007FC00000
007C000000
007C000000
007C000000
007C000000
007C001F00
007C001F00
007C001F00
007C001F00
007FFFFF00
007FFFFF00
007FFFFF00
007FFFFF00
007FFFFF00
0000001F00
0000001F00
0000001F00
0000001F00
0000001F00
0000000000
0000000000
0000000000
0000000000
ENDCHAR
STARTCHAR 30e1
ENCODING 12513
SWIDTH 4320 0
DWIDTH 36 0
BBX 36 36 0 0
BITMAP
0000000000
0000000000
0000000000
0000000000
0000001F00
0000001F00
0000001F00
0000001F00
0000001F00
0000001F00
0000001F00
0000001F00
0000001F00
0007C3FF00
0007C3E000
0007C3E000
0007C3E000
0007C3E000
00003E0000
00003E0000
00003E0000
00003E0000
0007FFE000
0007C3E000
0007C3E000
0007C3E000
0007C3E000
007C000000
007C000000
007C000000
007C000000
007C000000
0000000000
0000000000
0000000000
0000000000
ENDCHAR
STARTCHAR 30e2
ENCODING 12514
SWIDTH 4320 0
DWIDTH 36 0
BBX 36 36 0 0
BITMAP
0000000000
0000000000
0000000000
0000000000
007FFFFF00
007FFFFF00
007FFFFF00
007FFFFF00
007FFFFF00
0007C00000
0007C00000
0007C00000
0007C00000
007FFFFF00
007FFFFF00
007FFFFF00
007FFFFF00
007FFFFF00
0007C00000
0007C00000
0007C00000
0007C00000
0007C00000
0007C00000
0007C00000
0007C00000
0007C00000
00003FFF00
00003FFF00
00003FFF00
00003FFF00
00003FFF00
0000000000
0000000000
0000000000
0000000000
ENDCHAR
STARTCHAR 30e3
ENCODING 12515
SWIDTH 4320 0
DWIDTH 36 0
BBX 36 36 0 0
BITMAP
0000000000
0000000000
0000000000
0000000000
0000000000
0000000000
0000000000
0000000000
0000000000
0007C00000
0007C00000
0007C00000
0007C00000
007FFFFF00
007FFFFF00
007FFFFF00
007FFFFF00
007FFFFF00
0007C01F00
0007C01F00
0007C01F00
0007C01F00
0007C3FF00
0007C3E000
0007C3E000
0007C3E000
0007C3E000
0007C00000
0007C00000
0007C00000
0007C00000
0007C00000
0000000000
0000000000
0000000000
0000000000
ENDCHAR
STARTCHAR 30e4
ENCODING 12516
SWIDTH 4320 0
DWIDTH 36 0
BBX 36 36 0 0
BITMAP
0007C00000
0007C00000
0007C00000
0007C00000
0007C00000
0007C00000
0007C00000
0007C00000
0007C00000
007FFFFF00
007FFFFF00
007FFFFF00
007FFFFF00
007FFFFF00
0007C01F00
0007C01F00
0007C01F00
0007C01F00
0007C3E000
0007C3E000
0007C3E000
0007C3E000
0007C3E000
0007C00000
0007C00000
0007C00000
0007C00000
0007C00000
0007C00000
0007C00000
0007C00000
0007C00000
0000000000
0000000000
0000000000
0000000000
ENDCHAR
STARTCHAR 30e5
ENCODING 12517
SWIDTH 4320 0
DWIDTH 36 0
BBX 36 36 0 0
BITMAP
0000000000
0000000000
0000000000
0000000000
0000000000
0000000000
0000000000
0000000000
0000000000
0000000000
0000000000
0000000000
0000000000
0007FFE000
0007FFE000
0007FFE000
0007FFE000
0007FFE000
000003E000
000003E000
000003E000
000003E000
000003E000
000003E000
000003E000
000003E000
000003E000
007FFFFF00
007FFFFF00
007FFFFF00
007FFFFF00
007FFFFF00
0000000000
0000000000
0000000000
0000000000
ENDCHAR
STARTCHAR 30e6
ENCODING 12518
SWIDTH 4320 0
DWIDTH 36 0
BBX 36 36 0 0
BITMAP
0000000000
0000000000
0000000000
0000000000
0007FFE000
0007FFE000
0007FFE000
0007FFE000
0007FFE000
000003E000
000003E000
000003E000
000003E000
000003E000
000003E000
000003E000
000003E000
000003E000
000003E000
000003E000
000003E000
000003E000
000003E000
000003E000
000003E000
000003E000
000003E000
007FFFFF00
007FFFFF00
007FFFFF00
007FFFFF00
007FFFFF00
0000000000
0000000000
0000000000
0000000000
ENDCHAR
STARTCHAR 30e7
ENCODING 12519
SWIDTH 4320 0
DWIDTH 36 0
BBX 36 36 0 0
BITMAP
0000000000
0000000000
0000000000
0000000000
0000000000
0000000000
0000000000
0000000000
0000000000
007FFFE000
007FFFE000
007FFFE000
007FFFE000
007FFFE000
000003E000
000003E000
000003E000
000003E000
007FFFE000
007FFFE000
007FFFE000
007FFFE000
007FFFE000
000003E000
000003E000
000003E000
000003E000
007FFFE000
007FFFE000
007FFFE000
007FFFE000
007FFFE000
0000000000
0000000000
0000000000
0000000000
ENDCHAR
STARTCHAR 30e8
ENCODING 12520
SWIDTH 4320 0
DWIDTH 36 0
BBX 36 36 0 0
BITMAP
0000000000
0000000000
0000000000
0000000000
007FFFFF00
007FFFFF00
007FFFFF00
007FFFFF00
007FFFFF00
0000001F00
0000001F00
0000001F00
0000001F00
007FFFFF00
007FFFFF00
007FFFFF00
007FFFFF00
007FFFFF00
0000001F00
0000001F00
0000001F00
0000001F00
0000001F00
0000001F00
0000001F00
0000001F00
0000001F00
007FFFFF00
007FFFFF00
007FFFFF00
007FFFFF00
007FFFFF00
0000000000
0000000000
0000000000
0000000000
ENDCHAR
STARTCHAR 30e9
ENCODING 12521
SWIDTH 4320 0
DWIDTH 36 0
BBX 36 36 0 0
BITMAP
0007FFE000
0007FFE000
0007FFE000
0007FFE000
0007FFE000
0000000000
0000000000
0000000000
0000000000
007FFFFF00
007FFFFF00
007FFFFF00
007FFFFF00
007FFFFF00
0000001F00
0000001F00
0000001F00
0000001F00
0000001F00
0000001F00
0000001F00
0000001F00
000003FF00
000003E000
000003E000
000003E000
000003E000
00003E0000
00003E0000
00003E0000
00003E0000
00003E0000
0000000000
0000000000
0000000000
0000000000
ENDCHAR
STARTCHAR 30ea
ENCODING 12522
SWIDTH 4320 0
DWIDTH 36 0
BBX 36 36 0 0
BITMAP
007C03E000
007C03E000
007C03E000
007C03E000
007C03E000
007C03E000
007C03E000
007C03E000
007C03E000
007C03E000
007C03E000
007C03E000
007C03E000
007C03E000
007C03E000
007C03E000
007C03E000
007C03E000
000003E000
000003E000
000003E000
000003E000
00003FE000
00003E0000
00003E0000
00003E0000
00003E0000
0007C00000
0007C00000
0007C00000
0007C00000
0007C00000
0000000000
0000000000
0000000000
0000000000
ENDCHAR
STARTCHAR 30eb
ENCODING 12523
SWIDTH 4320 0
DWIDTH 36 0
BBX 36 36 0 0
BITMAP
0000000000
0000000000
0000000000
0000000000
00003E0000
00003E0000
00003E0000
00003E0000
00003E0000
007C3E0000
007C3E0000
007C3E0000
007C3E0000
007C3E0000
007C3E0000
007C3E0000
007C3E0000
007C3E0000
007C3E1F00
007C3E1F00
007C3E1F00
007C3E1F00
007C3E1F00
007C3E1F00
007C3E1F00
007C3E1F00
007C3E1F00
007C3FE000
007C3FE000
007C3FE000
007C3FE000
007C3FE000
0000000000
0000000000
0000000000
0000000000
ENDCHAR
STARTCHAR 30ec
ENCODING 12524
SWIDTH 4320 0
DWIDTH 36 0
BBX 36 36 0 0
BITMAP
0000000000
0000000000
0000000000
0000000000
007C000000
007C000000
007C000000
007C000000
007C000000
007C000000
007C000000
007C000000
007C000000
007C001F00
007C001F00
007C001F00
007C001F00
007C001F00
007C03E000
007C03E000
007C03E000
007C03E000
007C3FE000
007C3E0000
007C3E0000
007C3E0000
007C3E0000
007FC00000
007FC00000
007FC00000
007FC00000
007FC00000
0000000000
0000000000
0000000000
0000000000
ENDCHAR
STARTCHAR 30ed
ENCODING 12525
SWIDTH 4320 0
DWIDTH 36 0
BBX 36 36 0 0
BITMAP
0000000000
0000000000
0000000000
0000000000
007FFFFF00
007FFFFF00
007FFFFF00
007FFFFF00
007FFFFF00
007C001F00
007C001F00
007C001F00
007C001F00
007C001F00
007C001F00
007C001F00
007C001F00
007C001F00
007C001F00
007C001F00
007C001F00
007C001F00
007C001F00
007C001F00
007C001F00
007C001F00
007C001F00
007FFFFF00
007FFFFF00
007FFFFF00
007FFFFF00
007FFFFF00
0000000000
0000000000
0000000000
0000000000
ENDCHAR
STARTCHAR 30ef
ENCODING 12527
SWIDTH 4320 0
DWIDTH 36 0
BBX 36 36 0 0
BITMAP
0000000000
0000000000
0000000000
0000000000
007FFFFF00
007FFFFF00
007FFFFF00
007FFFFF00
007FFFFF00
007C001F00
007C001F00
007C001F00
007C001F00
007C001F00
007C001F00
007C001F00
007C001F00
007C001F00
0000001F00
0000001F00
0000001F00
0000001F00
000003FF00
000003E000
000003E000
000003E000
000003E000
00003E0000
00003E0000
00003E0000
00003E0000
00003E0000
0000000000
0000000000
0000000000
0000000000
ENDCHAR
STARTCHAR 30f2
ENCODING 12530
SWIDTH 4320 0
DWIDTH 36 0
BBX 36 36 0 0
BITMAP
0000000000
0000000000
0000000000
0000000000
007FFFFF00
007FFFFF00
007FFFFF00
007FFFFF00
007FFFFF00
0000001F00
0000001F00
0000001F00
0000001F00
007FFFFF00
007FFFFF00
007FFFFF00
007FFFFF00
007FFFFF00
0000001F00
0000001F00
0000001F00
0000001F00
000003FF00
000003E000
000003E000
000003E000
000003E000
00003E0000
00003E0000
00003E0000
00003E0000
00003E0000
0000000000
0000000000
0000000000
0000000000
ENDCHAR
STARTCHAR 30f3
ENCODING 12531
SWIDTH 4320 0
DWIDTH 36 0
BBX 36 36 0 0
BITMAP
0000000000
0000000000
0000000000
0000000000
007FC00000
007FC00000
007FC00000
007FC00000
007FC00000
0000000000
0000000000
0000000000
0000000000
0000001F00
0000001F00
0000001F00
0000001F00
0000001F00
0000001F00
0000001F00
0000001F00
0000001F00
000003FF00
000003E000
000003E000
000003E000
000003E000
007FFE0000
007FFE0000
007FFE0000
007FFE0000
007FFE0000
0000000000
0000000000
0000000000
0000000000
ENDCHAR
STARTCHAR 30fb
ENCODING 12539
SWIDTH 4320 0
DWIDTH 36 0
BBX 36 36 0 0
BITMAP
0000000000
0000000000
0000000000
0000000000
0000000000
0000000000
0000000000
0000000000
0000000000
0000000000
0000000000
0000000000
0000000000
0000000000
0000000000
0000000000
0000000000
0000000000
0000000000
0000000000
0000000000
0000000000
0000000000
0000000000
0000000000
0000000000
0000000000
007C000000
007C000000
007C000000
007C000000
007C000000
0000000000
0000000000
0000000000
0000000000
ENDCHAR
STARTCHAR 30fc
ENCODING 12540
SWIDTH 4320 0
DWIDTH 36 0
BBX 36 36 0 0
BITMAP
0000000000
0000000000
0000000000
0000000000
0000000000
0000000000
0000000000
0000000000
0000000000
0000000000
0000000000
0000000000
0000000000
0007FFE000
0007FFE000
0007FFE000
0007FFE000
0007FFE000
0000000000
0000000000
0000000000
0000000000
0000000000
0000000000
0000000000
0000000000
0000000000
0000000000
0000000000
0000000000
0000000000
0000000000
0000000000
0000000000
0000000000
0000000000
ENDCHAR
STARTCHAR 4eba
ENCODING 20154
SWIDTH 4320 0
DWIDTH 36 0
BBX 36 36 0 0
BITMAP
0007FFE000
0007FFE000
0007FFE000
0007FFE000
0007FFE000
0007FFE000
0007FFE000
0007FFE000
0007FFE000
00003E0000
00003E0000
00003E0000
00003E0000
007FFFFF00
007FFFFF00
007FFFFF00
007FFFFF00
007FFFFF00
00003E0000
00003E0000
00003E0000
00003E0000
00003E0000
00003E0000
00003E0000
00003E0000
00003E0000
0007C3E000
0007C3E000
0007C3E000
0007C3E000
007FC3FF00
007C001F00
007C001F00
007C001F00
007C001F00
ENDCHAR
STARTCHAR 5012
ENCODING 20498
SWIDTH 4320 0
DWIDTH 36 0
BBX 36 36 0 0
BITMAP
0000000000
0000000000
0000000000
0000000000
F8003E0000
F8003E0000
F8003E0000
F8003E0000
F8003E0000
0F803E1FF0
0F803E1FF0
0F803E1FF0
0F803E1FF0
0FFFFFFFF0
007FFFFFF0
007FFFFFF0
007FFFFFF0
007FFFFFF0
0F803E1FF0
0F803E1FF0
0F803E1FF0
0F803E1FF0
FF803E1FF0
F8003E0000
F8003E0000
F8003E0000
F8003E0000
0000000000
0000000000
0000000000
0000000000
0000000000
0000000000
0000000000
0000000000
0000000000
ENDCHAR
STARTCHAR 516b
ENCODING 20843
SWIDTH 4320 0
DWIDTH 36 0
BBX 36 36 0 0
BITMAP
0000000000
0000000000
0000000000
0000000000
0007C001F0
0007C001F0
0007C001F0
0007C001F0
0007C001F0
FF87C01F00
FF87C01F00
FF87C01F00
FF87C01F00
FFFFFFFF00
FFFFFFE000
FFFFFFE000
FFFFFFE000
FFFFFFE000
FF87C01F00
FF87C01F00
FF87C01F00
FF87C01F00
FF87C01FF0
0007C001F0
0007C001F0
0007C001F0
0007C001F0
0000000000
0000000000
0000000000
0000000000
0000000000
0000000000
0000000000
0000000000
0000000000
ENDCHAR
STARTCHAR 5186
ENCODING 20870
SWIDTH 4320 0
DWIDTH 36 0
BBX 36 36 0 0
BITMAP
0FFFFFFFF0
0FFFFFFFF0
0FFFFFFFF0
0FFFFFFFF0
0FFFFFFFF0
0F803E01F0
0F803E01F0
0F803E01F0
0F803E01F0
0F803E01F0
0F803E01F0
0F803E01F0
0F803E01F0
0FFFFFFFF0
0FFFFFFFF0
0FFFFFFFF0
0FFFFFFFF0
0FFFFFFFF0
0F800001F0
0F800001F0
0F800001F0
0F800001F0
0F800001F0
0F800001F0
0F800001F0
0F800001F0
0F800001F0
0F800001F0
0F800001F0
0F800001F0
0F800001F0
0F800001F0
0000000000
0000000000
0000000000
0000000000
ENDCHAR
STARTCHAR 5206
ENCODING 20998
SWIDTH 4320 0
DWIDTH 36 0
BBX 36 36 0 0
BITMAP
00003E0000
00003E0000
00003E0000
00003E0000
0007FFE000
0007C3E000
0007C3E000
0007C3E000
0007C3E000
007C001F00
007C001F00
007C001F00
007C001F00
0FFFFFFFF0
0FFFFFFFF0
0FFFFFFFF0
0FFFFFFFF0
0FFFFFFFF0
0007C01F00
0007C01F00
0007C01F00
0007C01F00
0007C01F00
0007C01F00
0007C01F00
0007C01F00
0007C01F00
007C03E000
007C03E000
007C03E000
007C03E000
007C03E000
0000000000
0000000000
0000000000
0000000000
ENDCHAR
STARTCHAR 53cd
ENCODING 21453
SWIDTH 4320 0
DWIDTH 36 0
BBX 36 36 0 0
BITMAP
F8003E0000
F8003E0000
F8003E0000
F8003E0000
F807FE0000
F807C00000
F807C00000
F807C00000
F807C00000
F87C000000
F87C000000
F87C000000
F87C000000
FFFC000000
FF80000000
FF80000000
FF80000000
FF80000000
FF80000000
FF80000000
FF80000000
FF80000000
FFFC3E0000
F87C3E0000
F87C3E0000
F87C3E0000
F87C3E0000
F807FE0000
F807FE0000
F807FE0000
F807FE0000
F87FFE0000
F87FFE0000
F87FFE0000
F87FFE0000
F87FFE0000
ENDCHAR
STARTCHAR 571f
ENCODING 22303
SWIDTH 4320 0
DWIDTH 36 0
BBX 36 36 0 0
BITMAP
0000000000
0000000000
0000000000
0000000000
00003E0000
00003E0000
00003E0000
00003E0000
00003E0000
00003E0000
00003E0000
00003E0000
00003E0000
007FFFFF00
007FFFFF00
007FFFFF00
007FFFFF00
007FFFFF00
00003E0000
00003E0000
00003E0000
00003E0000
00003E0000
00003E0000
00003E0000
00003E0000
00003E0000
0FFFFFFFF0
0FFFFFFFF0
0FFFFFFFF0
0FFFFFFFF0
0FFFFFFFF0
0000000000
0000000000
0000000000
0000000000
ENDCHAR
STARTCHAR 5c04
ENCODING 23556
SWIDTH 4320 0
DWIDTH 36 0
BBX 36 36 0 0
BITMAP
F87C3E0000
F87C3E0000
F87C3E0000
F87C3E0000
F87FFE0000
F87FC00000
F87FC00000
F87FC00000
F87FC00000
F87FFE0000
F87FFE0000
F87FFE0000
F87FFE0000
FFFFFE0000
FF80000000
FF80000000
FF80000000
FF80000000
FF80000000
FF80000000
FF80000000
FF80000000
FFFC000000
F87C000000
F87C000000
F87C000000
F87C000000
F807C00000
F807C00000
F807C00000
F807C00000
F807FE0000
F8003E0000
F8003E0000
F8003E0000
F8003E0000
ENDCHAR
STARTCHAR 5e74
ENCODING 24180
SWIDTH 4320 0
DWIDTH 36 0
BBX 36 36 0 0
BITMAP
007C000000
007C000000
007C000000
007C000000
007FFFFF00
007FFFFF00
007FFFFF00
007FFFFF00
007FFFFF00
0F803E0000
0F803E0000
0F803E0000
0F803E0000
0FFFFFE000
007FFFE000
007FFFE000
007FFFE000
007FFFE000
007C3E0000
007C3E0000
007C3E0000
007C3E0000
0FFFFFFF00
0FFFFFFF00
0FFFFFFF00
0FFFFFFF00
0FFFFFFF00
00003E0000
00003E0000
00003E0000
00003E0000
00003E0000
0000000000
0000000000
0000000000
0000000000
ENDCHAR
STARTCHAR 62bc
ENCODING 25276
SWIDTH 4320 0
DWIDTH 36 0
BBX 36 36 0 0
BITMAP
0007FFE000
0007FFE000
0007FFE000
0007FFE000
0007FFE000
0007FFE000
0007FFE000
0007FFE000
0007FFE000
007FFFFF00
007FFFFF00
007FFFFF00
007FFFFF00
007FFFFF00
0007FFE000
0007FFE000
0007FFE000
0007FFE000
00003E0000
00003E0000
00003E0000
00003E0000
00003E0000
0000000000
0000000000
0000000000
0000000000
007FFFFF00
007FFFFF00
007FFFFF00
007FFFFF00
007FFFFF00
0000000000
0000000000
0000000000
0000000000
ENDCHAR
STARTCHAR 65e5
ENCODING 26085
SWIDTH 4320 0
DWIDTH 36 0
BBX 36 36 0 0
BITMAP
007FFFFF00
007FFFFF00
007FFFFF00
007FFFFF00
007FFFFF00
007C001F00
007C001F00
007C001F00
007C001F00
007C001F00
007C001F00
007C001F00
007C001F00
007FFFFF00
007FFFFF00
007FFFFF00
007FFFFF00
007FFFFF00
007C001F00
007C001F00
007C001F00
007C001F00
007C001F00
007C001F00
007C001F00
007C001F00
007C001F00
007FFFFF00
007FFFFF00
007FFFFF00
007FFFFF00
007FFFFF00
0000000000
0000000000
0000000000
0000000000
ENDCHAR
STARTCHAR 661f
ENCODING 26143
SWIDTH 4320 0
DWIDTH 36 0
BBX 36 36 0 0
BITMAP
0000000000
0000000000
0000000000
0000000000
007C001FF0
007C001FF0
007C001FF0
007C001FF0
007C001FF0
007C03E1F0
007C03E1F0
007C03E1F0
007C03E1F0
007C3FE1F0
007C3E01F0
007C3E01F0
007C3E01F0
007C3E01F0
FFFFC001F0
FFFFC001F0
FFFFC001F0
FFFFC001F0
FFFFFE01F0
007C3E01F0
007C3E01F0
007C3E01F0
007C3E01F0
007C03E1F0
007C03E1F0
007C03E1F0
007C03E1F0
007C03FFF0
007C001FF0
007C001FF0
007C001FF0
007C001FF0
ENDCHAR
STARTCHAR 6642
ENCODING 26178
SWIDTH 4320 0
DWIDTH 36 0
BBX 36 36 0 0
BITMAP
000003E000
000003E000
000003E000
000003E000
0FFFFFFF00
0FFFFFFF00
0FFFFFFF00
0FFFFFFF00
0FFFFFFF00
0F87C3E000
0F87C3E000
0F87C3E000
0F87C3E000
0FFFFFFFF0
0FFFFFFFF0
0FFFFFFFF0
0FFFFFFFF0
0FFFFFFFF0
0F87C01F00
0F87C01F00
0F87C01F00
0F87C01F00
0FFFFFFFF0
0FFFFFFFF0
0FFFFFFFF0
0FFFFFFFF0
0FFFFFFFF0
00003E1F00
00003E1F00
00003E1F00
00003E1F00
00003E1F00
0000000000
0000000000
0000000000
0000000000
ENDCHAR
STARTCHAR 6708
ENCODING 26376
SWIDTH 4320 0
DWIDTH 36 0
BBX 36 36 0 0
BITMAP
007FFFFF00
007FFFFF00
007FFFFF00
007FFFFF00
007FFFFF00
007C001F00
007C001F00
007C001F00
007C001F00
007FFFFF00
007FFFFF00
007FFFFF00
007FFFFF00
007FFFFF00
007C001F00
007C001F00
007C001F00
007C001F00
007FFFFF00
007FFFFF00
007FFFFF00
007FFFFF00
007FFFFF00
007C001F00
007C001F00
007C001F00
007C001F00
0F80001F00
0F80001F00
0F80001F00
0F80001F00
0F80001F00
0000000000
0000000000
0000000000
0000000000
ENDCHAR
STARTCHAR 6728
ENCODING 26408
SWIDTH 4320 0
DWIDTH 36 0
BBX 36 36 0 0
BITMAP
00003E0000
00003E0000
00003E0000
00003E0000
00003E0000
00003E0000
00003E0000
00003E0000
00003E0000
007FFFFF00
007FFFFF00
007FFFFF00
007FFFFF00
007FFFFF00
00003E0000
00003E0000
00003E0000
00003E0000
0007FFE000
0007FFE000
0007FFE000
0007FFE000
007FFFFF00
007C3E1F00
007C3E1F00
007C3E1F00
007C3E1F00
0F803E01F0
0F803E01F0
0F803E01F0
0F803E01F0
0F803E01F0
0000000000
0000000000
0000000000
0000000000
ENDCHAR
STARTCHAR 672a
ENCODING 26410
SWIDTH 4320 0
DWIDTH 36 0
BBX 36 36 0 0
BITMAP
0007FE0000
0007FE0000
0007FE0000
0007FE0000
007FFFE000
007C03E000
007C03E000
007C03E000
007C03E000
0FFFFFFF00
0FFFFFFF00
0FFFFFFF00
0FFFFFFF00
FFFFFFFFF0
FFFFFFFFF0
FFFFFFFFF0
FFFFFFFFF0
FFFFFFFFF0
0F87FE1F00
0F87FE1F00
0F87FE1F00
0F87FE1F00
0FFFFFFF00
007C03E000
007C03E000
007C03E000
007C03E000
0000000000
0000000000
0000000000
0000000000
0000000000
0000000000
0000000000
0000000000
0000000000
ENDCHAR
STARTCHAR 6a2a
ENCODING 27178
SWIDTH 4320 0
DWIDTH 36 0
BBX 36 36 0 0
BITMAP
FFFC000000
FFFC000000
FFFC000000
FFFC000000
FFFC03FFF0
0F8003FFF0
0F8003FFF0
0F8003FFF0
0F8003FFF0
0F80001F00
0F80001F00
0F80001F00
0F80001F00
0FFFFFFF00
0FFFFFFF00
0FFFFFFF00
0FFFFFFF00
0FFFFFFF00
0F80001F00
0F80001F00
0F80001F00
0F80001F00
0F8003FFF0
0F8003FFF0
0F8003FFF0
0F8003FFF0
0F8003FFF0
FFFC000000
FFFC000000
FFFC000000
FFFC000000
FFFC000000
0000000000
0000000000
0000000000
0000000000
ENDCHAR
STARTCHAR 6c34
ENCODING 27700
SWIDTH 4320 0
DWIDTH 36 0
BBX 36 36 0 0
BITMAP
00003E0000
00003E0000
00003E0000
00003E0000
00003E01F0
00003E01F0
00003E01F0
00003E01F0
00003E01F0
007FFE1F00
007FFE1F00
007FFE1F00
007FFE1F00
007FFFFF00
00003FE000
00003FE000
00003FE000
00003FE000
0007FFE000
0007FFE000
0007FFE000
0007FFE000
007FFFFF00
007C3E1F00
007C3E1F00
007C3E1F00
007C3E1F00
0F803E01F0
0F803E01F0
0F803E01F0
0F803E01F0
0F803E01F0
0000000000
0000000000
0000000000
0000000000
ENDCHAR
STARTCHAR 6c60
ENCODING 27744
SWIDTH 4320 0
DWIDTH 36 0
BBX 36 36 0 0
BITMAP
00003E0000
00003E0000
00003E0000
00003E0000
00003E0000
00003E0000
00003E0000
00003E0000
00003E0000
007FFFFF00
007FFFFF00
007FFFFF00
007FFFFF00
007FFFFF00
0000000000
0000000000
0000000000
0000000000
0000000000
0000000000
0000000000
0000000000
007FFFFF00
007FFFFF00
007FFFFF00
007FFFFF00
007FFFFF00
00003E0000
00003E0000
00003E0000
00003E0000
00003E0000
00003E0000
00003E0000
00003E0000
00003E0000
ENDCHAR
STARTCHAR 706b
ENCODING 28779
SWIDTH 4320 0
DWIDTH 36 0
BBX 36 36 0 0
BITMAP
00003E0000
00003E0000
00003E0000
00003E0000
007C3E1F00
007C3E1F00
007C3E1F00
007C3E1F00
007C3E1F00
007C3E1F00
007C3E1F00
007C3E1F00
007C3E1F00
007C3E1F00
00003E0000
00003E0000
00003E0000
00003E0000
0007C3E000
0007C3E000
0007C3E000
0007C3E000
007FC3FF00
007C001F00
007C001F00
007C001F00
007C001F00
0F800001F0
0F800001F0
0F800001F0
0F800001F0
0F800001F0
0000000000
0000000000
0000000000
0000000000
ENDCHAR
STARTCHAR 751f
ENCODING 29983
SWIDTH 4320 0
DWIDTH 36 0
BBX 36 36 0 0
BITMAP
00003E0000
00003E0000
00003E0000
00003E0000
0F803E0000
0F803E0000
0F803E0000
0F803E0000
0F803E0000
0FFFFFFF00
0FFFFFFF00
0FFFFFFF00
0FFFFFFF00
0FFFFFFF00
0F803E0000
0F803E0000
0F803E0000
0F803E0000
007FFFFF00
007FFFFF00
007FFFFF00
007FFFFF00
007FFFFF00
00003E0000
00003E0000
00003E0000
00003E0000
0FFFFFFFF0
0FFFFFFFF0
0FFFFFFFF0
0FFFFFFFF0
0FFFFFFFF0
0000000000
0000000000
0000000000
0000000000
ENDCHAR
STARTCHAR 79d2
ENCODING 31186
SWIDTH 4320 0
DWIDTH 36 0
BBX 36 36 0 0
BITMAP
007FFE0000
007FFE0000
007FFE0000
007FFE0000
007FFE1F00
0007C01F00
0007C01F00
0007C01F00
0007C01F00
0FFFFFFFF0
0FFFFFFFF0
0FFFFFFFF0
0FFFFFFFF0
0FFFFFFFF0
0007C3FFF0
0007C3FFF0
0007C3FFF0
0007C3FFF0
007FFE1FF0
007FFE1FF0
007FFE1FF0
007FFE1FF0
0FFFFE1FF0
0F87C01F00
0F87C01F00
0F87C01F00
0F87C01F00
0007C3E000
0007C3E000
0007C3E000
0007C3E000
0007C3E000
0000000000
0000000000
0000000000
0000000000
ENDCHAR
STARTCHAR 86c7
ENCODING 34503
SWIDTH 4320 0
DWIDTH 36 0
BBX 36 36 0 0
BITMAP
0000000000
0000000000
0000000000
0000000000
FF80000000
FF80000000
FF80000000
FF80000000
FF80000000
FF803E0000
FF803E0000
FF803E0000
FF803E0000
FF87FFE000
0F87C3E000
0F87C3E000
0F87C3E000
0F87C3E000
0F87C3E000
0F87C3E000
0F87C3E000
0F87C3E000
0F87C3E1F0
0F87C3E1F0
0F87C3E1F0
0F87C3E1F0
0F87C3E1F0
007C001F00
007C001F00
007C001F00
007C001F00
007C001F00
0000000000
0000000000
0000000000
0000000000
ENDCHAR
STARTCHAR 885b
ENCODING 34907
SWIDTH 4320 0
DWIDTH 36 0
BBX 36 36 0 0
BITMAP
0000000000
0000000000
0000000000
0000000000
FF8003E000
FF8003E000
FF8003E000
FF8003E000
FF8003E000
F87C03E000
F87C03E000
F87C03E000
F87C03E000
F87FC3E000
F807C3E000
F807C3E000
F807C3E000
F807C3E000
F8003FFFF0
F8003FFFF0
F8003FFFF0
F8003FFFF0
F807FFFFF0
F807C3E000
F807C3E000
F807C3E000
F807C3E000
F87C03E000
F87C03E000
F87C03E000
F87C03E000
FFFC03E000
FF8003E000
FF8003E000
FF8003E000
FF8003E000
ENDCHAR
STARTCHAR 8eca
ENCODING 36554
SWIDTH 4320 0
DWIDTH 36 0
BBX 36 36 0 0
BITMAP
007C001F00
007C001F00
007C001F00
007C001F00
007FFFFF00
007FFFFF00
007FFFFF00
007FFFFF00
007FFFFF00
007C3E1F00
007C3E1F00
007C3E1F00
007C3E1F00
007C3E1F00
00003E0000
00003E0000
00003E0000
00003E0000
00003E0000
00003E0000
00003E0000
00003E0000
0F803E01F0
0F803E01F0
0F803E01F0
0F803E01F0
0F803E01F0
0FFFFFFFF0
0FFFFFFFF0
0FFFFFFFF0
0FFFFFFFF0
0FFFFFFFF0
0F800001F0
0F800001F0
0F800001F0
0F800001F0
ENDCHAR
STARTCHAR 9006
ENCODING 36870
SWIDTH 4320 0
DWIDTH 36 0
BBX 36 36 0 0
BITMAP
007C001F00
007C001F00
007C001F00
007C001F00
007FC3FF00
0007C3E000
0007C3E000
0007C3E000
0007C3E000
00003E0000
00003E0000
00003E0000
00003E0000
00003E0000
00003E0000
00003E0000
00003E0000
00003E0000
007FFFFF00
007FFFFF00
007FFFFF00
007FFFFF00
007FFFFF00
00003E0000
00003E0000
00003E0000
00003E0000
0007FFE000
0007FFE000
0007FFE000
0007FFE000
0007FFE000
0007FFE000
0007FFE000
0007FFE000
0007FFE000
ENDCHAR
STARTCHAR 91d1
ENCODING 37329
SWIDTH 4320 0
DWIDTH 36 0
BBX 36 36 0 0
BITMAP
00003E0000
00003E0000
00003E0000
00003E0000
0007FFE000
0007C3E000
0007C3E000
0007C3E000
0007C3E000
007FFFFF00
007FFFFF00
007FFFFF00
007FFFFF00
0FFFFFFFF0
0F803E01F0
0F803E01F0
0F803E01F0
0F803E01F0
007FFFFF00
007FFFFF00
007FFFFF00
007FFFFF00
007FFFFF00
0007FFE000
0007FFE000
0007FFE000
0007FFE000
0FFFFFFFF0
0FFFFFFFF0
0FFFFFFFF0
0FFFFFFFF0
0FFFFFFFF0
0000000000
0000000000
0000000000
0000000000
ENDCHAR
STARTCHAR 96fb
ENCODING 38651
SWIDTH 4320 0
DWIDTH 36 0
BBX 36 36 0 0
BITMAP
0000000000
0000000000
0000000000
0000000000
0000000000
0000000000
0000000000
0000000000
0000000000
007C03E000
007C03E000
007C03E000
007C03E000
007C03E000
007C03E000
007C03E000
007C03E000
007C03E000
FFFC03FFF0
FFFC03FFF0
FFFC03FFF0
FFFC03FFF0
FFFC03FFF0
007C03E000
007C03E000
007C03E000
007C03E000
007C03E000
007C03E000
007C03E000
007C03E000
007C03E000
0000000000
0000000000
0000000000
0000000000
ENDCHAR
STARTCHAR ff01
ENCODING 65281
SWIDTH 4320 0
DWIDTH 36 0
BBX 36 36 0 0
BITMAP
00003E0000
00003E0000
00003E0000
00003E0000
0007FE0000
0007C00000
0007C00000
0007C00000
0007C00000
007C000000
007C000000
007C000000
007C000000
007FC00000
0007C00000
0007C00000
0007C00000
0007C00000
00003E0000
00003E0000
00003E0000
00003E0000
00003FE000
000003E000
000003E000
000003E000
000003E000
0000001F00
0000001F00
0000001F00
0000001F00
000003FF00
000003E000
000003E000
000003E000
000003E000
ENDCHAR
STARTCHAR ff0c
ENCODING 65292
SWIDTH 4320 0
DWIDTH 36 0
BBX 36 36 0 0
BITMAP
0000000000
0000000000
0000000000
0000000000
0000000000
0000000000
0000000000
0000000000
0000000000
0000000000
0000000000
0000000000
0000000000
0000000000
0000000000
0000000000
0000000000
0000000000
0000000000
0000000000
0000000000
0000000000
0F80000000
0F80000000
0F80000000
0F80000000
0F80000000
007C000000
007C000000
007C000000
007C000000
007FC00000
0007C00000
0007C00000
0007C00000
0007C00000
ENDCHAR
STARTCHAR ff0e
ENCODING 65294
SWIDTH 4320 0
DWIDTH 36 0
BBX 36 36 0 0
BITMAP
0000000000
0000000000
0000000000
0000000000
0000000000
0000000000
0000000000
0000000000
0000000000
0000000000
0000000000
0000000000
0000000000
0000000000
0000000000
0000000000
0000000000
0000000000
0000000000
0000000000
0000000000
0000000000
0000000000
0000000000
0000000000
0000000000
0000000000
007C000000
007C000000
007C000000
007C000000
007C000000
0000000000
0000000000
0000000000
0000000000
ENDCHAR
STARTCHAR ff0f
ENCODING 65295
SWIDTH 4320 0
DWIDTH 36 0
BBX 36 36 0 0
BITMAP
00000001F0
00000001F0
00000001F0
00000001F0
0000001FF0
0000001F00
0000001F00
0000001F00
0000001F00
000003E000
000003E000
000003E000
000003E000
00003FE000
00003E0000
00003E0000
00003E0000
00003E0000
0007C00000
0007C00000
0007C00000
0007C00000
007FC00000
007C000000
007C000000
007C000000
007C000000
0F80000000
0F80000000
0F80000000
0F80000000
FF80000000
F800000000
F800000000
F800000000
F800000000
ENDCHAR
STARTCHAR ff11
ENCODING 65297
SWIDTH 4320 0
DWIDTH 36 0
BBX 36 36 0 0
BITMAP
0000000000
0000000000
0000000000
0000000000
0000000000
0000000000
0000000000
0000000000
0000000000
0000000000
0000000000
0000000000
0000000000
0000000000
0000000000
0000000000
0000000000
0000000000
0000000000
0000000000
0000000000
0000000000
0000000000
0000000000
0000000000
0000000000
0000000000
FFFFFFFFF0
FFFFFFFFF0
FFFFFFFFF0
FFFFFFFFF0
FFFFFFFFF0
0000000000
0000000000
0000000000
0000000000
ENDCHAR
STARTCHAR ff12
ENCODING 65298
SWIDTH 4320 0
DWIDTH 36 0
BBX 36 36 0 0
BITMAP
0000000000
0000000000
0000000000
0000000000
0000000000
0000000000
0000000000
0000000000
0000000000
0000000000
0000000000
0000000000
0000000000
0000000000
0000000000
0000000000
0000000000
0000000000
0000000000
0000000000
0000000000
0000000000
FFFFFFFFF0
FFFFFFFFF0
FFFFFFFFF0
FFFFFFFFF0
FFFFFFFFF0
0000000000
0000000000
0000000000
0000000000
0000000000
0000000000
0000000000
0000000000
0000000000
ENDCHAR
STARTCHAR ff13
ENCODING 65299
SWIDTH 4320 0
DWIDTH 36 0
BBX 36 36 0 0
BITMAP
0000000000
0000000000
0000000000
0000000000
0000000000
0000000000
0000000000
0000000000
0000000000
0000000000
0000000000
0000000000
0000000000
FFFFFFFFF0
FFFFFFFFF0
FFFFFFFFF0
FFFFFFFFF0
FFFFFFFFF0
0000000000
0000000000
0000000000
0000000000
0000000000
0000000000
0000000000
0000000000
0000000000
0000000000
0000000000
0000000000
0000000000
0000000000
0000000000
0000000000
0000000000
0000000000
ENDCHAR
STARTCHAR ff14
ENCODING 65300
SWIDTH 4320 0
DWIDTH 36 0
BBX 36 36 0 0
BITMAP
0000000000
0000000000
0000000000
0000000000
0000000000
0000000000
0000000000
0000000000
0000000000
FFFFFFFFF0
FFFFFFFFF0
FFFFFFFFF0
FFFFFFFFF0
FFFFFFFFF0
0000000000
0000000000
0000000000
0000000000
0000000000
0000000000
0000000000
0000000000
0000000000
0000000000
0000000000
0000000000
0000000000
0000000000
0000000000
0000000000
0000000000
0000000000
0000000000
0000000000
0000000000
0000000000
ENDCHAR
STARTCHAR ff15
ENCODING 65301
SWIDTH 4320 0
DWIDTH 36 0
BBX 36 36 0 0
BITMAP
0000000000
0000000000
0000000000
0000000000
FFFFFFFFF0
FFFFFFFFF0
FFFFFFFFF0
FFFFFFFFF0
FFFFFFFFF0
0000000000
0000000000
0000000000
0000000000
0000000000
0000000000
0000000000
0000000000
0000000000
0000000000
0000000000
0000000000
0000000000
0000000000
0000000000
0000000000
0000000000
0000000000
0000000000
0000000000
0000000000
0000000000
0000000000
0000000000
0000000000
0000000000
0000000000
ENDCHAR
STARTCHAR ff1c
ENCODING 65308
SWIDTH 4320 0
DWIDTH 36 0
BBX 36 36 0 0
BITMAP
0000000000
0000000000
0000000000
0000000000
0FFFC00000
0FFFC00000
0FFFC00000
0FFFC00000
0FFFC00000
F8003E0000
F8003E0000
F8003E0000
F8003E0000
FF803FE000
0F8003E000
0F8003E000
0F8003E000
0F8003E000
007C001FF0
007C001FF0
007C001FF0
007C001FF0
007C001FF0
007C000000
007C000000
007C000000
007C000000
0F80000000
0F80000000
0F80000000
0F80000000
FF80000000
F800000000
F800000000
F800000000
F800000000
ENDCHAR
STARTCHAR ff1d
ENCODING 65309
SWIDTH 4320 0
DWIDTH 36 0
BBX 36 36 0 0
BITMAP
0000000000
0000000000
0000000000
0000000000
FFFFFFFFF0
FFFFFFFFF0
FFFFFFFFF0
FFFFFFFFF0
FFFFFFFFF0
0000000000
0000000000
0000000000
0000000000
F8000001F0
F8000001F0
F8000001F0
F8000001F0
F8000001F0
0F80001F00
0F80001F00
0F80001F00
0F80001F00
0F80001F00
0F80001F00
0F80001F00
0F80001F00
0F80001F00
F8000001F0
F8000001F0
F8000001F0
F8000001F0
F8000001F0
0000000000
0000000000
0000000000
0000000000
ENDCHAR
STARTCHAR ff1e
ENCODING 65310
SWIDTH 4320 0
DWIDTH 36 0
BBX 36 36 0 0
BITMAP
0000000000
0000000000
0000000000
0000000000
00003FFF00
00003FFF00
00003FFF00
00003FFF00
00003FFF00
0007C001F0
0007C001F0
0007C001F0
0007C001F0
007FC01FF0
007C001F00
007C001F00
007C001F00
007C001F00
FF8003E000
FF8003E000
FF8003E000
FF8003E000
FF8003E000
000003E000
000003E000
000003E000
000003E000
0000001F00
0000001F00
0000001F00
0000001F00
0000001FF0
00000001F0
00000001F0
00000001F0
00000001F0
ENDCHAR
STARTCHAR ff39
ENCODING 65337
SWIDTH 4320 0
DWIDTH 36 0
BBX 36 36 0 0
BITMAP
F800000000
F800000000
F800000000
F800000000
FF80000000
0F80000000
0F80000000
0F80000000
0F80000000
007C000000
007C000000
007C000000
007C000000
007FC00000
0007C00000
0007C00000
0007C00000
0007C00000
0007FFFFF0
0007FFFFF0
0007FFFFF0
0007FFFFF0
007FFFFFF0
007C000000
007C000000
007C000000
007C000000
0F80000000
0F80000000
0F80000000
0F80000000
FF80000000
F800000000
F800000000
F800000000
F800000000
ENDCHAR
STARTCHAR ff3c
ENCODING 65340
SWIDTH 4320 0
DWIDTH 36 0
BBX 36 36 0 0
BITMAP
F800000000
F800000000
F800000000
F800000000
FF80000000
0F80000000
0F80000000
0F80000000
0F80000000
007C000000
007C000000
007C000000
007C000000
007FC00000
0007C00000
0007C00000
0007C00000
0007C00000
00003E0000
00003E0000
00003E0000
00003E0000
00003FE000
000003E000
000003E000
000003E000
000003E000
0000001F00
0000001F00
0000001F00
0000001F00
0000001FF0
00000001F0
00000001F0
00000001F0
00000001F0
ENDCHAR
STARTCHAR ffe1
ENCODING 65505
SWIDTH 4320 0
DWIDTH 36 0
BBX 36 36 0 0
BITMAP
00003FE000
00003FE000
00003FE000
00003FE000
0007FFFF00
0007C01F00
0007C01F00
0007C01F00
0007C01F00
0007C00000
0007C00000
0007C00000
0007C00000
007FFE0000
007FFE0000
007FFE0000
007FFE0000
007FFE0000
0007C00000
0007C00000
0007C00000
0007C00000
0007C00000
0007C00000
0007C00000
0007C00000
0007C00000
007FFFFF00
007FFFFF00
007FFFFF00
007FFFFF00
007FFFFF00
0000000000
0000000000
0000000000
0000000000
ENDCHAR
STARTCHAR ffe3
ENCODING 65507
SWIDTH 4320 0
DWIDTH 36 0
BBX 36 36 0 0
BITMAP
FFFFFFFFF0
FFFFFFFFF0
FFFFFFFFF0
FFFFFFFFF0
FFFFFFFFF0
0000000000
0000000000
0000000000
0000000000
0000000000
0000000000
0000000000
0000000000
0000000000
0000000000
0000000000
0000000000
0000000000
0000000000
0000000000
0000000000
0000000000
0000000000
0000000000
0000000000
0000000000
0000000000
0000000000
0000000000
0000000000
0000000000
0000000000
0000000000
0000000000
0000000000
0000000000
ENDCHAR
STARTCHAR ffe5
ENCODING 65509
SWIDTH 4320 0
DWIDTH 36 0
BBX 36 36 0 0
BITMAP
007C001F00
007C001F00
007C001F00
007C001F00
007FC3FF00
0007C3E000
0007C3E000
0007C3E000
0007C3E000
007FFFFF00
007FFFFF00
007FFFFF00
007FFFFF00
007FFFFF00
00003E0000
00003E0000
00003E0000
00003E0000
007FFFFF00
007FFFFF00
007FFFFF00
007FFFFF00
007FFFFF00
00003E0000
00003E0000
00003E0000
00003E0000
00003E0000
00003E0000
00003E0000
00003E0000
00003E0000
0000000000
0000000000
0000000000
0000000000
ENDCHAR
ENDFONT
